<?xml version="1.0" standalone="no"?>
<!DOCTYPE svg PUBLIC "-//W3C//DTD SVG 1.1//EN" "http://www.w3.org/Graphics/SVG/1.1/DTD/svg11.dtd" >
<svg>
<metadata>
Created by FontForge 20120731 at Tue Jul  4 11:56:04 2017
 By www
Copyright (c) 2012 by Daniel Hernandez. All rights reserved.
</metadata>
<defs>
<font id="AndesCndW04-Bold" horiz-adv-x="577" >
  <font-face 
    font-family="AndesCndW04-Bold"
    font-weight="700"
    font-stretch="normal"
    units-per-em="1000"
    panose-1="2 0 0 0 0 0 0 0 0 0"
    ascent="750"
    descent="-250"
    x-height="482"
    cap-height="700"
    bbox="-107 -341 872 968"
    underline-thickness="50"
    underline-position="-100"
    unicode-range="U+0020-FB04"
  />
<missing-glyph horiz-adv-x="354" 
 />
    <glyph glyph-name="uniFB00" unicode="ff" horiz-adv-x="636" 
d="M368 0v379h-158v-379h-128v379h-60v103h60v47q0 45 10 82t31 63.5t53.5 41.5t77.5 15q26 0 45.5 -7t33.5 -15q16 -10 27 -21l-40 -96l-3.5 4t-10 8.5t-16 8t-22.5 3.5q-30 0 -44 -24t-14 -69v-41h158v47q0 45 9.5 82t30.5 63.5t53.5 41.5t77.5 15q26 0 45.5 -7t33.5 -15
q16 -10 27 -21l-39 -96q-5 7 -13 12q-7 5 -16.5 8.5t-23.5 3.5q-30 0 -43.5 -24t-13.5 -69v-41h123v-103h-123v-379h-128z" />
    <glyph glyph-name="uniFB01" unicode="fi" horiz-adv-x="575" 
d="M526 647q0 -35 -23 -56.5t-56 -21.5t-56 21.5t-23 56.5t23 57.5t56 22.5t56 -22.5t23 -57.5zM545 2q-7 -2 -15 -4q-15 -3 -41 -3q-53 0 -79.5 30.5t-26.5 96.5v257h-173v-379h-128v379h-60v103h60v47q0 45 9.5 82t30 63.5t52 41.5t76.5 15q24 0 42 -6t31 -14
q14 -9 25 -20l-40 -97q-5 6 -11 11q-5 4 -13.5 7.5t-19.5 3.5q-29 0 -41.5 -24t-12.5 -69v-41h301v-339q0 -21 7 -32t27 -11v-98z" />
    <glyph glyph-name="uniFB02" unicode="fl" horiz-adv-x="584" 
d="M82 0v379h-60v103h60v47q0 45 10 82t31 63.5t53.5 41.5t77.5 15q26 0 45.5 -7t33.5 -15q16 -10 27 -21l-40 -96q-5 7 -13 12q-7 5 -16.5 8.5t-22.5 3.5q-30 0 -44 -24t-14 -69v-41h124v-103h-124v-379h-128zM554 2q-7 -2 -15 -4q-15 -3 -41 -3q-52 0 -79 30.5t-27 96.5
v604h128v-583q0 -21 7 -32t27 -11v-98z" />
    <glyph glyph-name="uniFB03" unicode="ffi" horiz-adv-x="860" 
d="M829 2q-6 -2 -14 -4q-14 -3 -41 -3q-53 0 -79.5 30.5t-26.5 96.5v257h-172v-379h-128v379h-158v-379h-128v379h-60v103h60v47q0 45 10 82t31 63.5t53.5 41.5t77.5 15q26 0 45.5 -7t33.5 -15q16 -10 27 -21l-40 -96q-5 7 -13 12q-7 5 -16.5 8.5t-22.5 3.5q-30 0 -44 -24
t-14 -69v-41h158v47q0 45 9.5 82t30 63.5t52 41.5t76.5 15q23 0 41.5 -6t30.5 -14q14 -9 25 -20l-39 -97q-5 6 -11 11q-5 4 -13.5 7.5t-19.5 3.5q-28 0 -41 -24t-13 -69v-41h300v-339q0 -21 6.5 -32t26.5 -11v-98zM811 647q0 -35 -23.5 -56.5t-56.5 -21.5q-32 0 -55 21.5
t-23 56.5t23 57.5t55 22.5q33 0 56.5 -22.5t23.5 -57.5z" />
    <glyph glyph-name="uniFB04" unicode="ffl" horiz-adv-x="870" 
d="M368 0v379h-158v-379h-128v379h-60v103h60v47q0 45 10 82t31 63.5t53.5 41.5t77.5 15q26 0 45.5 -7t33.5 -15q16 -10 27 -21l-40 -96q-5 7 -13 12q-7 5 -16.5 8.5t-22.5 3.5q-30 0 -44 -24t-14 -69v-41h158v47q0 45 9.5 82t30.5 63.5t53.5 41.5t77.5 15q26 0 45.5 -7
t33.5 -15q16 -10 27 -21l-39 -96l-3.5 4t-10 8.5t-16.5 8t-23 3.5q-29 0 -43 -24t-14 -69v-41h123v-103h-123v-379h-128zM839 2q-6 -2 -14 -4q-14 -3 -41 -3q-53 0 -79.5 30.5t-26.5 96.5v604h128v-583q0 -21 7 -32t26 -11v-98z" />
    <glyph glyph-name=".notdef" horiz-adv-x="354" 
 />
    <glyph glyph-name=".null" horiz-adv-x="0" 
 />
    <glyph glyph-name="nonmarkingreturn" horiz-adv-x="333" 
 />
    <glyph glyph-name="space" unicode=" " horiz-adv-x="183" 
 />
    <glyph glyph-name="exclam" unicode="!" horiz-adv-x="241" 
d="M193 784l-19 -573h-109l-15 573h143zM118 130q29 0 49.5 -21.5t20.5 -52.5q0 -30 -20.5 -51.5t-49.5 -21.5t-49.5 21.5t-20.5 51.5q0 31 20.5 52.5t49.5 21.5z" />
    <glyph glyph-name="quotedbl" unicode="&#x22;" horiz-adv-x="294" 
d="M45 580l-3 196h86l-5 -196h-78zM170 580l-3 196h86l-5 -196h-78z" />
    <glyph glyph-name="numbersign" unicode="#" horiz-adv-x="546" 
d="M384 122l-13 -75h-90l12 75h-94l-12 -75h-91l12 75h-80l16 72h79l23 133h-71l16 72h70l16 93h91l-16 -93h94l17 93h89l-15 -93h82l-16 -72h-81l-24 -133h74l-16 -72h-72zM331 327h-94l-24 -133h95z" />
    <glyph glyph-name="dollar" unicode="$" horiz-adv-x="531" 
d="M223 13q-58 8 -96.5 30.5t-61.5 47.5q-27 29 -43 63l81 78q18 -29 43 -52q21 -20 52 -36t72 -16q42 0 64.5 20t22.5 53q0 38 -22.5 57t-57 30t-74 20.5t-74 28.5t-57 53.5t-22.5 95.5q0 38 11.5 72.5t33.5 61t54 44.5t74 23v113h107v-115q50 -9 81.5 -30.5t50.5 -43.5
q22 -26 33 -55l-94 -64q-10 21 -27 39q-14 14 -37.5 26.5t-55.5 12.5q-42 0 -66.5 -23.5t-24.5 -58.5t23 -52t57.5 -27t74.5 -19.5t74.5 -29.5t57.5 -56.5t23 -100.5q0 -33 -9.5 -64.5t-30 -57.5t-53 -44.5t-77.5 -24.5v-121h-107v122z" />
    <glyph glyph-name="percent" unicode="%" horiz-adv-x="557" 
d="M146 0l181 700h86l-180 -700h-87zM132 423q-54 0 -81.5 38t-27.5 101q0 64 27.5 101.5t81.5 37.5q57 0 85 -37.5t28 -101.5q0 -63 -28 -101t-85 -38zM132 487q20 0 29 19.5t9 55.5q0 71 -38 71q-37 0 -37 -71q0 -36 8.5 -55.5t28.5 -19.5zM422 -2q-55 0 -82.5 37.5
t-27.5 101.5q0 63 27.5 101t82.5 38q56 0 84 -38t28 -101q0 -64 -28 -101.5t-84 -37.5zM422 62q20 0 28.5 19.5t8.5 55.5q0 71 -37 71q-38 0 -38 -71q0 -36 9 -55.5t29 -19.5z" />
    <glyph glyph-name="ampersand" unicode="&#x26;" horiz-adv-x="590" 
d="M386 -91q0 26 -1 49.5t-5 46.5q-12 -7 -28 -12q-14 -5 -32 -8t-40 -3q-53 0 -97 18t-75.5 50.5t-48.5 78t-17 100.5q0 52 12.5 87.5t29 58.5t32 34t20.5 13q-13 20 -22.5 51t-9.5 75q0 35 11.5 68.5t34.5 59.5t57.5 42t81.5 16q48 0 83.5 -15.5t58.5 -41.5t34.5 -59.5
t11.5 -69.5q0 -21 -2.5 -37.5t-5.5 -28.5q-4 -14 -7 -24h-115q2 8 4 19q2 9 3.5 21t1.5 27q0 35 -13.5 61.5t-45.5 26.5q-27 0 -44 -21t-17 -65q0 -36 20.5 -67.5t51 -68.5t66 -83t64.5 -110q11 24 14.5 57t3.5 78h108q0 -49 -7 -90t-18.5 -73.5t-25.5 -57.5t-28 -41
q8 -35 11.5 -75t3.5 -87h-114zM297 106q21 0 33 7q6 3 11 7q-15 39 -33 71t-36 59t-35.5 49t-30.5 40q-1 0 -6.5 -5.5t-11.5 -16.5t-11 -28.5t-5 -42.5q0 -64 34.5 -102t90.5 -38z" />
    <glyph glyph-name="quotesingle" unicode="'" horiz-adv-x="169" 
d="M45 580l-3 196h86l-5 -196h-78z" />
    <glyph glyph-name="parenleft" unicode="(" horiz-adv-x="284" 
d="M160 -244q-36 52 -64 124q-24 62 -43.5 152t-19.5 209q0 118 19.5 208.5t43.5 152.5q28 72 64 124l109 -49q-31 -47 -55 -111q-21 -55 -38 -136.5t-17 -188.5q0 -108 17 -189t38 -136q24 -64 55 -111z" />
    <glyph glyph-name="parenright" unicode=")" horiz-adv-x="283" 
d="M14 -195q30 47 55 111q20 55 37.5 136t17.5 189q0 107 -17.5 188.5t-37.5 136.5q-25 64 -55 111l109 49q36 -52 64 -124q24 -62 44 -152.5t20 -208.5q0 -119 -20 -209t-44 -152q-28 -72 -64 -124z" />
    <glyph glyph-name="asterisk" unicode="*" horiz-adv-x="377" 
d="M217 428l-37 127l-64 -107l-51 38l82 103l-116 11l6 66l114 -31l-49 121l57 27l36 -131l67 114l50 -39l-81 -104l116 -12l-8 -64l-115 28l50 -121z" />
    <glyph glyph-name="plus" unicode="+" horiz-adv-x="409" 
d="M156 234h-123v93h123v144h92v-144h128v-93h-128v-160h-92v160z" />
    <glyph glyph-name="comma" unicode="," horiz-adv-x="232" 
d="M39 71q0 32 21 55t52 23t55.5 -22.5t24.5 -67.5q0 -62 -17 -101.5t-37 -62.5q-24 -27 -54 -41l-34 56q18 11 31 24q11 11 20.5 26t10.5 34q-31 0 -52 22.5t-21 54.5z" />
    <glyph glyph-name="hyphen" unicode="-" horiz-adv-x="347" 
d="M49 225v94h249v-94h-249z" />
    <glyph glyph-name="period" unicode="." horiz-adv-x="225" 
d="M39 71q0 32 21 55t52 23t52.5 -23t21.5 -55t-21.5 -54.5t-52.5 -22.5t-52 22.5t-21 54.5z" />
    <glyph glyph-name="slash" unicode="/" horiz-adv-x="402" 
d="M17 -228l243 934h124l-241 -934h-126z" />
    <glyph glyph-name="zero" unicode="0" horiz-adv-x="566" 
d="M279 -6q-62 0 -107 25.5t-75 72t-44.5 112t-14.5 145.5t14.5 145.5t44.5 112.5t75.5 73t106.5 26q63 0 110 -26t78 -73t46 -112.5t15 -145.5t-15 -145.5t-46 -112t-77.5 -72t-110.5 -25.5zM279 111q61 0 89 60t28 178q0 119 -28 179.5t-89 60.5q-57 0 -84 -60.5
t-27 -179.5q0 -118 27 -178t84 -60z" />
    <glyph glyph-name="one" unicode="1" horiz-adv-x="425" 
d="M227 0v499q-7 -17 -25 -36.5t-44 -36t-59.5 -27.5t-71.5 -11l-6 129q41 0 77.5 16.5t64 42.5t44.5 58.5t20 65.5h135v-700h-135z" />
    <glyph glyph-name="two" unicode="2" horiz-adv-x="514" 
d="M37 0v67q0 60 22.5 101.5t56 72t72.5 54.5t72.5 49t56 54.5t22.5 71.5q0 52 -20 84t-61 32q-24 0 -41.5 -13t-28.5 -31t-16 -38.5t-5 -35.5l-128 32q0 26 11 61.5t36.5 67.5t66.5 54.5t101 22.5q50 0 90.5 -17t69.5 -47.5t44.5 -74t15.5 -97.5t-19.5 -95t-48 -73
t-62.5 -57t-63.5 -46t-49 -40t-20.5 -39v-8h261v-112h-435z" />
    <glyph glyph-name="three" unicode="3" horiz-adv-x="534" 
d="M189 299v100h76q11 0 23.5 5.5t22.5 17t16.5 28t6.5 38.5q0 40 -23 69t-65 29q-19 0 -33.5 -9t-24.5 -21.5t-15 -27.5t-5 -27l-130 45q11 45 39 80q12 15 28.5 29.5t39 25.5t51.5 18t65 7q57 0 98.5 -17.5t68 -46.5t39.5 -65.5t13 -73.5q0 -41 -13.5 -68.5t-30.5 -43.5
t-33 -23t-20 -8q4 -2 22.5 -9.5t39 -26.5t37 -51t16.5 -82q0 -47 -17 -83.5t-48.5 -61.5t-76 -38.5t-99.5 -13.5q-79 0 -124.5 22t-69.5 49q-28 32 -38 72l94 64q11 -26 29 -46q16 -17 40.5 -31.5t61.5 -14.5q48 0 74.5 24t26.5 72q0 25 -8.5 43t-21 29t-28 16.5t-28.5 5.5
h-76z" />
    <glyph glyph-name="four" unicode="4" horiz-adv-x="513" 
d="M272 0v141h-249v112l195 447h141l-190 -447h119v150h118v-150h85v-112h-85v-141h-134z" />
    <glyph glyph-name="five" unicode="5" horiz-adv-x="533" 
d="M188 588v-145q10 8 26 14q14 5 33.5 10t46.5 5q46 0 85 -18t67 -50t43.5 -75.5t15.5 -94.5q0 -47 -13.5 -90t-42.5 -76.5t-75 -53.5t-110 -20q-63 0 -107 21.5t-72 47.5q-33 31 -53 70l108 73q14 -26 32 -46q16 -17 39 -31.5t53 -14.5q54 0 82.5 30t28.5 90q0 24 -7 45.5
t-20.5 37.5t-32.5 25.5t-43 9.5q-21 0 -36.5 -7.5t-26.5 -16.5q-12 -11 -21 -23h-129v395h406v-112h-277z" />
    <glyph glyph-name="six" unicode="6" horiz-adv-x="543" 
d="M288 -6q-127 0 -188.5 88.5t-61.5 257.5q0 177 62.5 271.5t189.5 94.5q35 0 64.5 -8t53.5 -21.5t42.5 -31.5t32.5 -37l-101 -86q-11 20 -33.5 39.5t-58.5 19.5q-53 0 -83 -46.5t-37 -148.5q17 17 38 31q18 12 42 22t53 10q46 0 84.5 -16t66.5 -45t43.5 -70t15.5 -92
q0 -49 -13 -91t-40.5 -73.5t-70 -49.5t-101.5 -18zM286 329q-24 0 -43.5 -9.5t-34.5 -20.5t-24 -21.5t-11 -11.5q8 -69 39.5 -110.5t74.5 -41.5q45 0 71 30t26 82q0 48 -25 75.5t-73 27.5z" />
    <glyph glyph-name="seven" unicode="7" horiz-adv-x="467" 
d="M101 0q0 80 14.5 147t36 122.5t46.5 101.5t46.5 84.5t36 71t14.5 61.5h-275v112h432v-60q0 -55 -16 -102t-40 -91t-52.5 -89.5t-52.5 -98.5t-40 -116t-16 -143h-134z" />
    <glyph glyph-name="eight" unicode="8" horiz-adv-x="548" 
d="M35 192q0 47 15 79t33.5 52t34.5 29.5t18 10.5q-2 1 -13.5 8t-24.5 24.5t-23.5 47t-10.5 74.5q0 42 14.5 76.5t41.5 59.5t66 39t87 14q56 0 96.5 -16.5t67 -42.5t39 -60t12.5 -68q0 -44 -13 -73t-29 -47q-18 -21 -42 -33q30 -14 50.5 -33.5t33 -43.5t18.5 -51.5t6 -56.5
q0 -87 -62 -137t-177 -50q-51 0 -94.5 12t-75.5 36t-50 61.5t-18 88.5zM233 323q-18 -7 -32 -21q-12 -12 -21.5 -33t-9.5 -55q0 -52 28 -79t75 -27q48 0 73.5 27t25.5 76q0 34 -17 57.5t-45 32.5zM301 399q13 4 24 16q9 11 17 30t8 52q0 39 -20.5 69t-56.5 30t-57 -28
t-21 -66q0 -21 5 -36.5t12.5 -25.5t15.5 -15.5t14 -7.5z" />
    <glyph glyph-name="nine" unicode="9" horiz-adv-x="545" 
d="M257 706q125 0 187.5 -88.5t62.5 -257.5q0 -178 -62.5 -272t-190.5 -94q-36 0 -65 8t-52.5 21.5t-42 31.5t-32.5 37l83 86q4 -10 14 -20.5t23 -19t28.5 -14t32.5 -5.5q57 0 91 46.5t42 148.5q-18 -18 -39 -32q-18 -12 -42.5 -21.5t-51.5 -9.5q-46 0 -85 16t-67.5 45
t-44.5 70t-16 92q0 49 13 91t41 73.5t71 49.5t102 18zM258 371q24 0 43.5 9.5t34.5 20.5t24 21t11 12q-8 69 -39.5 110.5t-74.5 41.5q-45 0 -71 -30t-26 -82q0 -48 25 -75.5t73 -27.5z" />
    <glyph glyph-name="colon" unicode=":" horiz-adv-x="263" 
d="M58 71q0 32 21 55t52 23t52.5 -23t21.5 -55t-21.5 -54.5t-52.5 -22.5t-52 22.5t-21 54.5zM58 489q0 32 21 55t52 23t52.5 -23t21.5 -55t-21.5 -54.5t-52.5 -22.5t-52 22.5t-21 54.5z" />
    <glyph glyph-name="semicolon" unicode=";" horiz-adv-x="269" 
d="M60 71q0 32 21 55t52 23t55.5 -22.5t24.5 -67.5q0 -62 -17 -101.5t-37 -62.5q-24 -27 -54 -41l-34 56q18 11 31 24q11 11 20.5 26t10.5 34q-31 0 -52 22.5t-21 54.5zM58 489q0 32 21 55t52 23t52.5 -23t21.5 -55t-21.5 -54.5t-52.5 -22.5t-52 22.5t-21 54.5z" />
    <glyph glyph-name="less" unicode="&#x3c;" horiz-adv-x="376" 
d="M27 221v102l304 197v-112l-193 -136l193 -134v-113z" />
    <glyph glyph-name="equal" unicode="=" horiz-adv-x="448" 
d="M51 321v94h346v-94h-346zM51 113v94h346v-94h-346z" />
    <glyph glyph-name="greater" unicode="&#x3e;" horiz-adv-x="376" 
d="M44 25v113l193 134l-193 136v112l305 -197v-102z" />
    <glyph glyph-name="question" unicode="?" horiz-adv-x="442" 
d="M196 129q29 0 49 -21.5t20 -52.5q0 -30 -20.5 -51.5t-48.5 -21.5q-29 0 -49.5 21.5t-20.5 51.5q0 31 20.5 52.5t49.5 21.5zM23 562q0 48 15 87t41.5 66.5t62.5 42.5t79 15q52 0 89 -17.5t60.5 -46.5t34.5 -67t11 -79q0 -47 -11.5 -79t-29 -57t-37.5 -46.5t-37.5 -45.5
t-29 -54.5t-11.5 -73.5h-119q0 58 10.5 97.5t26 67t34 47t34 38.5t26 41.5t10.5 56.5q0 38 -17.5 63.5t-47.5 25.5q-33 0 -51.5 -28t-18.5 -71z" />
    <glyph glyph-name="at" unicode="@" horiz-adv-x="739" 
d="M614 -49q-14 -11 -38 -29t-58.5 -36t-80 -31t-101.5 -13q-61 0 -115.5 22.5t-96 65t-65.5 105.5t-24 144q0 99 29 184.5t81 148t123.5 98t157.5 35.5q64 0 117 -23.5t91.5 -65t59.5 -97.5t21 -120q0 -58 -18 -112t-49 -95t-71.5 -66t-86.5 -25q-37 0 -54 17.5t-17 43.5
q0 5 0.5 9t0.5 6q-2 -3 -10 -15.5t-23 -26t-35.5 -24t-47.5 -10.5q-19 0 -39 8t-37 25.5t-28 45.5t-11 69q0 57 17.5 106.5t46 85.5t66 56.5t78.5 20.5q19 0 32 -5t22 -12t14 -14t8 -10l8 39h82q-19 -86 -34 -155q-6 -29 -12.5 -57.5t-11 -51t-7.5 -37t-3 -15.5
q-2 -14 2.5 -22t15.5 -8q15 0 35 16.5t37.5 46.5t29.5 71.5t12 91.5q0 48 -12 89t-37.5 70.5t-64 46.5t-91.5 17q-65 0 -119 -29.5t-93 -80.5t-60.5 -119.5t-21.5 -146.5q0 -66 18.5 -114t48 -79.5t67 -46.5t76.5 -15q46 0 83 11t66 26t49.5 30.5t32.5 23.5zM451 347
q-5 8 -13 14q-8 5 -19.5 9.5t-28.5 4.5q-20 0 -39 -13t-33.5 -35.5t-23.5 -52t-9 -62.5q0 -37 13 -57.5t37 -20.5q17 0 32 9.5t26 22t19 26t12 22.5z" />
    <glyph glyph-name="A" unicode="A" horiz-adv-x="583" 
d="M391 175h-199l-47 -175h-142l219 700h139l218 -700h-141zM227 280h130l-66 254z" />
    <glyph glyph-name="B" unicode="B" horiz-adv-x="557" 
d="M60 0v700h236q92 0 143.5 -43.5t51.5 -141.5q0 -47 -10 -75t-24.5 -44t-30.5 -21t-27 -5v-2q15 0 37.5 -8.5t44 -28.5t36.5 -53t15 -82q0 -55 -17 -92.5t-45.5 -60.5t-66 -33t-79.5 -10h-264zM291 112q42 0 65.5 20.5t23.5 78.5q0 54 -26.5 77t-67.5 23h-91v-199h96z
M273 408q44 0 61 25t17 66q0 42 -22 65.5t-69 23.5h-65v-180h78z" />
    <glyph glyph-name="C" unicode="C" horiz-adv-x="563" 
d="M539 125q-20 -37 -52 -66q-27 -25 -68.5 -45t-100.5 -20q-64 0 -116.5 22.5t-90 66.5t-58.5 110.5t-21 155.5q0 177 71.5 267t198.5 90q54 0 93 -15.5t65.5 -39.5t42 -53t23.5 -56t10.5 -49t2.5 -31l-126 -21q-2 40 -14 72q-11 27 -32.5 49.5t-62.5 22.5q-59 0 -95.5 -57
t-36.5 -179q0 -62 13 -106.5t34 -73t48.5 -41.5t56.5 -13q31 0 56.5 14.5t43.5 32.5q21 21 37 48z" />
    <glyph glyph-name="D" unicode="D" horiz-adv-x="574" 
d="M60 0v700h181q59 0 113.5 -19.5t96 -63t66.5 -112t25 -167.5q0 -93 -23 -157.5t-61.5 -104.5t-88 -58t-103.5 -18h-206zM265 112q63 0 103 57.5t40 170.5q0 58 -9 104t-29 78t-52 49t-78 17h-45v-476h70z" />
    <glyph glyph-name="E" unicode="E" horiz-adv-x="477" 
d="M60 0v700h385v-112h-250v-186h191v-110h-191v-180h250v-112h-385z" />
    <glyph glyph-name="F" unicode="F" horiz-adv-x="459" 
d="M60 0v700h385v-112h-250v-193h191v-110h-191v-285h-135z" />
    <glyph glyph-name="G" unicode="G" horiz-adv-x="570" 
d="M536 247q0 -47 -13 -92t-40.5 -81t-71.5 -58t-106 -22q-63 0 -113 22.5t-85.5 66.5t-54.5 110.5t-19 155.5q0 177 71 267t199 90q50 0 87 -15.5t62.5 -39t41.5 -52t25 -55t12 -47t3 -28.5l-126 -20q-2 38 -13 68q-10 26 -31.5 47t-59.5 21q-58 0 -94.5 -57t-36.5 -179
q0 -62 10.5 -106.5t29 -73t43 -41.5t52.5 -13t47.5 11t31.5 29t17 41.5t5 49.5v15h-127v103h254v-117z" />
    <glyph glyph-name="H" unicode="H" horiz-adv-x="599" 
d="M404 0v278h-209v-278h-135v700h135v-309h209v309h135v-700h-135z" />
    <glyph glyph-name="I" unicode="I" horiz-adv-x="254" 
d="M60 0v700h135v-700h-135z" />
    <glyph glyph-name="J" unicode="J" horiz-adv-x="417" 
d="M227 700h136v-460q0 -61 -17 -107t-46.5 -77t-68 -46.5t-81.5 -15.5q-39 0 -68 11t-49 25q-23 16 -39 37l82 96q0 -1 5.5 -8t15.5 -15t23.5 -14.5t29.5 -6.5q37 0 57 28.5t20 85.5v467z" />
    <glyph glyph-name="K" unicode="K" horiz-adv-x="581" 
d="M568 2q-7 -2 -18 -4q-18 -3 -51 -3q-48 0 -76.5 21.5t-47 53.5t-30 69.5t-24 69.5t-30 53.5t-48.5 21.5h-48v-284h-135v700h135v-305h47q31 0 56.5 16t43.5 52.5t28 94.5t10 142h134q0 -78 -10 -137t-26.5 -102t-38.5 -71t-47 -44q21 -16 34.5 -39.5t23 -50.5t17 -53.5
t17 -47.5t23 -34.5t34.5 -13.5h27v-105z" />
    <glyph glyph-name="L" unicode="L" horiz-adv-x="456" 
d="M60 0v700h135v-588h252v-112h-387z" />
    <glyph glyph-name="M" unicode="M" horiz-adv-x="730" 
d="M195 421v-421h-135v700h136l170 -435l174 435h131v-700h-136l3 434l-130 -346h-92z" />
    <glyph glyph-name="N" unicode="N" horiz-adv-x="593" 
d="M395 0l-200 440v-440h-135v700h138l200 -457v457h136v-700h-139z" />
    <glyph glyph-name="O" unicode="O" horiz-adv-x="608" 
d="M304 -6q-57 0 -106.5 21.5t-86 65.5t-58 110.5t-21.5 157.5t21 158t58 111t86.5 66t106.5 22t106.5 -22t86.5 -66t58 -111t21 -158t-21.5 -157.5t-58 -110.5t-86 -65.5t-106.5 -21.5zM304 113q27 0 51 12.5t42 40.5t28 73t10 110q0 66 -10.5 111t-28 72.5t-41.5 40
t-51 12.5t-51 -12.5t-41.5 -40t-28 -72.5t-10.5 -111q0 -65 10.5 -110t28 -73t41.5 -40.5t51 -12.5z" />
    <glyph glyph-name="P" unicode="P" horiz-adv-x="532" 
d="M60 0v700h212q112 0 177 -59t65 -180q0 -60 -18 -104t-48.5 -72.5t-71 -42t-85.5 -13.5h-96v-229h-135zM266 339q54 0 82.5 31t28.5 91q0 57 -28 92t-87 35h-67v-249h71z" />
    <glyph glyph-name="Q" unicode="Q" horiz-adv-x="608" 
d="M499 -231q-68 0 -116.5 21t-80 55t-48 75.5t-19.5 83.5q-44 10 -81 36t-64 69t-42.5 103.5t-15.5 139.5q0 91 21 158t58 111t86.5 66t106.5 22t106.5 -22t86.5 -66t58 -111t21 -158q0 -82 -17 -144.5t-47 -106t-70.5 -69t-88.5 -32.5q8 -56 45.5 -87.5t100.5 -31.5v-112z
M304 115q27 0 51 12.5t42 41t28 73.5t10 110q0 66 -10.5 110.5t-28 72.5t-41.5 40t-51 12t-51 -12t-41.5 -40t-28 -72.5t-10.5 -110.5q0 -65 10.5 -110t28 -73.5t41.5 -41t51 -12.5z" />
    <glyph glyph-name="R" unicode="R" 
d="M566 2q-7 -2 -17 -4q-17 -3 -51 -3q-48 0 -77 20t-47 49.5t-29.5 64t-24 64t-30.5 49.5t-49 20h-46v-262h-135v700h216q115 0 174 -51t59 -169q0 -39 -9.5 -68.5t-24.5 -51.5t-32 -36.5t-32 -21.5q21 -22 33 -55.5t24 -64.5t28 -53t44 -22h26v-105zM260 366q51 0 83.5 28
t32.5 82q0 53 -27.5 82.5t-78.5 29.5h-75v-222h65z" />
    <glyph glyph-name="S" unicode="S" horiz-adv-x="524" 
d="M396 507q-10 23 -28 41q-15 16 -39 29t-58 13q-38 0 -61 -23.5t-23 -58.5q0 -38 23 -57t57 -31.5t74.5 -24t74.5 -33.5t57 -61t23 -106q0 -38 -12.5 -74t-40 -64t-71 -45.5t-104.5 -17.5q-72 0 -120 22.5t-77 49.5q-33 32 -52 73l80 78q17 -31 41 -55q20 -20 49.5 -37
t67.5 -17q45 0 70.5 22t25.5 61q0 41 -23 61.5t-58 33t-75 23t-75 32t-58 60t-23 106.5q0 40 14.5 76t42.5 63.5t69 43.5t94 16q70 0 114 -21t70 -47q30 -30 45 -67z" />
    <glyph glyph-name="T" unicode="T" horiz-adv-x="550" 
d="M212 0v588h-202v112h530v-112h-193v-588h-135z" />
    <glyph glyph-name="U" unicode="U" 
d="M388 700h136v-411q0 -84 -18.5 -140.5t-50.5 -91t-74.5 -49t-90.5 -14.5t-91 14.5t-75.5 49t-51 91t-18.5 140.5v411h136v-421q0 -37 5 -67t16.5 -51.5t30.5 -33t48 -11.5q56 0 77 44.5t21 118.5v421z" />
    <glyph glyph-name="V" unicode="V" horiz-adv-x="582" 
d="M435 700h147l-224 -700h-136l-220 700h154l136 -543z" />
    <glyph glyph-name="W" unicode="W" horiz-adv-x="881" 
d="M615 157l104 543h153l-171 -700h-159l-100 467l-103 -467h-159l-171 700h159l97 -543l122 543h113z" />
    <glyph glyph-name="X" unicode="X" horiz-adv-x="572" 
d="M420 0l-134 260l-134 -260h-149l192 348l-192 352h157l126 -253l127 253h157l-196 -348l196 -352h-150z" />
    <glyph glyph-name="Y" unicode="Y" horiz-adv-x="580" 
d="M220 0v293l-219 407h158l131 -290l131 290h158l-219 -407v-293h-140z" />
    <glyph glyph-name="Z" unicode="Z" horiz-adv-x="529" 
d="M34 0v112l296 476h-296v112h461v-112l-291 -476h291v-112h-461z" />
    <glyph glyph-name="bracketleft" unicode="[" horiz-adv-x="344" 
d="M57 -244v970h259v-113h-131v-744h131v-113h-259z" />
    <glyph glyph-name="backslash" unicode="\" horiz-adv-x="402" 
d="M259 -228l-242 934h125l242 -934h-125z" />
    <glyph glyph-name="bracketright" unicode="]" horiz-adv-x="344" 
d="M27 -244v113h132v744h-132v113h259v-970h-259z" />
    <glyph glyph-name="asciicircum" unicode="^" horiz-adv-x="372" 
d="M38 509l79 222h138l78 -222h-110l-37 127l-38 -127h-110z" />
    <glyph glyph-name="underscore" unicode="_" horiz-adv-x="374" 
d="M11 -93v93h352v-93h-352z" />
    <glyph glyph-name="grave" unicode="`" horiz-adv-x="265" 
d="M133 557l-112 193h153l69 -193h-110z" />
    <glyph glyph-name="a" unicode="a" horiz-adv-x="453" 
d="M432 3q-6 -2 -14 -4q-7 -2 -17 -3t-24 -1q-30 0 -48 10t-27 22.5t-12 24.5t-3 17v1q-6 -12 -15.5 -25t-24.5 -24.5t-36.5 -19t-51.5 -7.5q-64 0 -99.5 36t-35.5 93q0 64 38 99t126 35h83v58q0 39 -13.5 56.5t-39.5 17.5q-25 0 -38 -16t-13 -44q0 -9 0.5 -15t1.5 -10t3 -8
h-114q-3 5 -5 13q-2 7 -3 17t-1 24q0 61 43.5 99.5t129.5 38.5q94 0 135.5 -46.5t41.5 -131.5v-166q0 -21 7 -32.5t26 -11.5v-97zM271 188h-62q-29 0 -42.5 -12.5t-13.5 -35.5t13.5 -35t33.5 -12q21 0 35 12t22 26q10 17 14 38v19z" />
    <glyph glyph-name="b" unicode="b" horiz-adv-x="477" 
d="M48 0v726h128v-298l6 9.5t18.5 21t32.5 20.5t49 9q30 0 59.5 -14t53.5 -44t38.5 -76.5t14.5 -110.5q0 -68 -14.5 -115t-38.5 -77t-55.5 -43.5t-65.5 -13.5q-24 0 -42.5 7.5t-32.5 18t-23.5 20.5t-15.5 15v-55h-112zM176 195q0 -8 3.5 -22.5t12 -29t22 -25t33.5 -10.5
q32 0 53 32.5t21 100.5q0 36 -7 61.5t-17.5 41.5t-24 23t-26.5 7q-23 0 -36.5 -13t-21.5 -29q-9 -18 -12 -42v-95z" />
    <glyph glyph-name="c" unicode="c" horiz-adv-x="435" 
d="M412 94q-15 -28 -40 -50q-21 -19 -55.5 -34.5t-84.5 -15.5q-45 0 -82.5 16t-64 47t-41.5 77t-15 106q0 115 49.5 181.5t154.5 66.5q42 0 74 -13t53.5 -35t32 -50.5t10.5 -59.5q0 -14 -1 -24.5t-3 -18.5q-2 -9 -4 -15h-111q1 5 3 10l2 10t1 12q0 11 -2 23.5t-8.5 23
t-17.5 17t-29 6.5q-39 0 -58 -31.5t-19 -100.5q0 -39 8 -65t21.5 -41t30.5 -21.5t34 -6.5q25 0 43 8.5t30 19.5q14 12 23 28z" />
    <glyph glyph-name="d" unicode="d" horiz-adv-x="492" 
d="M463 2q-7 -2 -15 -4q-15 -3 -41 -3q-30 0 -48 10t-27.5 23t-12 26t-2.5 18v1q-5 -9 -13.5 -22t-22.5 -26t-35 -22t-51 -9t-59.5 14.5t-53 44.5t-38.5 76.5t-15 110.5q0 67 15.5 114t41 77t57.5 43.5t66 13.5q27 0 44.5 -7.5t28 -16.5t15 -17t4.5 -9v288h128v-581
q0 -23 7 -34t27 -11v-98zM301 292q-1 8 -5 21.5t-12.5 27t-21.5 23.5t-32 10q-32 0 -53 -32.5t-21 -100.5q0 -35 6.5 -60.5t17.5 -41.5t24 -23.5t27 -7.5q22 0 35.5 12.5t21 28t10.5 29t3 16.5v98z" />
    <glyph glyph-name="e" unicode="e" horiz-adv-x="439" 
d="M158 224v-5q3 -34 12 -56.5t22 -36t28 -19.5t30 -6q25 0 43.5 9.5t30.5 21.5q14 13 24 31l64 -69q-15 -28 -40 -50q-21 -19 -55.5 -34.5t-84.5 -15.5q-45 0 -82.5 16t-64 47t-41.5 77t-15 106q0 115 49 181.5t153 66.5q47 0 80 -16.5t54 -46t31 -71t10 -90.5v-40h-248z
M284 297q0 40 -13.5 64t-46.5 24q-26 0 -43.5 -21t-20.5 -67h124z" />
    <glyph glyph-name="f" unicode="f" horiz-adv-x="350" 
d="M82 0v379h-60v103h60v47q0 45 10 82t31 63.5t53.5 41.5t77.5 15q26 0 45.5 -7t33.5 -15q16 -10 27 -21l-40 -96q-5 7 -13 12q-7 5 -16.5 8.5t-22.5 3.5q-30 0 -44 -24t-14 -69v-41h124v-103h-124v-379h-128z" />
    <glyph glyph-name="g" unicode="g" horiz-adv-x="455" 
d="M183 -28q-25 0 -41.5 -14.5t-16.5 -43.5q0 -30 23 -45.5t77 -15.5q60 0 82.5 15.5t22.5 48.5q0 29 -16 42t-44 13h-87zM306 301q0 38 -21 61.5t-54 23.5t-53.5 -23t-20.5 -62q0 -38 19.5 -62t53.5 -24t55 24t21 62zM271 64q36 0 68 -9t55 -27t36.5 -46t13.5 -66
q0 -31 -10 -60.5t-34.5 -52t-65 -36.5t-101.5 -14q-110 0 -163.5 39t-53.5 114q0 30 8 50t17.5 32.5t19 18.5t12.5 8q-2 1 -8.5 6.5t-14 14.5t-13 22.5t-5.5 32.5q0 22 7 37.5t16.5 25.5t19 15.5t15.5 7.5q-3 2 -11.5 10t-17.5 23t-16 37.5t-7 53.5q0 45 15 79.5t41.5 58.5
t61.5 36.5t74 12.5q14 0 26 -3t20 -4q5 0 19.5 3t30 12.5t27.5 27t12 47.5l91 -12q0 -31 -8.5 -53t-22.5 -36.5t-31.5 -22t-34.5 -8.5q28 -20 45.5 -54t17.5 -84q0 -45 -15.5 -79.5t-42 -58t-61 -36t-71.5 -12.5q-20 0 -37 5t-30 10q-17 0 -27.5 -8t-10.5 -25
q0 -18 11.5 -25.5t29.5 -7.5h103z" />
    <glyph glyph-name="h" unicode="h" horiz-adv-x="478" 
d="M458 2q-7 -2 -15 -4q-15 -3 -41 -3q-53 0 -79.5 30.5t-26.5 96.5v166q0 38 -15 61.5t-42 23.5q-17 0 -29 -9.5t-19.5 -23.5t-11 -31.5t-3.5 -32.5v-276h-128v726h128v-301q14 26 37.5 44.5t63.5 18.5t68 -15t45.5 -41t25.5 -61t8 -74v-154q0 -21 7 -32t27 -11v-98z" />
    <glyph glyph-name="i" unicode="i" horiz-adv-x="237" 
d="M189 647q0 -35 -23 -56.5t-56 -21.5t-55.5 21.5t-22.5 56.5t22.5 57.5t55.5 22.5t56 -22.5t23 -57.5zM207 2q-6 -2 -14 -4q-14 -3 -41 -3q-53 0 -79.5 30.5t-26.5 96.5v360h128v-339q0 -21 7 -32t26 -11v-98z" />
    <glyph glyph-name="j" unicode="j" horiz-adv-x="225" 
d="M-42 -121q4 -3 9 -6q5 -2 10.5 -4t13.5 -2q31 0 44 26t13 74v515h129v-521q0 -47 -9.5 -85t-30.5 -65.5t-53.5 -42.5t-77.5 -15q-23 0 -39 4.5t-27 10.5q-12 7 -21 16zM190 649q0 -35 -23 -56t-56 -21t-55.5 21t-22.5 56q0 34 22.5 56t55.5 22t56 -22t23 -56z" />
    <glyph glyph-name="k" unicode="k" horiz-adv-x="483" 
d="M465 5q-7 -3 -15 -5q-15 -5 -36 -5q-37 0 -59.5 16t-37.5 40t-25 51.5t-22 51.5t-29.5 40t-46.5 16h-19v-210h-127v726h127v-414h32q44 0 71.5 44.5t27.5 125.5h119q0 -32 -5 -64.5t-17 -61t-32 -51.5t-49 -35q26 -18 38.5 -46.5t24 -56t26.5 -47.5t46 -20h8v-95z" />
    <glyph glyph-name="l" unicode="l" horiz-adv-x="238" 
d="M208 2q-6 -2 -15 -4q-15 -3 -42 -3q-52 0 -78.5 30.5t-26.5 96.5v604h128v-583q0 -21 7 -32t27 -11v-98z" />
    <glyph glyph-name="m" unicode="m" horiz-adv-x="738" 
d="M717 2q-7 -2 -15 -4q-15 -3 -41 -3q-53 0 -79.5 30.5t-26.5 96.5v163q0 40 -15 64t-42 24q-26 0 -40 -24t-18 -51v-155q0 -21 7 -32t27 -11v-98q-6 -2 -15 -4q-15 -3 -42 -3q-52 0 -79 30.5t-27 96.5v163q0 40 -14 64t-43 24q-17 0 -29 -9.5t-19.5 -23.5t-11 -31.5
t-3.5 -32.5v-276h-128v339q0 20 -6.5 31.5t-26.5 11.5v98q6 1 14 3q7 2 17.5 3t24.5 1q31 0 48.5 -11t26.5 -25t11 -27t2 -17v-2q4 15 13 30t23 27t34.5 19t48.5 7q46 0 76.5 -23t47.5 -61q4 15 12.5 30t22.5 27t34.5 19.5t49.5 7.5q39 0 67 -15t46 -41t26 -61t8 -74v-154
q0 -21 7 -32t27 -11v-98z" />
    <glyph glyph-name="n" unicode="n" horiz-adv-x="494" 
d="M473 2q-6 -2 -14 -4q-14 -3 -42 -3q-52 0 -79 30.5t-27 96.5v163q0 42 -14.5 65t-42.5 23q-17 0 -29 -9.5t-19.5 -23.5t-11 -31.5t-3.5 -32.5v-276h-128v339q0 20 -6.5 31.5t-26.5 11.5v98q6 1 14 3q7 2 17.5 3t24.5 1q31 0 48.5 -11t26.5 -25t11 -27t2 -17v-2
q4 15 13 30t23 27t34 19t48 7q39 0 67 -15t46 -41t26 -61t8 -74v-154q0 -21 7 -32t27 -11v-98z" />
    <glyph glyph-name="o" unicode="o" horiz-adv-x="450" 
d="M225 -6q-48 0 -84.5 18t-61 50.5t-37.5 78t-13 101.5q0 55 13 100.5t38 77.5t61.5 50t83.5 18t83.5 -18t61.5 -50t38 -77.5t13 -100.5q0 -56 -13 -101.5t-37.5 -78t-61 -50.5t-84.5 -18zM225 108q38 0 53.5 35t15.5 98t-16 98t-53 35t-53 -35t-16 -98t15.5 -98t53.5 -35z
" />
    <glyph glyph-name="p" unicode="p" horiz-adv-x="492" 
d="M63 -244v583q0 20 -6.5 31.5t-26.5 11.5v98q6 1 14 3q7 2 17.5 3t24.5 1q29 0 46.5 -9.5t27.5 -22.5t13 -26t3 -20v-1q4 9 12.5 22.5t22.5 26.5t35 22t51 9t59.5 -14t53.5 -44t38.5 -76.5t14.5 -110.5q0 -68 -14.5 -115t-39 -77t-56 -43.5t-64.5 -13.5q-24 0 -42 7
t-30 16t-18.5 17t-7.5 10v-288h-128zM191 191q1 -8 4.5 -22t12 -27.5t21.5 -23.5t33 -10q32 0 53.5 32.5t21.5 100.5q0 36 -7 61.5t-18 41.5t-24.5 23t-26.5 7q-23 0 -36.5 -13t-21.5 -29q-9 -18 -12 -42v-99z" />
    <glyph glyph-name="q" unicode="q" horiz-adv-x="477" 
d="M301 -244v297q-1 0 -6.5 -9.5t-18 -20.5t-32.5 -20t-49 -9q-30 0 -59.5 14.5t-53 44.5t-38.5 76.5t-15 110.5q0 67 14.5 114t38.5 77t55.5 43.5t65.5 13.5q23 0 41.5 -7.5t33 -17.5t24.5 -20t16 -15v54h111v-726h-128zM301 292q-1 8 -5 21.5t-12.5 27t-21.5 23.5t-32 10
q-32 0 -53 -32.5t-21 -100.5q0 -35 7 -60.5t17.5 -41.5t24 -23.5t26.5 -7.5q22 0 35.5 12.5t21 28t10.5 29.5t3 16v98z" />
    <glyph glyph-name="r" unicode="r" horiz-adv-x="364" 
d="M63 0v339q0 20 -6.5 31.5t-26.5 11.5v98q5 1 13 3q7 2 16.5 3t23.5 1q32 0 50 -12t27 -27t11 -28.5t2 -16.5v-2q4 15 12 30.5t22 28t35 20.5t50 8q17 0 30 -3t22 -7q11 -4 18 -9l-53 -115q-5 3 -13 7q-7 3 -17.5 5.5t-24.5 2.5q-17 0 -29 -9t-19 -23t-10.5 -30t-4.5 -31
v-276h-128z" />
    <glyph glyph-name="s" unicode="s" horiz-adv-x="428" 
d="M275 304q0 5 1 10t1.5 11t0.5 14q0 22 -12.5 36t-43.5 14q-26 0 -40 -13.5t-14 -37.5q0 -25 17 -36.5t43 -18.5t56 -13t56 -19.5t43 -38t17 -68.5q0 -69 -45 -109.5t-141 -40.5q-60 0 -98 15.5t-60 34.5q-26 22 -39 51l71 73q13 -21 31 -37q15 -14 37 -25t51 -11
q30 0 41 11.5t11 31.5t-16.5 29.5t-40.5 16t-53 14t-53 23t-40.5 42t-16.5 72.5q0 29 9.5 56.5t31 49t56 34.5t84.5 13t83.5 -11.5t53.5 -31t28.5 -44.5t8.5 -51q0 -11 -1 -19t-3 -14q-2 -7 -4 -13h-111z" />
    <glyph glyph-name="t" unicode="t" horiz-adv-x="380" 
d="M369 43q-13 -14 -30 -25q-14 -9 -35 -16.5t-46 -7.5q-96 0 -136 55t-40 156v174h-62v103h62v151h128v-151h136v-103h-136v-168q0 -102 62 -102q14 0 25 4.5t19 9.5q9 6 16 14z" />
    <glyph glyph-name="u" unicode="u" horiz-adv-x="485" 
d="M455 2q-7 -2 -15 -4q-15 -3 -41 -3q-32 0 -50 11t-27 25.5t-11.5 27.5t-2.5 16v1q-6 -14 -16 -28.5t-25.5 -26.5t-38 -19.5t-52.5 -7.5q-37 0 -62 12.5t-40 35.5t-21.5 55t-6.5 71v314h128v-285q0 -48 14 -68t39 -20q19 0 31.5 11t20 26.5t11 33.5t3.5 32v270h128v-339
q0 -20 7 -31.5t27 -11.5v-98z" />
    <glyph glyph-name="v" unicode="v" horiz-adv-x="468" 
d="M169 0l-160 482h137l88 -331l89 331h135l-159 -482h-130z" />
    <glyph glyph-name="w" unicode="w" horiz-adv-x="705" 
d="M422 0l-64 282l-75 -282h-130l-141 482h136l71 -332l83 330h120l65 -330l71 332h134l-140 -482h-130z" />
    <glyph glyph-name="x" unicode="x" horiz-adv-x="465" 
d="M321 0l-89 162l-88 -162h-134l148 245l-148 237h138l84 -156l88 156h136l-148 -238l148 -244h-135z" />
    <glyph glyph-name="y" unicode="y" horiz-adv-x="467" 
d="M268 -101q-11 -31 -26.5 -57.5t-37.5 -46t-50 -31t-63 -11.5q-19 0 -33 2.5t-25 6.5q-12 4 -22 10l17 102q7 -3 16 -5q17 -5 38 -5q33 0 50 22.5t27 52.5l14 61l-166 482h137l94 -326l83 326h135z" />
    <glyph glyph-name="z" unicode="z" horiz-adv-x="418" 
d="M34 0v103l200 276h-200v103h351v-103l-194 -276h194v-103h-351z" />
    <glyph glyph-name="braceleft" unicode="{" horiz-adv-x="322" 
d="M293 -244q-39 0 -76 9t-66 32.5t-46.5 63t-17.5 99.5v161q0 36 -18 51.5t-37 15.5h-9v106h9q19 0 37 15.5t18 51.5v161q0 60 17.5 99.5t46.5 63t66 32.5t76 9v-114q-41 0 -64 -27t-23 -85v-169q0 -25 -4.5 -41.5t-11.5 -26.5t-14 -15t-11 -6q3 -1 10 -7t14 -17.5t12 -28
t5 -38.5v-169q0 -58 23 -85t64 -27v-114z" />
    <glyph glyph-name="bar" unicode="|" horiz-adv-x="220" 
d="M57 -254v990h107v-990h-107z" />
    <glyph glyph-name="braceright" unicode="}" horiz-adv-x="322" 
d="M29 -130q41 0 64 27t23 85v169q0 26 5.5 42.5t12 26.5t13.5 14.5t10 7.5q-3 1 -10 5.5t-14 14.5t-12 26.5t-5 42.5v169q0 58 -23 85t-64 27v114q39 0 76 -9t66 -32.5t47 -63t18 -99.5v-161q0 -36 17.5 -51.5t36.5 -15.5h9v-106h-9q-19 0 -36.5 -15.5t-17.5 -51.5v-161
q0 -60 -18 -99.5t-47 -63t-66 -32.5t-76 -9v114z" />
    <glyph glyph-name="asciitilde" unicode="~" horiz-adv-x="425" 
d="M60 187q-4 6 -7 15q-7 17 -7 44q0 38 21.5 66t66.5 28q22 0 42 -6.5t37.5 -14t33 -13.5t29.5 -6q10 0 14 6.5t4 16.5q0 8 -2.5 16t-4.5 14l-6 14h85q3 -8 6 -18q2 -8 4 -18.5t2 -22.5q0 -38 -21 -67t-64 -29q-26 0 -46.5 6.5t-37.5 14t-30.5 14t-25.5 6.5q-10 0 -16 -7.5
t-6 -19.5q0 -9 2 -16.5t4 -12.5q3 -6 7 -10h-84z" />
    <glyph glyph-name="exclamdown" unicode="&#xa1;" horiz-adv-x="237" 
d="M46 -268l19 578h109l15 -578h-143zM122 391q-29 0 -49.5 21.5t-20.5 52.5t20.5 52.5t49.5 21.5t49.5 -21.5t20.5 -52.5t-20.5 -52.5t-49.5 -21.5z" />
    <glyph glyph-name="cent" unicode="&#xa2;" horiz-adv-x="447" 
d="M196 -2q-72 14 -115 78t-43 172q0 104 38.5 168t120.5 78v87h77v-85q27 -4 49 -15t38.5 -26t27.5 -32t16 -32l-105 -61q0 3 -2 9.5t-5.5 14t-9 14.5t-13.5 11v-271q22 2 38 13t27 22q12 13 21 29l65 -70q-12 -26 -32 -48q-17 -19 -45 -36t-70 -22v-95h-78v97zM164 250
q0 -57 13 -87t31 -42v257q-22 -9 -33 -40t-11 -88z" />
    <glyph glyph-name="sterling" unicode="&#xa3;" horiz-adv-x="591" 
d="M37 311h78q-15 30 -29.5 67t-14.5 93q0 49 16.5 92t48 74.5t78.5 50t108 18.5q71 0 118.5 -25t75.5 -55q33 -35 51 -80l-114 -52q-9 25 -27 45q-15 17 -40.5 31t-63.5 14q-28 0 -48.5 -11.5t-34 -30t-20 -41t-6.5 -44.5q-1 -44 14.5 -79.5t29.5 -67.5h194v-97h-173v-13
q0 -20 -4 -36t-8.5 -27t-8.5 -17l-4 -6h272v-114h-448v81q17 11 30 29q11 15 21 37t10 53v13h-101v98z" />
    <glyph glyph-name="currency" unicode="&#xa4;" horiz-adv-x="519" 
d="M88 379q0 51 22 95l-66 78l64 66l64 -78q40 34 89 34q48 0 87 -33l65 77l64 -66l-65 -78q11 -21 17 -45t6 -50q0 -54 -23 -97l62 -73l-64 -66l-62 73q-38 -33 -87 -33q-48 0 -89 33l-67 -79l-64 66l69 80q-22 44 -22 96zM185 379q0 -40 22 -68t54 -28t54 28t22 68
t-22 67.5t-54 27.5t-54 -27.5t-22 -67.5z" />
    <glyph glyph-name="yen" unicode="&#xa5;" horiz-adv-x="619" 
d="M132 255h108v38l-15 33h-149v97h91l-147 272h158l132 -285l131 285h158l-146 -271h90v-97h-150l-13 -34v-38h107v-96h-107v-159h-140v159h-108v96z" />
    <glyph glyph-name="brokenbar" unicode="&#xa6;" horiz-adv-x="224" 
d="M58 354v382h107v-382h-107zM58 -254v449h107v-449h-107z" />
    <glyph glyph-name="section" unicode="&#xa7;" horiz-adv-x="549" 
d="M511 195q0 -31 -8.5 -60.5t-26.5 -55.5q16 -22 25.5 -52.5t9.5 -72.5q0 -38 -12.5 -74t-40 -64t-71 -45.5t-104.5 -17.5q-72 0 -120 22.5t-77 49.5q-33 32 -52 73l80 78q17 -31 41 -55q20 -20 49.5 -37t67.5 -17q45 0 70.5 22t25.5 61q0 41 -23 61.5t-58 33t-75 23
t-75 32t-58 60t-23 106.5q0 32 9 61t27 53q-17 22 -26.5 52.5t-9.5 74.5q0 40 14.5 76t42.5 63.5t69 43.5t94 16q70 0 114 -21t70 -47q30 -30 45 -67l-94 -64q-10 23 -28 41q-15 16 -39 29t-58 13q-38 0 -61 -23.5t-23 -58.5q0 -38 23 -57t57 -31.5t74.5 -24t74.5 -33.5
t57 -61t23 -106zM376 187q0 34 -15 54.5t-39 33.5t-54.5 22t-62.5 19q-6 -10 -8.5 -21.5t-2.5 -23.5q0 -32 15 -51.5t39.5 -32t55.5 -22t63 -20.5q9 18 9 42z" />
    <glyph glyph-name="dieresis" unicode="&#xa8;" horiz-adv-x="344" 
d="M82 571q-26 0 -45 19t-19 48q0 27 19 47t45 20t44.5 -20t18.5 -47q0 -29 -18.5 -48t-44.5 -19zM264 571q-26 0 -45 19t-19 48q0 27 19 47t45 20t44.5 -20t18.5 -47q0 -29 -18.5 -48t-44.5 -19z" />
    <glyph glyph-name="copyright" unicode="&#xa9;" horiz-adv-x="751" 
d="M375 -33q-72 0 -134.5 30.5t-109 83.5t-73 125.5t-26.5 156.5t26.5 156.5t73 125.5t109 83.5t134.5 30.5t134.5 -30.5t109 -83.5t73.5 -125.5t27 -156.5t-27 -156.5t-73.5 -125.5t-109 -83.5t-134.5 -30.5zM375 59q52 0 97.5 23.5t79.5 64t53 96t19 120.5t-19 121
t-53 97.5t-79.5 65t-97.5 23.5q-53 0 -98 -23.5t-79 -65t-53 -97.5t-19 -121t19 -120.5t53 -96t79 -64t98 -23.5zM523 195q-13 -19 -33 -34q-17 -13 -45 -23t-68 -10q-76 0 -123.5 59t-47.5 170q0 61 13 106.5t36 76t54.5 45.5t68.5 15q54 0 85 -21t46 -48.5t18.5 -53
t3.5 -34.5l-87 -15q0 22 -6 40q-6 15 -19.5 27.5t-39.5 12.5q-11 0 -23.5 -6.5t-23 -23t-17.5 -44.5t-7 -71q0 -72 22.5 -107.5t59.5 -35.5q22 0 38.5 7t27.5 15q13 10 22 22z" />
    <glyph glyph-name="ordfeminine" unicode="&#xaa;" horiz-adv-x="313" 
d="M274 430q-4 -2 -9 -4t-12 -3t-17 -1q-16 0 -25 5.5t-13.5 12.5t-5.5 13.5t-1 7.5v1q-8 -15 -25 -28t-52 -13q-36 0 -57 20t-21 52q0 38 21.5 59t73.5 21h51v25q0 22 -7.5 30.5t-22.5 8.5q-31 0 -31 -25q0 -9 1 -11q0 -2 1 -3h-69q-1 2 -2 6q-2 8 -2 22q0 33 25.5 54.5
t76.5 21.5q55 0 78.5 -25.5t23.5 -73.5v-99q0 -17 20 -17v-57zM182 529h-45q-32 0 -32 -24q0 -13 9 -20t21 -7q13 0 22 4.5t14.5 10.5t8 12t2.5 10v14z" />
    <glyph glyph-name="guillemotleft" unicode="&#xab;" horiz-adv-x="490" 
d="M40 212v105l142 139l63 -72l-108 -120l108 -119l-63 -73zM250 212v105l142 139l63 -72l-108 -120l108 -119l-63 -73z" />
    <glyph glyph-name="logicalnot" unicode="&#xac;" horiz-adv-x="430" 
d="M281 103v136h-234v93h330v-229h-96z" />
    <glyph glyph-name="registered" unicode="&#xae;" horiz-adv-x="751" 
d="M543 144q-4 -1 -10 -2q-5 -1 -12.5 -1h-18.5q-29 0 -47 12.5t-29.5 31t-18.5 40t-15.5 40t-20 31t-30.5 12.5h-19v-162h-94v447h138q71 0 107 -32.5t36 -105.5q0 -31 -8 -51t-19 -32.5t-21.5 -18.5t-16.5 -8q15 -14 23.5 -34.5t16 -39.5t17 -32.5t27.5 -13.5h15v-81z
M353 388q30 0 47 15.5t17 44.5q0 61 -59 61h-36v-121h31zM375 -33q-72 0 -134.5 30.5t-109 83.5t-73 125.5t-26.5 156.5t26.5 156.5t73 125.5t109 83.5t134.5 30.5t134.5 -30.5t109 -83.5t73.5 -125.5t27 -156.5t-27 -156.5t-73.5 -125.5t-109 -83.5t-134.5 -30.5zM375 59
q52 0 97.5 23.5t79.5 64t53 96t19 120.5t-19 121t-53 97.5t-79.5 65t-97.5 23.5q-53 0 -98 -23.5t-79 -65t-53 -97.5t-19 -121t19 -120.5t53 -96t79 -64t98 -23.5z" />
    <glyph glyph-name="macron" unicode="&#xaf;" horiz-adv-x="363" 
d="M37 574v93h290v-93h-290z" />
    <glyph glyph-name="degree" unicode="&#xb0;" horiz-adv-x="295" 
d="M263 587q0 -27 -9.5 -51t-25 -42t-36.5 -28t-45 -10t-44.5 10t-36 28t-24.5 42t-9 51t9 51t24.5 42t36 28.5t44.5 10.5t45 -10.5t36.5 -28.5t25 -42t9.5 -51zM196 587q0 26 -14 44.5t-35 18.5q-20 0 -33.5 -18.5t-13.5 -44.5t13.5 -44t33.5 -18q21 0 35 18t14 44z" />
    <glyph glyph-name="plusminus" unicode="&#xb1;" horiz-adv-x="442" 
d="M173 328h-123v93h123v144h92v-144h128v-93h-128v-160h-92v160zM44 19v93h352v-93h-352z" />
    <glyph glyph-name="uni00B2" unicode="&#xb2;" horiz-adv-x="215" 
d="M20 493v32q0 33 18 52.5t39.5 33.5t39.5 28t18 36q0 34 -28 34q-9 0 -15 -4t-9 -10t-4.5 -12t-1.5 -9l-58 12q0 11 4.5 25.5t15 27t27 21.5t40.5 9q40 0 64 -25t24 -68q0 -29 -14.5 -49t-31.5 -34t-31.5 -24t-15.5 -18v-2h91v-56h-172z" />
    <glyph glyph-name="uni00B3" unicode="&#xb3;" horiz-adv-x="220" 
d="M80 604v46h27q8 0 15.5 8t7.5 25q0 10 -6.5 18t-20.5 8q-17 0 -23.5 -9t-6.5 -16l-53 22q4 17 15 31q9 12 26.5 22t46.5 10q23 0 39.5 -7t27 -18t15.5 -25t5 -29q0 -29 -14 -42t-20 -14q3 -2 10 -5.5t14 -11t12 -19.5t5 -30q0 -36 -26 -56.5t-69 -20.5q-31 0 -49 8.5
t-28 19.5q-11 12 -15 28l40 34q3 -10 9 -18q5 -7 15 -12t25 -5q14 0 23 7.5t9 22.5t-9 21.5t-20 6.5h-27z" />
    <glyph glyph-name="acute" unicode="&#xb4;" horiz-adv-x="265" 
d="M21 557l70 193h152l-111 -193h-111z" />
    <glyph glyph-name="paragraph" unicode="&#xb6;" horiz-adv-x="568" 
d="M429 0v638h-77v-638h-74v241h-61q-48 0 -83.5 16.5t-59.5 46.5t-36 72t-12 93t12 93t36 73t59.5 48t83.5 17h287v-700h-75z" />
    <glyph glyph-name="periodcentered" unicode="&#xb7;" horiz-adv-x="228" 
d="M40 355q0 32 21 55t53 23q31 0 52.5 -23t21.5 -55t-21.5 -54.5t-52.5 -22.5q-32 0 -53 22.5t-21 54.5z" />
    <glyph glyph-name="cedilla" unicode="&#xb8;" horiz-adv-x="248" 
d="M157 -29q9 0 18.5 -4.5t18 -13.5t14 -23t5.5 -32q0 -22 -8 -38t-20.5 -26.5t-29 -15.5t-33.5 -5q-21 0 -36.5 6t-26.5 14q-12 9 -22 20l28 49q6 -8 15 -14q8 -5 17.5 -9.5t22.5 -4.5q31 0 31 27q0 12 -14 22.5t-54 10.5l27 72h61z" />
    <glyph glyph-name="uni00B9" unicode="&#xb9;" horiz-adv-x="191" 
d="M95 493v178q-7 -14 -25 -29t-50 -15l-10 66q17 0 32 7t26.5 17.5t18.5 23.5t8 25h64v-273h-64z" />
    <glyph glyph-name="ordmasculine" unicode="&#xba;" horiz-adv-x="293" 
d="M146 428q-54 0 -83 37.5t-29 100.5q0 61 29 98t83 37t83.5 -37t29.5 -98q0 -63 -29 -100.5t-84 -37.5zM146 495q21 0 30.5 19t9.5 51q0 31 -10 51t-30 20t-30 -20t-10 -51q0 -32 10 -51t30 -19z" />
    <glyph glyph-name="guillemotright" unicode="&#xbb;" horiz-adv-x="490" 
d="M308 72l-63 73l108 119l-108 120l63 72l142 -139v-105zM98 72l-63 73l108 119l-108 120l63 72l142 -139v-105z" />
    <glyph glyph-name="onequarter" unicode="&#xbc;" horiz-adv-x="535" 
d="M118 427v176q-8 -14 -27.5 -29.5t-57.5 -15.5l-11 70q20 0 37 6.5t29.5 17t20.5 23.5t9 25h72v-273h-72zM133 0l181 700h86l-181 -700h-86zM409 0v54h-110v50l66 169h74l-61 -156h39v55h64v-55h31v-63h-31v-54h-72z" />
    <glyph glyph-name="onehalf" unicode="&#xbd;" horiz-adv-x="531" 
d="M118 427v176q-8 -14 -27.5 -29.5t-57.5 -15.5l-11 70q20 0 37 6.5t29.5 17t20.5 23.5t9 25h72v-273h-72zM133 0l181 700h86l-181 -700h-86zM318 0v30q0 33 17.5 53t39 35t39 28.5t17.5 32.5q0 29 -24 29q-14 0 -19.5 -12t-5.5 -20l-64 12q0 12 5 27.5t15.5 29t27.5 22.5
t42 9q43 0 68 -25t25 -68q0 -28 -13 -47.5t-29 -33.5t-29 -24t-14 -18v-1h85v-59h-183z" />
    <glyph glyph-name="threequarters" unicode="&#xbe;" horiz-adv-x="537" 
d="M138 0l180 700h85l-179 -700h-86zM94 535v52h30q7 0 12 6.5t5 20.5q0 10 -5.5 18t-18.5 8q-8 0 -13.5 -3.5t-8.5 -7.5q-4 -5 -5 -11l-59 22q5 17 16 31q10 12 28 22t47 10q23 0 40 -7t28 -18.5t16.5 -25.5t5.5 -29q0 -14 -4 -24t-9 -17t-10 -10t-8 -4q3 -2 9 -5.5
t12.5 -11t11 -19.5t4.5 -30q0 -36 -26.5 -56.5t-70.5 -20.5q-32 0 -50.5 8.5t-28.5 19.5q-11 12 -16 28l45 34q4 -10 10 -17q5 -6 14 -11t22 -5q30 0 30 26q0 27 -23 27h-30zM412 0v54h-111v50l67 169h74l-62 -156h40v55h64v-55h30v-63h-30v-54h-72z" />
    <glyph glyph-name="questiondown" unicode="&#xbf;" horiz-adv-x="439" 
d="M418 -46q0 -48 -15 -86.5t-41.5 -66.5t-62.5 -43t-79 -15q-52 0 -89 17.5t-61 47t-35 67t-11 78.5q0 46 11.5 78.5t29 57.5t38 46.5t38 45.5t29 54.5t11.5 74.5h119q0 -58 -10.5 -97.5t-26 -67t-34 -47t-34 -39t-26 -42t-10.5 -56.5q0 -37 17 -62.5t48 -25.5
q33 0 51 27.5t18 70.5zM245 392q-29 0 -49 21.5t-20 52.5q0 30 20 51.5t49 21.5t49.5 -21.5t20.5 -51.5q0 -31 -20.5 -52.5t-49.5 -21.5z" />
    <glyph glyph-name="Agrave" unicode="&#xc0;" horiz-adv-x="583" 
d="M391 175h-199l-47 -175h-142l219 700h139l218 -700h-141zM227 280h130l-66 254zM243 775l-112 193h153l69 -193h-110z" />
    <glyph glyph-name="Aacute" unicode="&#xc1;" horiz-adv-x="583" 
d="M391 175h-199l-47 -175h-142l219 700h139l218 -700h-141zM227 280h130l-66 254zM242 775l70 193h152l-111 -193h-111z" />
    <glyph glyph-name="Acircumflex" unicode="&#xc2;" horiz-adv-x="583" 
d="M391 175h-199l-47 -175h-142l219 700h139l218 -700h-141zM227 280h130l-66 254zM146 756l77 193h137l77 -193h-110l-36 98l-35 -98h-110z" />
    <glyph glyph-name="Atilde" unicode="&#xc3;" horiz-adv-x="583" 
d="M391 175h-199l-47 -175h-142l219 700h139l218 -700h-141zM227 280h130l-66 254zM145 764q-4 6 -7 15q-7 17 -7 44q0 38 21.5 66t66.5 28q22 0 42 -6.5t37.5 -14t33 -13.5t29.5 -6q10 0 14 6.5t4 16.5q0 8 -2.5 16t-4.5 14l-6 14h85q3 -8 6 -18q2 -8 4 -18.5t2 -22.5
q0 -38 -21 -67t-64 -29q-26 0 -46.5 6.5t-37.5 14t-30.5 14t-25.5 6.5q-10 0 -16 -7.5t-6 -19.5q0 -9 2 -16.5t4 -12.5q3 -6 7 -10h-84z" />
    <glyph glyph-name="Adieresis" unicode="&#xc4;" horiz-adv-x="583" 
d="M391 175h-199l-47 -175h-142l219 700h139l218 -700h-141zM227 280h130l-66 254zM204 789q-26 0 -45 19t-19 48q0 27 19 47t45 20t44.5 -20t18.5 -47q0 -29 -18.5 -48t-44.5 -19zM386 789q-26 0 -45 19t-19 48q0 27 19 47t45 20t44.5 -20t18.5 -47q0 -29 -18.5 -48
t-44.5 -19z" />
    <glyph glyph-name="Aring" unicode="&#xc5;" horiz-adv-x="583" 
d="M391 175h-199l-47 -175h-142l219 700h139l218 -700h-141zM227 280h130l-66 254zM292 768q-20 0 -36.5 7.5t-28.5 21t-19 31.5t-7 39q0 43 26 71.5t65 28.5q19 0 35.5 -7.5t29 -21t19.5 -32t7 -39.5t-7 -39t-19.5 -31.5t-29 -21t-35.5 -7.5zM325 867q0 17 -9.5 28
t-23.5 11t-23.5 -11t-9.5 -28t9.5 -27.5t23.5 -10.5t23.5 10.5t9.5 27.5z" />
    <glyph glyph-name="AE" unicode="&#xc6;" horiz-adv-x="747" 
d="M390 175h-198l-47 -175h-142l219 700h492v-112h-314l54 -191h199v-110h-160l46 -175h175v-112h-276zM227 280h129l-65 254z" />
    <glyph glyph-name="Ccedilla" unicode="&#xc7;" horiz-adv-x="563" 
d="M539 125q-19 -35 -49 -63q-26 -24 -65.5 -44.5t-94.5 -22.5l-8 -24q9 0 18.5 -4.5t18 -13.5t14 -23t5.5 -32q0 -22 -7.5 -38t-20 -26.5t-29 -15.5t-33.5 -5q-21 0 -37 6t-27 14q-13 9 -22 20l28 49q6 -8 15 -14q7 -5 17 -9.5t23 -4.5q31 0 31 27q0 12 -13.5 22.5
t-53.5 10.5l22 63q-54 7 -98 32.5t-75.5 69.5t-48.5 106.5t-17 143.5q0 177 71.5 267t198.5 90q54 0 93 -15.5t65.5 -39.5t42 -53t23.5 -56t10.5 -49t2.5 -31l-126 -21q-2 40 -14 72q-11 27 -32.5 49.5t-62.5 22.5q-59 0 -95.5 -57t-36.5 -179q0 -62 13 -106.5t34 -73
t48.5 -41.5t56.5 -13q31 0 56.5 14.5t43.5 32.5q21 21 37 48z" />
    <glyph glyph-name="Egrave" unicode="&#xc8;" horiz-adv-x="477" 
d="M60 0v700h385v-112h-250v-186h191v-110h-191v-180h250v-112h-385zM216 775l-112 193h153l69 -193h-110z" />
    <glyph glyph-name="Eacute" unicode="&#xc9;" horiz-adv-x="477" 
d="M192 775l70 193h152l-111 -193h-111zM60 0v700h385v-112h-250v-186h191v-110h-191v-180h250v-112h-385z" />
    <glyph glyph-name="Ecircumflex" unicode="&#xca;" horiz-adv-x="477" 
d="M117 756l77 193h137l77 -193h-110l-36 98l-35 -98h-110zM60 0v700h385v-112h-250v-186h191v-110h-191v-180h250v-112h-385z" />
    <glyph glyph-name="Edieresis" unicode="&#xcb;" horiz-adv-x="477" 
d="M168 789q-26 0 -45 19t-19 48q0 27 19 47t45 20t44.5 -20t18.5 -47q0 -29 -18.5 -48t-44.5 -19zM350 789q-26 0 -45 19t-19 48q0 27 19 47t45 20t44.5 -20t18.5 -47q0 -29 -18.5 -48t-44.5 -19zM60 0v700h385v-112h-250v-186h191v-110h-191v-180h250v-112h-385z" />
    <glyph glyph-name="Igrave" unicode="&#xcc;" horiz-adv-x="254" 
d="M60 0v700h135v-700h-135zM82 775l-112 193h153l69 -193h-110z" />
    <glyph glyph-name="Iacute" unicode="&#xcd;" horiz-adv-x="254" 
d="M60 0v700h135v-700h-135zM64 775l70 193h152l-111 -193h-111z" />
    <glyph glyph-name="Icircumflex" unicode="&#xce;" horiz-adv-x="254" 
d="M60 0v700h135v-700h-135zM-22 756l77 193h137l77 -193h-110l-36 98l-35 -98h-110z" />
    <glyph glyph-name="Idieresis" unicode="&#xcf;" horiz-adv-x="254" 
d="M60 0v700h135v-700h-135zM35 754q-26 0 -45 19t-19 48q0 27 19 47t45 20t44.5 -20t18.5 -47q0 -29 -18.5 -48t-44.5 -19zM217 754q-26 0 -45 19t-19 48q0 27 19 47t45 20t44.5 -20t18.5 -47q0 -29 -18.5 -48t-44.5 -19z" />
    <glyph glyph-name="Eth" unicode="&#xd0;" horiz-adv-x="574" 
d="M60 0v700h181q59 0 113.5 -19.5t96 -63t66.5 -112t25 -167.5q0 -93 -23 -157.5t-61.5 -104.5t-88 -58t-103.5 -18h-206zM265 112q63 0 103 57.5t40 170.5q0 58 -9 104t-29 78t-52 49t-78 17h-45v-196h138v-87h-138v-193h70z" />
    <glyph glyph-name="Ntilde" unicode="&#xd1;" horiz-adv-x="593" 
d="M395 0l-200 440v-440h-135v700h138l200 -457v457h136v-700h-139zM154 764q-4 6 -7 15q-7 17 -7 44q0 38 21.5 66t66.5 28q22 0 42 -6.5t37.5 -14t33 -13.5t29.5 -6q10 0 14 6.5t4 16.5q0 8 -2.5 16t-4.5 14l-6 14h85q3 -8 6 -18q2 -8 4 -18.5t2 -22.5q0 -38 -21 -67
t-64 -29q-26 0 -46.5 6.5t-37.5 14t-30.5 14t-25.5 6.5q-10 0 -16 -7.5t-6 -19.5q0 -9 2 -16.5t4 -12.5q3 -6 7 -10h-84z" />
    <glyph glyph-name="Ograve" unicode="&#xd2;" horiz-adv-x="608" 
d="M304 -6q-57 0 -106.5 21.5t-86 65.5t-58 110.5t-21.5 157.5t21 158t58 111t86.5 66t106.5 22t106.5 -22t86.5 -66t58 -111t21 -158t-21.5 -157.5t-58 -110.5t-86 -65.5t-106.5 -21.5zM304 113q27 0 51 12.5t42 40.5t28 73t10 110q0 66 -10.5 111t-28 72.5t-41.5 40
t-51 12.5t-51 -12.5t-41.5 -40t-28 -72.5t-10.5 -111q0 -65 10.5 -110t28 -73t41.5 -40.5t51 -12.5zM267 775l-112 193h153l69 -193h-110z" />
    <glyph glyph-name="Oacute" unicode="&#xd3;" horiz-adv-x="608" 
d="M230 775l70 193h152l-111 -193h-111zM304 -6q-57 0 -106.5 21.5t-86 65.5t-58 110.5t-21.5 157.5t21 158t58 111t86.5 66t106.5 22t106.5 -22t86.5 -66t58 -111t21 -158t-21.5 -157.5t-58 -110.5t-86 -65.5t-106.5 -21.5zM304 113q27 0 51 12.5t42 40.5t28 73t10 110
q0 66 -10.5 111t-28 72.5t-41.5 40t-51 12.5t-51 -12.5t-41.5 -40t-28 -72.5t-10.5 -111q0 -65 10.5 -110t28 -73t41.5 -40.5t51 -12.5z" />
    <glyph glyph-name="Ocircumflex" unicode="&#xd4;" horiz-adv-x="608" 
d="M161 756l77 193h137l77 -193h-110l-36 98l-35 -98h-110zM304 -6q-57 0 -106.5 21.5t-86 65.5t-58 110.5t-21.5 157.5t21 158t58 111t86.5 66t106.5 22t106.5 -22t86.5 -66t58 -111t21 -158t-21.5 -157.5t-58 -110.5t-86 -65.5t-106.5 -21.5zM304 113q27 0 51 12.5
t42 40.5t28 73t10 110q0 66 -10.5 111t-28 72.5t-41.5 40t-51 12.5t-51 -12.5t-41.5 -40t-28 -72.5t-10.5 -111q0 -65 10.5 -110t28 -73t41.5 -40.5t51 -12.5z" />
    <glyph glyph-name="Otilde" unicode="&#xd5;" horiz-adv-x="608" 
d="M304 -6q-57 0 -106.5 21.5t-86 65.5t-58 110.5t-21.5 157.5t21 158t58 111t86.5 66t106.5 22t106.5 -22t86.5 -66t58 -111t21 -158t-21.5 -157.5t-58 -110.5t-86 -65.5t-106.5 -21.5zM304 113q27 0 51 12.5t42 40.5t28 73t10 110q0 66 -10.5 111t-28 72.5t-41.5 40
t-51 12.5t-51 -12.5t-41.5 -40t-28 -72.5t-10.5 -111q0 -65 10.5 -110t28 -73t41.5 -40.5t51 -12.5zM153 764q-4 6 -7 15q-7 17 -7 44q0 38 21.5 66t66.5 28q22 0 42 -6.5t37.5 -14t33 -13.5t29.5 -6q10 0 14 6.5t4 16.5q0 8 -2.5 16t-4.5 14l-6 14h85q3 -8 6 -18
q2 -8 4 -18.5t2 -22.5q0 -38 -21 -67t-64 -29q-26 0 -46.5 6.5t-37.5 14t-30.5 14t-25.5 6.5q-10 0 -16 -7.5t-6 -19.5q0 -9 2 -16.5t4 -12.5q3 -6 7 -10h-84z" />
    <glyph glyph-name="Odieresis" unicode="&#xd6;" horiz-adv-x="608" 
d="M216 789q-26 0 -45 19t-19 48q0 27 19 47t45 20t44.5 -20t18.5 -47q0 -29 -18.5 -48t-44.5 -19zM398 789q-26 0 -45 19t-19 48q0 27 19 47t45 20t44.5 -20t18.5 -47q0 -29 -18.5 -48t-44.5 -19zM304 -6q-57 0 -106.5 21.5t-86 65.5t-58 110.5t-21.5 157.5t21 158t58 111
t86.5 66t106.5 22t106.5 -22t86.5 -66t58 -111t21 -158t-21.5 -157.5t-58 -110.5t-86 -65.5t-106.5 -21.5zM304 113q27 0 51 12.5t42 40.5t28 73t10 110q0 66 -10.5 111t-28 72.5t-41.5 40t-51 12.5t-51 -12.5t-41.5 -40t-28 -72.5t-10.5 -111q0 -65 10.5 -110t28 -73
t41.5 -40.5t51 -12.5z" />
    <glyph glyph-name="multiply" unicode="&#xd7;" horiz-adv-x="436" 
d="M282 272l117 -134l-65 -66l-117 134l-116 -134l-65 66l117 134l-117 134l65 66l116 -133l117 133l65 -66z" />
    <glyph glyph-name="Oslash" unicode="&#xd8;" horiz-adv-x="607" 
d="M36 -16q19 31 33 56l22 38.5t8 17.5q-32 44 -49.5 106.5t-17.5 146.5q0 91 21 158t58 111t86.5 66t106.5 22q64 0 117 -31q0 2 3 8l7 14q4 9 11 19h127l-63 -110q32 -45 51 -108.5t19 -148.5q0 -91 -21.5 -157.5t-58 -110.5t-86 -65.5t-106.5 -21.5q-67 0 -120 31
l-21 -41h-127zM304 113q27 0 51 12.5t41.5 40.5t28 73t10.5 110q0 39 -3.5 69.5t-9.5 55.5l-176 -340q25 -21 58 -21zM172 349q0 -38 3.5 -68.5t8.5 -55.5l176 339q-26 21 -56 21q-27 0 -51 -12.5t-42 -40t-28.5 -72.5t-10.5 -111z" />
    <glyph glyph-name="Ugrave" unicode="&#xd9;" 
d="M388 700h136v-411q0 -84 -18.5 -140.5t-50.5 -91t-74.5 -49t-90.5 -14.5t-91 14.5t-75.5 49t-51 91t-18.5 140.5v411h136v-421q0 -37 5 -67t16.5 -51.5t30.5 -33t48 -11.5q56 0 77 44.5t21 118.5v421zM233 775l-112 193h153l69 -193h-110z" />
    <glyph glyph-name="Uacute" unicode="&#xda;" 
d="M216 775l70 193h152l-111 -193h-111zM388 700h136v-411q0 -84 -18.5 -140.5t-50.5 -91t-74.5 -49t-90.5 -14.5t-91 14.5t-75.5 49t-51 91t-18.5 140.5v411h136v-421q0 -37 5 -67t16.5 -51.5t30.5 -33t48 -11.5q56 0 77 44.5t21 118.5v421z" />
    <glyph glyph-name="Ucircumflex" unicode="&#xdb;" 
d="M137 756l77 193h137l77 -193h-110l-36 98l-35 -98h-110zM388 700h136v-411q0 -84 -18.5 -140.5t-50.5 -91t-74.5 -49t-90.5 -14.5t-91 14.5t-75.5 49t-51 91t-18.5 140.5v411h136v-421q0 -37 5 -67t16.5 -51.5t30.5 -33t48 -11.5q56 0 77 44.5t21 118.5v421z" />
    <glyph glyph-name="Udieresis" unicode="&#xdc;" 
d="M195 789q-26 0 -45 19t-19 48q0 27 19 47t45 20t44.5 -20t18.5 -47q0 -29 -18.5 -48t-44.5 -19zM377 789q-26 0 -45 19t-19 48q0 27 19 47t45 20t44.5 -20t18.5 -47q0 -29 -18.5 -48t-44.5 -19zM388 700h136v-411q0 -84 -18.5 -140.5t-50.5 -91t-74.5 -49t-90.5 -14.5
t-91 14.5t-75.5 49t-51 91t-18.5 140.5v411h136v-421q0 -37 5 -67t16.5 -51.5t30.5 -33t48 -11.5q56 0 77 44.5t21 118.5v421z" />
    <glyph glyph-name="Yacute" unicode="&#xdd;" horiz-adv-x="580" 
d="M220 0v293l-219 407h158l131 -290l131 290h158l-219 -407v-293h-140zM223 775l70 193h152l-111 -193h-111z" />
    <glyph glyph-name="Thorn" unicode="&#xde;" horiz-adv-x="535" 
d="M60 0v700h135v-103h77q112 0 177 -59t65 -181q0 -60 -18 -103.5t-48.5 -72t-71 -42t-85.5 -13.5h-96v-126h-135zM266 236q54 0 82.5 30.5t28.5 90.5q0 57 -28 92.5t-87 35.5h-67v-249h71z" />
    <glyph glyph-name="germandbls" unicode="&#xdf;" horiz-adv-x="499" 
d="M230 112q8 -4 17 -7q8 -2 16.5 -4t16.5 -2q62 0 62 77q0 28 -8 46t-20.5 30.5t-26.5 21.5t-26.5 19.5t-20.5 24t-8 35.5q0 26 13.5 43.5t30 35t30 40t13.5 58.5q0 45 -17 74t-50 29q-35 0 -52.5 -32.5t-17.5 -82.5v-518h-134v541q0 39 10.5 76.5t34.5 67t62.5 47.5
t93.5 18q43 0 79 -14.5t62 -40t41 -59.5t15 -73q0 -47 -14 -76t-31 -50t-31 -37.5t-14 -37.5q0 -14 9 -24t22.5 -20.5t29.5 -23.5t29.5 -33t22.5 -49t9 -71q0 -39 -13.5 -67.5t-37 -48t-55 -29t-66.5 -9.5q-25 0 -43 2.5t-30 6.5q-14 4 -23 10z" />
    <glyph glyph-name="agrave" unicode="&#xe0;" horiz-adv-x="453" 
d="M432 3q-6 -2 -14 -4q-7 -2 -17 -3t-24 -1q-30 0 -48 10t-27 22.5t-12 24.5t-3 17v1q-6 -12 -15.5 -25t-24.5 -24.5t-36.5 -19t-51.5 -7.5q-64 0 -99.5 36t-35.5 93q0 64 38 99t126 35h83v58q0 39 -13.5 56.5t-39.5 17.5q-25 0 -38 -16t-13 -44q0 -9 0.5 -15t1.5 -10t3 -8
h-114q-3 5 -5 13q-2 7 -3 17t-1 24q0 61 43.5 99.5t129.5 38.5q94 0 135.5 -46.5t41.5 -131.5v-166q0 -21 7 -32.5t26 -11.5v-97zM271 188h-62q-29 0 -42.5 -12.5t-13.5 -35.5t13.5 -35t33.5 -12q21 0 35 12t22 26q10 17 14 38v19zM180 557l-112 193h153l69 -193h-110z" />
    <glyph glyph-name="aacute" unicode="&#xe1;" horiz-adv-x="453" 
d="M432 3q-6 -2 -14 -4q-7 -2 -17 -3t-24 -1q-30 0 -48 10t-27 22.5t-12 24.5t-3 17v1q-6 -12 -15.5 -25t-24.5 -24.5t-36.5 -19t-51.5 -7.5q-64 0 -99.5 36t-35.5 93q0 64 38 99t126 35h83v58q0 39 -13.5 56.5t-39.5 17.5q-25 0 -38 -16t-13 -44q0 -9 0.5 -15t1.5 -10t3 -8
h-114q-3 5 -5 13q-2 7 -3 17t-1 24q0 61 43.5 99.5t129.5 38.5q94 0 135.5 -46.5t41.5 -131.5v-166q0 -21 7 -32.5t26 -11.5v-97zM271 188h-62q-29 0 -42.5 -12.5t-13.5 -35.5t13.5 -35t33.5 -12q21 0 35 12t22 26q10 17 14 38v19zM151 557l70 193h152l-111 -193h-111z" />
    <glyph glyph-name="acircumflex" unicode="&#xe2;" horiz-adv-x="453" 
d="M432 3q-6 -2 -14 -4q-7 -2 -17 -3t-24 -1q-30 0 -48 10t-27 22.5t-12 24.5t-3 17v1q-6 -12 -15.5 -25t-24.5 -24.5t-36.5 -19t-51.5 -7.5q-64 0 -99.5 36t-35.5 93q0 64 38 99t126 35h83v58q0 39 -13.5 56.5t-39.5 17.5q-25 0 -38 -16t-13 -44q0 -9 0.5 -15t1.5 -10t3 -8
h-114q-3 5 -5 13q-2 7 -3 17t-1 24q0 61 43.5 99.5t129.5 38.5q94 0 135.5 -46.5t41.5 -131.5v-166q0 -21 7 -32.5t26 -11.5v-97zM271 188h-62q-29 0 -42.5 -12.5t-13.5 -35.5t13.5 -35t33.5 -12q21 0 35 12t22 26q10 17 14 38v19zM79 538l77 193h137l77 -193h-110l-36 98
l-35 -98h-110z" />
    <glyph glyph-name="atilde" unicode="&#xe3;" horiz-adv-x="453" 
d="M432 3q-6 -2 -14 -4q-7 -2 -17 -3t-24 -1q-30 0 -48 10t-27 22.5t-12 24.5t-3 17v1q-6 -12 -15.5 -25t-24.5 -24.5t-36.5 -19t-51.5 -7.5q-64 0 -99.5 36t-35.5 93q0 64 38 99t126 35h83v58q0 39 -13.5 56.5t-39.5 17.5q-25 0 -38 -16t-13 -44q0 -9 0.5 -15t1.5 -10t3 -8
h-114q-3 5 -5 13q-2 7 -3 17t-1 24q0 61 43.5 99.5t129.5 38.5q94 0 135.5 -46.5t41.5 -131.5v-166q0 -21 7 -32.5t26 -11.5v-97zM271 188h-62q-29 0 -42.5 -12.5t-13.5 -35.5t13.5 -35t33.5 -12q21 0 35 12t22 26q10 17 14 38v19zM62 546q-4 6 -7 15q-7 17 -7 44
q0 38 21.5 66t66.5 28q22 0 42 -6.5t37.5 -14t33 -13.5t29.5 -6q10 0 14 6.5t4 16.5q0 8 -2.5 16t-4.5 14l-6 14h85q3 -8 6 -18q2 -8 4 -18.5t2 -22.5q0 -38 -21 -67t-64 -29q-26 0 -46.5 6.5t-37.5 14t-30.5 14t-25.5 6.5q-10 0 -16 -7.5t-6 -19.5q0 -9 2 -16.5t4 -12.5
q3 -6 7 -10h-84z" />
    <glyph glyph-name="adieresis" unicode="&#xe4;" horiz-adv-x="453" 
d="M432 3q-6 -2 -14 -4q-7 -2 -17 -3t-24 -1q-30 0 -48 10t-27 22.5t-12 24.5t-3 17v1q-6 -12 -15.5 -25t-24.5 -24.5t-36.5 -19t-51.5 -7.5q-64 0 -99.5 36t-35.5 93q0 64 38 99t126 35h83v58q0 39 -13.5 56.5t-39.5 17.5q-25 0 -38 -16t-13 -44q0 -9 0.5 -15t1.5 -10t3 -8
h-114q-3 5 -5 13q-2 7 -3 17t-1 24q0 61 43.5 99.5t129.5 38.5q94 0 135.5 -46.5t41.5 -131.5v-166q0 -21 7 -32.5t26 -11.5v-97zM271 188h-62q-29 0 -42.5 -12.5t-13.5 -35.5t13.5 -35t33.5 -12q21 0 35 12t22 26q10 17 14 38v19zM132 571q-26 0 -45 19t-19 48q0 27 19 47
t45 20t44.5 -20t18.5 -47q0 -29 -18.5 -48t-44.5 -19zM314 571q-26 0 -45 19t-19 48q0 27 19 47t45 20t44.5 -20t18.5 -47q0 -29 -18.5 -48t-44.5 -19z" />
    <glyph glyph-name="aring" unicode="&#xe5;" horiz-adv-x="453" 
d="M432 3q-6 -2 -14 -4q-7 -2 -17 -3t-24 -1q-30 0 -48 10t-27 22.5t-12 24.5t-3 17v1q-6 -12 -15.5 -25t-24.5 -24.5t-36.5 -19t-51.5 -7.5q-64 0 -99.5 36t-35.5 93q0 64 38 99t126 35h83v58q0 39 -13.5 56.5t-39.5 17.5q-25 0 -38 -16t-13 -44q0 -9 0.5 -15t1.5 -10t3 -8
h-114q-3 5 -5 13q-2 7 -3 17t-1 24q0 61 43.5 99.5t129.5 38.5q94 0 135.5 -46.5t41.5 -131.5v-166q0 -21 7 -32.5t26 -11.5v-97zM271 188h-62q-29 0 -42.5 -12.5t-13.5 -35.5t13.5 -35t33.5 -12q21 0 35 12t22 26q10 17 14 38v19zM225 550q-20 0 -36.5 7.5t-28.5 21
t-19 31.5t-7 39q0 43 26 71.5t65 28.5q19 0 35.5 -7.5t29 -21t19.5 -32t7 -39.5t-7 -39t-19.5 -31.5t-29 -21t-35.5 -7.5zM258 649q0 17 -9.5 28t-23.5 11t-23.5 -11t-9.5 -28t9.5 -27.5t23.5 -10.5t23.5 10.5t9.5 27.5z" />
    <glyph glyph-name="ae" unicode="&#xe6;" horiz-adv-x="683" 
d="M401 224v-5q3 -33 11.5 -55.5t21 -36.5t28 -20t31.5 -6q24 0 42.5 9.5t30.5 21.5q14 13 24 31l65 -69q-15 -28 -40 -50q-22 -19 -56 -34.5t-85 -15.5t-97 26.5t-74 78.5q-2 -6 -9 -23t-23.5 -35t-43.5 -32.5t-68 -14.5q-64 0 -99.5 36t-35.5 93q0 64 38 99t126 35h83v58
q0 39 -13.5 56.5t-39.5 17.5q-25 0 -38 -16t-13 -44q0 -9 0.5 -15t1.5 -10t3 -8h-114q-3 5 -5 13q-2 7 -3 17t-1 24q0 61 43.5 99.5t129.5 38.5q82 0 128 -49q25 23 57 36t67 13q47 0 80 -16.5t54 -46t31 -71t10 -90.5v-40h-248zM528 297q0 37 -13 62.5t-47 25.5
q-28 0 -45 -21.5t-20 -66.5h125zM271 188h-62q-29 0 -42.5 -12.5t-13.5 -35.5t13.5 -35t33.5 -12q21 0 35 12t22 26q10 17 14 38v19z" />
    <glyph glyph-name="ccedilla" unicode="&#xe7;" horiz-adv-x="435" 
d="M412 94q-13 -25 -34 -45q-18 -17 -46 -32.5t-69 -20.5l-9 -25q9 0 18.5 -4.5t17.5 -13.5t13.5 -23t5.5 -32q0 -22 -7.5 -38t-20 -26.5t-28.5 -15.5t-33 -5q-21 0 -37 6t-27 14q-13 9 -22 20l28 49q6 -8 15 -14q8 -5 17.5 -9.5t23.5 -4.5q30 0 30 27q0 12 -13.5 22.5
t-53.5 10.5l22 62q-78 10 -126 71.5t-48 172.5q0 115 49.5 181.5t154.5 66.5q42 0 74 -13t53.5 -35t32 -50.5t10.5 -59.5q0 -14 -1 -24.5t-3 -18.5q-2 -9 -4 -15h-111q1 5 3 10l2 10t1 12q0 11 -2 23.5t-8.5 23t-17.5 17t-29 6.5q-39 0 -58 -31.5t-19 -100.5q0 -39 8 -65
t21.5 -41t30.5 -21.5t34 -6.5q25 0 43 8.5t30 19.5q14 12 23 28z" />
    <glyph glyph-name="egrave" unicode="&#xe8;" horiz-adv-x="439" 
d="M158 224v-5q3 -34 12 -56.5t22 -36t28 -19.5t30 -6q25 0 43.5 9.5t30.5 21.5q14 13 24 31l64 -69q-15 -28 -40 -50q-21 -19 -55.5 -34.5t-84.5 -15.5q-45 0 -82.5 16t-64 47t-41.5 77t-15 106q0 115 49 181.5t153 66.5q47 0 80 -16.5t54 -46t31 -71t10 -90.5v-40h-248z
M284 297q0 40 -13.5 64t-46.5 24q-26 0 -43.5 -21t-20.5 -67h124zM184 557l-112 193h153l69 -193h-110z" />
    <glyph glyph-name="eacute" unicode="&#xe9;" horiz-adv-x="439" 
d="M157 557l70 193h152l-111 -193h-111zM158 224v-5q3 -34 12 -56.5t22 -36t28 -19.5t30 -6q25 0 43.5 9.5t30.5 21.5q14 13 24 31l64 -69q-15 -28 -40 -50q-21 -19 -55.5 -34.5t-84.5 -15.5q-45 0 -82.5 16t-64 47t-41.5 77t-15 106q0 115 49 181.5t153 66.5q47 0 80 -16.5
t54 -46t31 -71t10 -90.5v-40h-248zM284 297q0 40 -13.5 64t-46.5 24q-26 0 -43.5 -21t-20.5 -67h124z" />
    <glyph glyph-name="ecircumflex" unicode="&#xea;" horiz-adv-x="439" 
d="M79 538l77 193h137l77 -193h-110l-36 98l-35 -98h-110zM158 224v-5q3 -34 12 -56.5t22 -36t28 -19.5t30 -6q25 0 43.5 9.5t30.5 21.5q14 13 24 31l64 -69q-15 -28 -40 -50q-21 -19 -55.5 -34.5t-84.5 -15.5q-45 0 -82.5 16t-64 47t-41.5 77t-15 106q0 115 49 181.5
t153 66.5q47 0 80 -16.5t54 -46t31 -71t10 -90.5v-40h-248zM284 297q0 40 -13.5 64t-46.5 24q-26 0 -43.5 -21t-20.5 -67h124z" />
    <glyph glyph-name="edieresis" unicode="&#xeb;" horiz-adv-x="439" 
d="M142 571q-26 0 -45 19t-19 48q0 27 19 47t45 20t44.5 -20t18.5 -47q0 -29 -18.5 -48t-44.5 -19zM324 571q-26 0 -45 19t-19 48q0 27 19 47t45 20t44.5 -20t18.5 -47q0 -29 -18.5 -48t-44.5 -19zM158 224v-5q3 -34 12 -56.5t22 -36t28 -19.5t30 -6q25 0 43.5 9.5
t30.5 21.5q14 13 24 31l64 -69q-15 -28 -40 -50q-21 -19 -55.5 -34.5t-84.5 -15.5q-45 0 -82.5 16t-64 47t-41.5 77t-15 106q0 115 49 181.5t153 66.5q47 0 80 -16.5t54 -46t31 -71t10 -90.5v-40h-248zM284 297q0 40 -13.5 64t-46.5 24q-26 0 -43.5 -21t-20.5 -67h124z" />
    <glyph glyph-name="igrave" unicode="&#xec;" horiz-adv-x="241" 
d="M213 3q-7 -2 -15 -4q-14 -3 -38 -3q-60 0 -87 30.5t-27 98.5v357h128v-331q0 -28 7 -39.5t32 -11.5v-97zM54 557l-112 193h153l69 -193h-110z" />
    <glyph glyph-name="iacute" unicode="&#xed;" horiz-adv-x="241" 
d="M213 3q-7 -2 -15 -4q-14 -3 -38 -3q-60 0 -87 30.5t-27 98.5v357h128v-331q0 -28 7 -39.5t32 -11.5v-97zM44 557l70 193h152l-111 -193h-111z" />
    <glyph glyph-name="icircumflex" unicode="&#xee;" horiz-adv-x="241" 
d="M213 3q-7 -2 -15 -4q-14 -3 -38 -3q-60 0 -87 30.5t-27 98.5v357h128v-331q0 -28 7 -39.5t32 -11.5v-97zM-35 538l77 193h137l77 -193h-110l-36 98l-35 -98h-110z" />
    <glyph glyph-name="idieresis" unicode="&#xef;" horiz-adv-x="241" 
d="M213 3q-7 -2 -15 -4q-14 -3 -38 -3q-60 0 -87 30.5t-27 98.5v357h128v-331q0 -28 7 -39.5t32 -11.5v-97zM26 571q-26 0 -45 19t-19 48q0 27 19 47t45 20t44.5 -20t18.5 -47q0 -29 -18.5 -48t-44.5 -19zM208 571q-26 0 -45 19t-19 48q0 27 19 47t45 20t44.5 -20t18.5 -47
q0 -29 -18.5 -48t-44.5 -19z" />
    <glyph glyph-name="eth" unicode="&#xf0;" horiz-adv-x="530" 
d="M482 666l-61 -43q78 -101 78 -283q0 -72 -15.5 -135.5t-46 -110t-77 -73.5t-108.5 -27q-59 0 -101 18t-69 49.5t-40 73.5t-13 91q0 51 15.5 92t43 70t66 45t84.5 16q35 0 59.5 -10t40.5 -22q18 -14 31 -31q0 54 -12 95t-38 70l-84 -59l-40 65l57 39q-21 8 -46.5 12
t-54.5 4v123q67 0 120.5 -15.5t95.5 -44.5l77 53zM364 266q-10 20 -26 36q-14 14 -35 25t-51 11q-48 0 -71.5 -30.5t-23.5 -81.5q0 -54 26 -86t69 -32q44 0 74 43t38 115z" />
    <glyph glyph-name="ntilde" unicode="&#xf1;" horiz-adv-x="494" 
d="M83 546q-4 6 -7 15q-7 17 -7 44q0 38 21.5 66t66.5 28q22 0 42 -6.5t37.5 -14t33 -13.5t29.5 -6q10 0 14 6.5t4 16.5q0 8 -2.5 16t-4.5 14l-6 14h85q3 -8 6 -18q2 -8 4 -18.5t2 -22.5q0 -38 -21 -67t-64 -29q-26 0 -46.5 6.5t-37.5 14t-30.5 14t-25.5 6.5q-10 0 -16 -7.5
t-6 -19.5q0 -9 2 -16.5t4 -12.5q3 -6 7 -10h-84zM473 2q-6 -2 -14 -4q-14 -3 -42 -3q-52 0 -79 30.5t-27 96.5v163q0 42 -14.5 65t-42.5 23q-17 0 -29 -9.5t-19.5 -23.5t-11 -31.5t-3.5 -32.5v-276h-128v339q0 20 -6.5 31.5t-26.5 11.5v98q6 1 14 3q7 2 17.5 3t24.5 1
q31 0 48.5 -11t26.5 -25t11 -27t2 -17v-2q4 15 13 30t23 27t34 19t48 7q39 0 67 -15t46 -41t26 -61t8 -74v-154q0 -21 7 -32t27 -11v-98z" />
    <glyph glyph-name="ograve" unicode="&#xf2;" horiz-adv-x="450" 
d="M225 -6q-48 0 -84.5 18t-61 50.5t-37.5 78t-13 101.5q0 55 13 100.5t38 77.5t61.5 50t83.5 18t83.5 -18t61.5 -50t38 -77.5t13 -100.5q0 -56 -13 -101.5t-37.5 -78t-61 -50.5t-84.5 -18zM225 108q38 0 53.5 35t15.5 98t-16 98t-53 35t-53 -35t-16 -98t15.5 -98t53.5 -35z
M180 557l-112 193h153l69 -193h-110z" />
    <glyph glyph-name="oacute" unicode="&#xf3;" horiz-adv-x="450" 
d="M153 557l70 193h152l-111 -193h-111zM225 -6q-48 0 -84.5 18t-61 50.5t-37.5 78t-13 101.5q0 55 13 100.5t38 77.5t61.5 50t83.5 18t83.5 -18t61.5 -50t38 -77.5t13 -100.5q0 -56 -13 -101.5t-37.5 -78t-61 -50.5t-84.5 -18zM225 108q38 0 53.5 35t15.5 98t-16 98t-53 35
t-53 -35t-16 -98t15.5 -98t53.5 -35z" />
    <glyph glyph-name="ocircumflex" unicode="&#xf4;" horiz-adv-x="450" 
d="M80 538l77 193h137l77 -193h-110l-36 98l-35 -98h-110zM225 -6q-48 0 -84.5 18t-61 50.5t-37.5 78t-13 101.5q0 55 13 100.5t38 77.5t61.5 50t83.5 18t83.5 -18t61.5 -50t38 -77.5t13 -100.5q0 -56 -13 -101.5t-37.5 -78t-61 -50.5t-84.5 -18zM225 108q38 0 53.5 35
t15.5 98t-16 98t-53 35t-53 -35t-16 -98t15.5 -98t53.5 -35z" />
    <glyph glyph-name="otilde" unicode="&#xf5;" horiz-adv-x="450" 
d="M225 -6q-48 0 -84.5 18t-61 50.5t-37.5 78t-13 101.5q0 55 13 100.5t38 77.5t61.5 50t83.5 18t83.5 -18t61.5 -50t38 -77.5t13 -100.5q0 -56 -13 -101.5t-37.5 -78t-61 -50.5t-84.5 -18zM225 108q38 0 53.5 35t15.5 98t-16 98t-53 35t-53 -35t-16 -98t15.5 -98t53.5 -35z
M64 546q-4 6 -7 15q-7 17 -7 44q0 38 21.5 66t66.5 28q22 0 42 -6.5t37.5 -14t33 -13.5t29.5 -6q10 0 14 6.5t4 16.5q0 8 -2.5 16t-4.5 14l-6 14h85q3 -8 6 -18q2 -8 4 -18.5t2 -22.5q0 -38 -21 -67t-64 -29q-26 0 -46.5 6.5t-37.5 14t-30.5 14t-25.5 6.5q-10 0 -16 -7.5
t-6 -19.5q0 -9 2 -16.5t4 -12.5q3 -6 7 -10h-84z" />
    <glyph glyph-name="odieresis" unicode="&#xf6;" horiz-adv-x="450" 
d="M141 571q-26 0 -45 19t-19 48q0 27 19 47t45 20t44.5 -20t18.5 -47q0 -29 -18.5 -48t-44.5 -19zM323 571q-26 0 -45 19t-19 48q0 27 19 47t45 20t44.5 -20t18.5 -47q0 -29 -18.5 -48t-44.5 -19zM225 -6q-48 0 -84.5 18t-61 50.5t-37.5 78t-13 101.5q0 55 13 100.5
t38 77.5t61.5 50t83.5 18t83.5 -18t61.5 -50t38 -77.5t13 -100.5q0 -56 -13 -101.5t-37.5 -78t-61 -50.5t-84.5 -18zM225 108q38 0 53.5 35t15.5 98t-16 98t-53 35t-53 -35t-16 -98t15.5 -98t53.5 -35z" />
    <glyph glyph-name="divide" unicode="&#xf7;" horiz-adv-x="387" 
d="M114 104q0 35 23 60t57 25q17 0 32 -6.5t26 -18t17.5 -27t6.5 -33.5t-6.5 -33.5t-17.5 -27t-26 -18.5t-32 -7t-31.5 7t-25.5 18.5t-17 27t-6 33.5zM31 243v94h324v-94h-324zM114 467q0 35 23 59.5t56 24.5q35 0 58.5 -24.5t23.5 -59.5q0 -18 -6.5 -33.5t-17.5 -27
t-26 -18.5t-32 -7q-33 0 -56 25.5t-23 60.5z" />
    <glyph glyph-name="oslash" unicode="&#xf8;" horiz-adv-x="450" 
d="M336 504q-1 0 11.5 -0.5t27.5 -0.5h39l-45 -82q52 -66 52 -179q0 -56 -13 -101.5t-37.5 -78t-61 -50.5t-84.5 -18q-46 0 -83 17l-17 -30l-81 -1q6 9 12 20q10 19 30 54q-29 33 -43 80.5t-14 107.5q0 55 13 100.5t38 77.5t61.5 50t83.5 18q49 0 90 -22q5 8 8.5 15.5
t6.5 12.5q4 6 6 10zM156 241q0 -31 3 -55q25 45 50.5 90.5t48.5 86.5q-14 11 -33 11q-37 0 -53 -35t-16 -98zM225 108q38 0 53.5 35t15.5 98q0 11 -0.5 21.5t-1.5 19.5l-94 -168q12 -6 27 -6z" />
    <glyph glyph-name="ugrave" unicode="&#xf9;" horiz-adv-x="485" 
d="M455 2q-7 -2 -15 -4q-15 -3 -41 -3q-32 0 -50 11t-27 25.5t-11.5 27.5t-2.5 16v1q-6 -14 -16 -28.5t-25.5 -26.5t-38 -19.5t-52.5 -7.5q-37 0 -62 12.5t-40 35.5t-21.5 55t-6.5 71v314h128v-285q0 -48 14 -68t39 -20q19 0 31.5 11t20 26.5t11 33.5t3.5 32v270h128v-339
q0 -20 7 -31.5t27 -11.5v-98zM199 557l-112 193h153l69 -193h-110z" />
    <glyph glyph-name="uacute" unicode="&#xfa;" horiz-adv-x="485" 
d="M153 557l70 193h152l-111 -193h-111zM455 2q-7 -2 -15 -4q-15 -3 -41 -3q-32 0 -50 11t-27 25.5t-11.5 27.5t-2.5 16v1q-6 -14 -16 -28.5t-25.5 -26.5t-38 -19.5t-52.5 -7.5q-37 0 -62 12.5t-40 35.5t-21.5 55t-6.5 71v314h128v-285q0 -48 14 -68t39 -20q19 0 31.5 11
t20 26.5t11 33.5t3.5 32v270h128v-339q0 -20 7 -31.5t27 -11.5v-98z" />
    <glyph glyph-name="ucircumflex" unicode="&#xfb;" horiz-adv-x="485" 
d="M85 538l77 193h137l77 -193h-110l-36 98l-35 -98h-110zM455 2q-7 -2 -15 -4q-15 -3 -41 -3q-32 0 -50 11t-27 25.5t-11.5 27.5t-2.5 16v1q-6 -14 -16 -28.5t-25.5 -26.5t-38 -19.5t-52.5 -7.5q-37 0 -62 12.5t-40 35.5t-21.5 55t-6.5 71v314h128v-285q0 -48 14 -68
t39 -20q19 0 31.5 11t20 26.5t11 33.5t3.5 32v270h128v-339q0 -20 7 -31.5t27 -11.5v-98z" />
    <glyph glyph-name="udieresis" unicode="&#xfc;" horiz-adv-x="485" 
d="M143 571q-26 0 -45 19t-19 48q0 27 19 47t45 20t44.5 -20t18.5 -47q0 -29 -18.5 -48t-44.5 -19zM325 571q-26 0 -45 19t-19 48q0 27 19 47t45 20t44.5 -20t18.5 -47q0 -29 -18.5 -48t-44.5 -19zM455 2q-7 -2 -15 -4q-15 -3 -41 -3q-32 0 -50 11t-27 25.5t-11.5 27.5
t-2.5 16v1q-6 -14 -16 -28.5t-25.5 -26.5t-38 -19.5t-52.5 -7.5q-37 0 -62 12.5t-40 35.5t-21.5 55t-6.5 71v314h128v-285q0 -48 14 -68t39 -20q19 0 31.5 11t20 26.5t11 33.5t3.5 32v270h128v-339q0 -20 7 -31.5t27 -11.5v-98z" />
    <glyph glyph-name="yacute" unicode="&#xfd;" horiz-adv-x="467" 
d="M268 -101q-11 -31 -26.5 -57.5t-37.5 -46t-50 -31t-63 -11.5q-19 0 -33 2.5t-25 6.5q-12 4 -22 10l17 102q7 -3 16 -5q17 -5 38 -5q33 0 50 22.5t27 52.5l14 61l-166 482h137l94 -326l83 326h135zM153 557l70 193h152l-111 -193h-111z" />
    <glyph glyph-name="thorn" unicode="&#xfe;" horiz-adv-x="477" 
d="M48 -244v970h128v-295q14 18 39 37.5t67 19.5q30 0 59.5 -14t53.5 -44t38.5 -76.5t14.5 -110.5q0 -68 -14.5 -115t-39 -77t-56 -43.5t-65.5 -13.5q-24 0 -41.5 7t-29.5 16t-18.5 17t-7.5 10v-288h-128zM176 191q1 -8 4.5 -22t12 -27.5t21.5 -23.5t33 -10q32 0 53.5 32.5
t21.5 100.5q0 36 -7 61.5t-18 41.5t-24.5 23t-26.5 7q-22 0 -35.5 -12.5t-21 -27.5t-10.5 -28.5t-3 -15.5v-99z" />
    <glyph glyph-name="ydieresis" unicode="&#xff;" horiz-adv-x="467" 
d="M268 -101q-11 -31 -26.5 -57.5t-37.5 -46t-50 -31t-63 -11.5q-19 0 -33 2.5t-25 6.5q-12 4 -22 10l17 102q7 -3 16 -5q17 -5 38 -5q33 0 50 22.5t27 52.5l14 61l-166 482h137l94 -326l83 326h135zM150 571q-26 0 -45 19t-19 48q0 27 19 47t45 20t44.5 -20t18.5 -47
q0 -29 -18.5 -48t-44.5 -19zM332 571q-26 0 -45 19t-19 48q0 27 19 47t45 20t44.5 -20t18.5 -47q0 -29 -18.5 -48t-44.5 -19z" />
    <glyph glyph-name="Amacron" unicode="&#x100;" horiz-adv-x="583" 
d="M391 175h-199l-47 -175h-142l219 700h139l218 -700h-141zM227 280h130l-66 254zM144 792v93h290v-93h-290z" />
    <glyph glyph-name="amacron" unicode="&#x101;" horiz-adv-x="453" 
d="M432 3q-6 -2 -14 -4q-7 -2 -17 -3t-24 -1q-30 0 -48 10t-27 22.5t-12 24.5t-3 17v1q-6 -12 -15.5 -25t-24.5 -24.5t-36.5 -19t-51.5 -7.5q-64 0 -99.5 36t-35.5 93q0 64 38 99t126 35h83v58q0 39 -13.5 56.5t-39.5 17.5q-25 0 -38 -16t-13 -44q0 -9 0.5 -15t1.5 -10t3 -8
h-114q-3 5 -5 13q-2 7 -3 17t-1 24q0 61 43.5 99.5t129.5 38.5q94 0 135.5 -46.5t41.5 -131.5v-166q0 -21 7 -32.5t26 -11.5v-97zM271 188h-62q-29 0 -42.5 -12.5t-13.5 -35.5t13.5 -35t33.5 -12q21 0 35 12t22 26q10 17 14 38v19zM74 574v93h290v-93h-290z" />
    <glyph glyph-name="Abreve" unicode="&#x102;" horiz-adv-x="583" 
d="M391 175h-199l-47 -175h-142l219 700h139l218 -700h-141zM227 280h130l-66 254zM437 922q0 -29 -6 -56t-21.5 -47.5t-41.5 -33t-65 -12.5q-40 0 -66 12.5t-41.5 33t-21.5 47.5t-6 56h93q0 -32 10 -46.5t31 -15.5q42 0 42 62h93z" />
    <glyph glyph-name="abreve" unicode="&#x103;" horiz-adv-x="453" 
d="M432 3q-6 -2 -14 -4q-7 -2 -17 -3t-24 -1q-30 0 -48 10t-27 22.5t-12 24.5t-3 17v1q-6 -12 -15.5 -25t-24.5 -24.5t-36.5 -19t-51.5 -7.5q-64 0 -99.5 36t-35.5 93q0 64 38 99t126 35h83v58q0 39 -13.5 56.5t-39.5 17.5q-25 0 -38 -16t-13 -44q0 -9 0.5 -15t1.5 -10t3 -8
h-114q-3 5 -5 13q-2 7 -3 17t-1 24q0 61 43.5 99.5t129.5 38.5q94 0 135.5 -46.5t41.5 -131.5v-166q0 -21 7 -32.5t26 -11.5v-97zM271 188h-62q-29 0 -42.5 -12.5t-13.5 -35.5t13.5 -35t33.5 -12q21 0 35 12t22 26q10 17 14 38v19zM355 704q0 -29 -6 -56t-21.5 -47.5
t-41.5 -33t-65 -12.5q-40 0 -66 12.5t-41.5 33t-21.5 47.5t-6 56h93q0 -32 10 -46.5t31 -15.5q42 0 42 62h93z" />
    <glyph glyph-name="Aogonek" unicode="&#x104;" horiz-adv-x="583" 
d="M570 -144q-10 -11 -22 -20q-11 -8 -26.5 -13.5t-36.5 -5.5q-17 0 -33 5t-28 15.5t-19.5 26.5t-7.5 39q0 37 11.5 62t28.5 41l-46 169h-199l-47 -175h-142l219 700h139l218 -700h-58q-5 -2 -14.5 -7t-19 -14.5t-16.5 -23t-7 -31.5q0 -17 9 -28t26 -11q11 0 19 4t13 9
q6 6 11 14zM227 280h130l-66 254z" />
    <glyph glyph-name="aogonek" unicode="&#x105;" horiz-adv-x="453" 
d="M462 -144q-10 -11 -22 -20q-11 -8 -27 -13.5t-36 -5.5q-17 0 -33 5t-28.5 15.5t-20 26.5t-7.5 39q0 35 12.5 59.5t30.5 41.5q-14 6 -23 16t-13.5 19.5t-6 18t-1.5 11.5v1q-6 -12 -15.5 -25t-24.5 -24.5t-36.5 -19t-51.5 -7.5q-64 0 -99.5 36t-35.5 93q0 64 38 99t126 35
h83v58q0 39 -13.5 56.5t-39.5 17.5q-25 0 -38 -16t-13 -44q0 -9 0.5 -15t1.5 -10t3 -8h-114q-3 5 -5 13q-2 7 -3 17t-1 24q0 61 43.5 99.5t129.5 38.5q94 0 135.5 -46.5t41.5 -131.5v-166q0 -21 7 -32.5t26 -11.5v-97l-8 -2t-9 -2t-12 -2q-6 -3 -14.5 -9t-16 -15t-12.5 -21
t-5 -28q0 -17 9 -28t26 -11q11 0 19 4t13 9q6 6 11 14zM271 188h-62q-29 0 -42.5 -12.5t-13.5 -35.5t13.5 -35t33.5 -12q21 0 35 12t22 26q10 17 14 38v19z" />
    <glyph glyph-name="Cacute" unicode="&#x106;" horiz-adv-x="563" 
d="M218 775l70 193h152l-111 -193h-111zM539 125q-20 -37 -52 -66q-27 -25 -68.5 -45t-100.5 -20q-64 0 -116.5 22.5t-90 66.5t-58.5 110.5t-21 155.5q0 177 71.5 267t198.5 90q54 0 93 -15.5t65.5 -39.5t42 -53t23.5 -56t10.5 -49t2.5 -31l-126 -21q-2 40 -14 72
q-11 27 -32.5 49.5t-62.5 22.5q-59 0 -95.5 -57t-36.5 -179q0 -62 13 -106.5t34 -73t48.5 -41.5t56.5 -13q31 0 56.5 14.5t43.5 32.5q21 21 37 48z" />
    <glyph glyph-name="cacute" unicode="&#x107;" horiz-adv-x="435" 
d="M167 557l70 193h152l-111 -193h-111zM412 94q-15 -28 -40 -50q-21 -19 -55.5 -34.5t-84.5 -15.5q-45 0 -82.5 16t-64 47t-41.5 77t-15 106q0 115 49.5 181.5t154.5 66.5q42 0 74 -13t53.5 -35t32 -50.5t10.5 -59.5q0 -14 -1 -24.5t-3 -18.5q-2 -9 -4 -15h-111q1 5 3 10
l2 10t1 12q0 11 -2 23.5t-8.5 23t-17.5 17t-29 6.5q-39 0 -58 -31.5t-19 -100.5q0 -39 8 -65t21.5 -41t30.5 -21.5t34 -6.5q25 0 43 8.5t30 19.5q14 12 23 28z" />
    <glyph glyph-name="Ccircumflex" unicode="&#x108;" horiz-adv-x="563" 
d="M157 756l77 193h137l77 -193h-110l-36 98l-35 -98h-110zM539 125q-20 -37 -52 -66q-27 -25 -68.5 -45t-100.5 -20q-64 0 -116.5 22.5t-90 66.5t-58.5 110.5t-21 155.5q0 177 71.5 267t198.5 90q54 0 93 -15.5t65.5 -39.5t42 -53t23.5 -56t10.5 -49t2.5 -31l-126 -21
q-2 40 -14 72q-11 27 -32.5 49.5t-62.5 22.5q-59 0 -95.5 -57t-36.5 -179q0 -62 13 -106.5t34 -73t48.5 -41.5t56.5 -13q31 0 56.5 14.5t43.5 32.5q21 21 37 48z" />
    <glyph glyph-name="ccircumflex" unicode="&#x109;" horiz-adv-x="435" 
d="M80 538l77 193h137l77 -193h-110l-36 98l-35 -98h-110zM412 94q-15 -28 -40 -50q-21 -19 -55.5 -34.5t-84.5 -15.5q-45 0 -82.5 16t-64 47t-41.5 77t-15 106q0 115 49.5 181.5t154.5 66.5q42 0 74 -13t53.5 -35t32 -50.5t10.5 -59.5q0 -14 -1 -24.5t-3 -18.5
q-2 -9 -4 -15h-111q1 5 3 10l2 10t1 12q0 11 -2 23.5t-8.5 23t-17.5 17t-29 6.5q-39 0 -58 -31.5t-19 -100.5q0 -39 8 -65t21.5 -41t30.5 -21.5t34 -6.5q25 0 43 8.5t30 19.5q14 12 23 28z" />
    <glyph glyph-name="Cdotaccent" unicode="&#x10a;" horiz-adv-x="563" 
d="M539 125q-20 -37 -52 -66q-27 -25 -68.5 -45t-100.5 -20q-64 0 -116.5 22.5t-90 66.5t-58.5 110.5t-21 155.5q0 177 71.5 267t198.5 90q54 0 93 -15.5t65.5 -39.5t42 -53t23.5 -56t10.5 -49t2.5 -31l-126 -21q-2 40 -14 72q-11 27 -32.5 49.5t-62.5 22.5q-59 0 -95.5 -57
t-36.5 -179q0 -62 13 -106.5t34 -73t48.5 -41.5t56.5 -13q31 0 56.5 14.5t43.5 32.5q21 21 37 48zM306 803q-26 0 -44.5 19t-18.5 48q0 28 18.5 47.5t44.5 19.5t45 -19.5t19 -47.5q0 -29 -19 -48t-45 -19z" />
    <glyph glyph-name="cdotaccent" unicode="&#x10b;" horiz-adv-x="435" 
d="M412 94q-15 -28 -40 -50q-21 -19 -55.5 -34.5t-84.5 -15.5q-45 0 -82.5 16t-64 47t-41.5 77t-15 106q0 115 49.5 181.5t154.5 66.5q42 0 74 -13t53.5 -35t32 -50.5t10.5 -59.5q0 -14 -1 -24.5t-3 -18.5q-2 -9 -4 -15h-111q1 5 3 10l2 10t1 12q0 11 -2 23.5t-8.5 23
t-17.5 17t-29 6.5q-39 0 -58 -31.5t-19 -100.5q0 -39 8 -65t21.5 -41t30.5 -21.5t34 -6.5q25 0 43 8.5t30 19.5q14 12 23 28zM231 585q-26 0 -44.5 19t-18.5 48q0 28 18.5 47.5t44.5 19.5t45 -19.5t19 -47.5q0 -29 -19 -48t-45 -19z" />
    <glyph glyph-name="Ccaron" unicode="&#x10c;" horiz-adv-x="563" 
d="M264 968l35 -98l35 98h111l-77 -193h-138l-76 193h110zM539 125q-20 -37 -52 -66q-27 -25 -68.5 -45t-100.5 -20q-64 0 -116.5 22.5t-90 66.5t-58.5 110.5t-21 155.5q0 177 71.5 267t198.5 90q54 0 93 -15.5t65.5 -39.5t42 -53t23.5 -56t10.5 -49t2.5 -31l-126 -21
q-2 40 -14 72q-11 27 -32.5 49.5t-62.5 22.5q-59 0 -95.5 -57t-36.5 -179q0 -62 13 -106.5t34 -73t48.5 -41.5t56.5 -13q31 0 56.5 14.5t43.5 32.5q21 21 37 48z" />
    <glyph glyph-name="ccaron" unicode="&#x10d;" horiz-adv-x="435" 
d="M200 750l35 -98l35 98h111l-77 -193h-138l-76 193h110zM412 94q-15 -28 -40 -50q-21 -19 -55.5 -34.5t-84.5 -15.5q-45 0 -82.5 16t-64 47t-41.5 77t-15 106q0 115 49.5 181.5t154.5 66.5q42 0 74 -13t53.5 -35t32 -50.5t10.5 -59.5q0 -14 -1 -24.5t-3 -18.5
q-2 -9 -4 -15h-111q1 5 3 10l2 10t1 12q0 11 -2 23.5t-8.5 23t-17.5 17t-29 6.5q-39 0 -58 -31.5t-19 -100.5q0 -39 8 -65t21.5 -41t30.5 -21.5t34 -6.5q25 0 43 8.5t30 19.5q14 12 23 28z" />
    <glyph glyph-name="Dcaron" unicode="&#x10e;" horiz-adv-x="574" 
d="M236 968l35 -98l35 98h111l-77 -193h-138l-76 193h110zM60 0v700h181q59 0 113.5 -19.5t96 -63t66.5 -112t25 -167.5q0 -93 -23 -157.5t-61.5 -104.5t-88 -58t-103.5 -18h-206zM265 112q63 0 103 57.5t40 170.5q0 58 -9 104t-29 78t-52 49t-78 17h-45v-476h70z" />
    <glyph glyph-name="dcaron" unicode="&#x10f;" horiz-adv-x="518" 
d="M457 653q0 32 21.5 55t51.5 23q32 0 56.5 -22t24.5 -67q0 -54 -17.5 -87.5t-37.5 -53.5q-24 -23 -54 -35l-34 56q18 7 31 16q11 8 20.5 17.5t10.5 20.5q-30 0 -51.5 22.5t-21.5 54.5zM463 2q-7 -2 -15 -4q-15 -3 -41 -3q-30 0 -48 10t-27.5 23t-12 26t-2.5 18v1
q-5 -9 -13.5 -22t-22.5 -26t-35 -22t-51 -9t-59.5 14.5t-53 44.5t-38.5 76.5t-15 110.5q0 67 15.5 114t41 77t57.5 43.5t66 13.5q27 0 44.5 -7.5t28 -16.5t15 -17t4.5 -9v288h128v-581q0 -23 7 -34t27 -11v-98zM301 292q-1 8 -5 21.5t-12.5 27t-21.5 23.5t-32 10
q-32 0 -53 -32.5t-21 -100.5q0 -35 6.5 -60.5t17.5 -41.5t24 -23.5t27 -7.5q22 0 35.5 12.5t21 28t10.5 29t3 16.5v98z" />
    <glyph glyph-name="Dcroat" unicode="&#x110;" 
d="M19 389h44v311h181q59 0 113.5 -19.5t96 -63t66.5 -112t25 -167.5q0 -93 -23 -157.5t-61 -104.5t-88 -58t-104 -18h-206v302h-44v87zM268 112q63 0 103 57.5t40 170.5q0 58 -9 104t-29 78t-52 49t-78 17h-44v-199h132v-87h-132v-190h69z" />
    <glyph glyph-name="dcroat" unicode="&#x111;" horiz-adv-x="492" 
d="M463 2q-7 -2 -15 -4q-15 -3 -41 -3q-30 0 -48 10t-27.5 23t-12 26t-2.5 18v1q-5 -9 -13.5 -22t-22.5 -26t-35 -22t-51 -9t-59.5 14.5t-53 44.5t-38.5 76.5t-15 110.5q0 67 15.5 114t41 77t57.5 43.5t66 13.5q27 0 44.5 -7.5t28 -16.5t15 -17t4.5 -9v118h-102v90h102v80
h128v-80h45v-90h-45v-411q0 -23 7 -34t27 -11v-98zM301 292q-1 8 -5 21.5t-12.5 27t-21.5 23.5t-32 10q-32 0 -53 -32.5t-21 -100.5q0 -35 6.5 -60.5t17.5 -41.5t24 -23.5t27 -7.5q22 0 35.5 12.5t21 28t10.5 29t3 16.5v98z" />
    <glyph glyph-name="Emacron" unicode="&#x112;" horiz-adv-x="477" 
d="M60 0v700h385v-112h-250v-186h191v-110h-191v-180h250v-112h-385zM115 792v93h290v-93h-290z" />
    <glyph glyph-name="emacron" unicode="&#x113;" horiz-adv-x="439" 
d="M158 224v-5q3 -34 12 -56.5t22 -36t28 -19.5t30 -6q25 0 43.5 9.5t30.5 21.5q14 13 24 31l64 -69q-15 -28 -40 -50q-21 -19 -55.5 -34.5t-84.5 -15.5q-45 0 -82.5 16t-64 47t-41.5 77t-15 106q0 115 49 181.5t153 66.5q47 0 80 -16.5t54 -46t31 -71t10 -90.5v-40h-248z
M284 297q0 40 -13.5 64t-46.5 24q-26 0 -43.5 -21t-20.5 -67h124zM84 574v93h290v-93h-290z" />
    <glyph glyph-name="Ebreve" unicode="&#x114;" horiz-adv-x="477" 
d="M60 0v700h385v-112h-250v-186h191v-110h-191v-180h250v-112h-385zM394 922q0 -29 -6 -56t-21.5 -47.5t-41.5 -33t-65 -12.5q-40 0 -66 12.5t-41.5 33t-21.5 47.5t-6 56h93q0 -32 10 -46.5t31 -15.5q42 0 42 62h93z" />
    <glyph glyph-name="ebreve" unicode="&#x115;" horiz-adv-x="439" 
d="M158 224v-5q3 -34 12 -56.5t22 -36t28 -19.5t30 -6q25 0 43.5 9.5t30.5 21.5q14 13 24 31l64 -69q-15 -28 -40 -50q-21 -19 -55.5 -34.5t-84.5 -15.5q-45 0 -82.5 16t-64 47t-41.5 77t-15 106q0 115 49 181.5t153 66.5q47 0 80 -16.5t54 -46t31 -71t10 -90.5v-40h-248z
M284 297q0 40 -13.5 64t-46.5 24q-26 0 -43.5 -21t-20.5 -67h124zM364 704q0 -29 -6 -56t-21.5 -47.5t-41.5 -33t-65 -12.5q-40 0 -66 12.5t-41.5 33t-21.5 47.5t-6 56h93q0 -32 10 -46.5t31 -15.5q42 0 42 62h93z" />
    <glyph glyph-name="Edotaccent" unicode="&#x116;" horiz-adv-x="477" 
d="M60 0v700h385v-112h-250v-186h191v-110h-191v-180h250v-112h-385zM265 803q-26 0 -44.5 19t-18.5 48q0 28 18.5 47.5t44.5 19.5t45 -19.5t19 -47.5q0 -29 -19 -48t-45 -19z" />
    <glyph glyph-name="edotaccent" unicode="&#x117;" horiz-adv-x="439" 
d="M158 224v-5q3 -34 12 -56.5t22 -36t28 -19.5t30 -6q25 0 43.5 9.5t30.5 21.5q14 13 24 31l64 -69q-15 -28 -40 -50q-21 -19 -55.5 -34.5t-84.5 -15.5q-45 0 -82.5 16t-64 47t-41.5 77t-15 106q0 115 49 181.5t153 66.5q47 0 80 -16.5t54 -46t31 -71t10 -90.5v-40h-248z
M284 297q0 40 -13.5 64t-46.5 24q-26 0 -43.5 -21t-20.5 -67h124zM226 585q-26 0 -44.5 19t-18.5 48q0 28 18.5 47.5t44.5 19.5t45 -19.5t19 -47.5q0 -29 -19 -48t-45 -19z" />
    <glyph glyph-name="Eogonek" unicode="&#x118;" horiz-adv-x="477" 
d="M436 0q-5 -2 -14 -7t-19 -14.5t-17 -23t-7 -31.5q0 -17 9 -28t26 -11q11 0 19 4t13 9q6 6 11 14l28 -56q-9 -11 -21 -20q-11 -8 -27 -13.5t-36 -5.5q-17 0 -33.5 5t-29 15.5t-20 26.5t-7.5 39q0 32 10.5 56t25.5 41h-287v700h385v-112h-250v-186h191v-110h-191v-180h250
v-112h-9z" />
    <glyph glyph-name="eogonek" unicode="&#x119;" horiz-adv-x="439" 
d="M331 -144q-10 -11 -22 -20q-11 -8 -27 -13.5t-36 -5.5q-17 0 -33 5t-28.5 15.5t-20 26.5t-7.5 39q0 32 10.5 54.5t25.5 39.5q-75 12 -119.5 73t-44.5 170q0 115 49 181.5t153 66.5q47 0 80 -16.5t54 -46t31 -71t10 -90.5v-40h-248v-5q3 -34 12 -56.5t22 -36t28 -19.5
t30 -6q25 0 43.5 9.5t30.5 21.5q14 13 24 31l64 -69q-12 -22 -31 -41q-17 -17 -42.5 -32.5t-62.5 -22.5q-6 -3 -15.5 -8.5t-18 -14.5t-15 -21.5t-6.5 -29.5q0 -18 10 -30t28 -12q11 0 19 4.5t13 9.5q6 6 11 14zM284 297q0 40 -13.5 64t-46.5 24q-26 0 -43.5 -21t-20.5 -67
h124z" />
    <glyph glyph-name="Ecaron" unicode="&#x11a;" horiz-adv-x="477" 
d="M226 968l35 -98l35 98h111l-77 -193h-138l-76 193h110zM60 0v700h385v-112h-250v-186h191v-110h-191v-180h250v-112h-385z" />
    <glyph glyph-name="ecaron" unicode="&#x11b;" horiz-adv-x="439" 
d="M192 750l35 -98l35 98h111l-77 -193h-138l-76 193h110zM158 224v-5q3 -34 12 -56.5t22 -36t28 -19.5t30 -6q25 0 43.5 9.5t30.5 21.5q14 13 24 31l64 -69q-15 -28 -40 -50q-21 -19 -55.5 -34.5t-84.5 -15.5q-45 0 -82.5 16t-64 47t-41.5 77t-15 106q0 115 49 181.5
t153 66.5q47 0 80 -16.5t54 -46t31 -71t10 -90.5v-40h-248zM284 297q0 40 -13.5 64t-46.5 24q-26 0 -43.5 -21t-20.5 -67h124z" />
    <glyph glyph-name="Gcircumflex" unicode="&#x11c;" horiz-adv-x="570" 
d="M148 756l77 193h137l77 -193h-110l-36 98l-35 -98h-110zM536 247q0 -47 -13 -92t-40.5 -81t-71.5 -58t-106 -22q-63 0 -113 22.5t-85.5 66.5t-54.5 110.5t-19 155.5q0 177 71 267t199 90q50 0 87 -15.5t62.5 -39t41.5 -52t25 -55t12 -47t3 -28.5l-126 -20q-2 38 -13 68
q-10 26 -31.5 47t-59.5 21q-58 0 -94.5 -57t-36.5 -179q0 -62 10.5 -106.5t29 -73t43 -41.5t52.5 -13t47.5 11t31.5 29t17 41.5t5 49.5v15h-127v103h254v-117z" />
    <glyph glyph-name="gcircumflex" unicode="&#x11d;" horiz-adv-x="455" 
d="M76 593l77 193h137l77 -193h-110l-36 98l-35 -98h-110zM183 -28q-25 0 -41.5 -14.5t-16.5 -43.5q0 -30 23 -45.5t77 -15.5q60 0 82.5 15.5t22.5 48.5q0 29 -16 42t-44 13h-87zM306 301q0 38 -21 61.5t-54 23.5t-53.5 -23t-20.5 -62q0 -38 19.5 -62t53.5 -24t55 24t21 62z
M271 64q36 0 68 -9t55 -27t36.5 -46t13.5 -66q0 -31 -10 -60.5t-34.5 -52t-65 -36.5t-101.5 -14q-110 0 -163.5 39t-53.5 114q0 30 8 50t17.5 32.5t19 18.5t12.5 8q-2 1 -8.5 6.5t-14 14.5t-13 22.5t-5.5 32.5q0 22 7 37.5t16.5 25.5t19 15.5t15.5 7.5q-3 2 -11.5 10
t-17.5 23t-16 37.5t-7 53.5q0 45 15 79.5t41.5 58.5t61.5 36.5t74 12.5q14 0 26 -3t20 -4q5 0 19.5 3t30 12.5t27.5 27t12 47.5l91 -12q0 -31 -8.5 -53t-22.5 -36.5t-31.5 -22t-34.5 -8.5q28 -20 45.5 -54t17.5 -84q0 -45 -15.5 -79.5t-42 -58t-61 -36t-71.5 -12.5
q-20 0 -37 5t-30 10q-17 0 -27.5 -8t-10.5 -25q0 -18 11.5 -25.5t29.5 -7.5h103z" />
    <glyph glyph-name="Gbreve" unicode="&#x11e;" horiz-adv-x="570" 
d="M536 247q0 -47 -13 -92t-40.5 -81t-71.5 -58t-106 -22q-63 0 -113 22.5t-85.5 66.5t-54.5 110.5t-19 155.5q0 177 71 267t199 90q50 0 87 -15.5t62.5 -39t41.5 -52t25 -55t12 -47t3 -28.5l-126 -20q-2 38 -13 68q-10 26 -31.5 47t-59.5 21q-58 0 -94.5 -57t-36.5 -179
q0 -62 10.5 -106.5t29 -73t43 -41.5t52.5 -13t47.5 11t31.5 29t17 41.5t5 49.5v15h-127v103h254v-117zM424 922q0 -29 -6 -56t-21.5 -47.5t-41.5 -33t-65 -12.5q-40 0 -66 12.5t-41.5 33t-21.5 47.5t-6 56h93q0 -32 10 -46.5t31 -15.5q42 0 42 62h93z" />
    <glyph glyph-name="gbreve" unicode="&#x11f;" horiz-adv-x="455" 
d="M183 -28q-25 0 -41.5 -14.5t-16.5 -43.5q0 -30 23 -45.5t77 -15.5q60 0 82.5 15.5t22.5 48.5q0 29 -16 42t-44 13h-87zM306 301q0 38 -21 61.5t-54 23.5t-53.5 -23t-20.5 -62q0 -38 19.5 -62t53.5 -24t55 24t21 62zM271 64q36 0 68 -9t55 -27t36.5 -46t13.5 -66
q0 -31 -10 -60.5t-34.5 -52t-65 -36.5t-101.5 -14q-110 0 -163.5 39t-53.5 114q0 30 8 50t17.5 32.5t19 18.5t12.5 8q-2 1 -8.5 6.5t-14 14.5t-13 22.5t-5.5 32.5q0 22 7 37.5t16.5 25.5t19 15.5t15.5 7.5q-3 2 -11.5 10t-17.5 23t-16 37.5t-7 53.5q0 45 15 79.5t41.5 58.5
t61.5 36.5t74 12.5q14 0 26 -3t20 -4q5 0 19.5 3t30 12.5t27.5 27t12 47.5l91 -12q0 -31 -8.5 -53t-22.5 -36.5t-31.5 -22t-34.5 -8.5q28 -20 45.5 -54t17.5 -84q0 -45 -15.5 -79.5t-42 -58t-61 -36t-71.5 -12.5q-20 0 -37 5t-30 10q-17 0 -27.5 -8t-10.5 -25
q0 -18 11.5 -25.5t29.5 -7.5h103zM377 704q0 -29 -6 -56t-21.5 -47.5t-41.5 -33t-65 -12.5q-40 0 -66 12.5t-41.5 33t-21.5 47.5t-6 56h93q0 -32 10 -46.5t31 -15.5q42 0 42 62h93z" />
    <glyph glyph-name="Gdotaccent" unicode="&#x120;" horiz-adv-x="570" 
d="M536 247q0 -47 -13 -92t-40.5 -81t-71.5 -58t-106 -22q-63 0 -113 22.5t-85.5 66.5t-54.5 110.5t-19 155.5q0 177 71 267t199 90q50 0 87 -15.5t62.5 -39t41.5 -52t25 -55t12 -47t3 -28.5l-126 -20q-2 38 -13 68q-10 26 -31.5 47t-59.5 21q-58 0 -94.5 -57t-36.5 -179
q0 -62 10.5 -106.5t29 -73t43 -41.5t52.5 -13t47.5 11t31.5 29t17 41.5t5 49.5v15h-127v103h254v-117zM299 803q-26 0 -44.5 19t-18.5 48q0 28 18.5 47.5t44.5 19.5t45 -19.5t19 -47.5q0 -29 -19 -48t-45 -19z" />
    <glyph glyph-name="gdotaccent" unicode="&#x121;" horiz-adv-x="455" 
d="M183 -28q-25 0 -41.5 -14.5t-16.5 -43.5q0 -30 23 -45.5t77 -15.5q60 0 82.5 15.5t22.5 48.5q0 29 -16 42t-44 13h-87zM306 301q0 38 -21 61.5t-54 23.5t-53.5 -23t-20.5 -62q0 -38 19.5 -62t53.5 -24t55 24t21 62zM271 64q36 0 68 -9t55 -27t36.5 -46t13.5 -66
q0 -31 -10 -60.5t-34.5 -52t-65 -36.5t-101.5 -14q-110 0 -163.5 39t-53.5 114q0 30 8 50t17.5 32.5t19 18.5t12.5 8q-2 1 -8.5 6.5t-14 14.5t-13 22.5t-5.5 32.5q0 22 7 37.5t16.5 25.5t19 15.5t15.5 7.5q-3 2 -11.5 10t-17.5 23t-16 37.5t-7 53.5q0 45 15 79.5t41.5 58.5
t61.5 36.5t74 12.5q14 0 26 -3t20 -4q5 0 19.5 3t30 12.5t27.5 27t12 47.5l91 -12q0 -31 -8.5 -53t-22.5 -36.5t-31.5 -22t-34.5 -8.5q28 -20 45.5 -54t17.5 -84q0 -45 -15.5 -79.5t-42 -58t-61 -36t-71.5 -12.5q-20 0 -37 5t-30 10q-17 0 -27.5 -8t-10.5 -25
q0 -18 11.5 -25.5t29.5 -7.5h103zM237 585q-26 0 -44.5 19t-18.5 48q0 28 18.5 47.5t44.5 19.5t45 -19.5t19 -47.5q0 -29 -19 -48t-45 -19z" />
    <glyph glyph-name="uni0122" unicode="&#x122;" horiz-adv-x="570" 
d="M222 -117q0 32 21.5 55t51.5 23q32 0 56.5 -22t24.5 -67q0 -54 -17.5 -87.5t-37.5 -53.5q-24 -23 -54 -35l-34 56q18 7 31 16q11 8 20.5 17.5t10.5 20.5q-30 0 -51.5 22.5t-21.5 54.5zM536 247q0 -47 -13 -92t-40.5 -81t-71.5 -58t-106 -22q-63 0 -113 22.5t-85.5 66.5
t-54.5 110.5t-19 155.5q0 177 71 267t199 90q50 0 87 -15.5t62.5 -39t41.5 -52t25 -55t12 -47t3 -28.5l-126 -20q-2 38 -13 68q-10 26 -31.5 47t-59.5 21q-58 0 -94.5 -57t-36.5 -179q0 -62 10.5 -106.5t29 -73t43 -41.5t52.5 -13t47.5 11t31.5 29t17 41.5t5 49.5v15h-127
v103h254v-117z" />
    <glyph glyph-name="uni0123" unicode="&#x123;" horiz-adv-x="455" 
d="M168 713q0 32 21.5 55t51.5 23q32 0 56.5 -22t24.5 -67q0 -54 -17.5 -87.5t-37.5 -53.5q-24 -23 -54 -35l-34 56q18 7 31 16q11 8 20.5 17.5t10.5 20.5q-30 0 -51.5 22.5t-21.5 54.5zM183 -28q-25 0 -41.5 -14.5t-16.5 -43.5q0 -30 23 -45.5t77 -15.5q60 0 82.5 15.5
t22.5 48.5q0 29 -16 42t-44 13h-87zM306 301q0 38 -21 61.5t-54 23.5t-53.5 -23t-20.5 -62q0 -38 19.5 -62t53.5 -24t55 24t21 62zM271 64q36 0 68 -9t55 -27t36.5 -46t13.5 -66q0 -31 -10 -60.5t-34.5 -52t-65 -36.5t-101.5 -14q-110 0 -163.5 39t-53.5 114q0 30 8 50
t17.5 32.5t19 18.5t12.5 8q-2 1 -8.5 6.5t-14 14.5t-13 22.5t-5.5 32.5q0 22 7 37.5t16.5 25.5t19 15.5t15.5 7.5q-3 2 -11.5 10t-17.5 23t-16 37.5t-7 53.5q0 45 15 79.5t41.5 58.5t61.5 36.5t74 12.5q14 0 26 -3t20 -4q5 0 19.5 3t30 12.5t27.5 27t12 47.5l91 -12
q0 -31 -8.5 -53t-22.5 -36.5t-31.5 -22t-34.5 -8.5q28 -20 45.5 -54t17.5 -84q0 -45 -15.5 -79.5t-42 -58t-61 -36t-71.5 -12.5q-20 0 -37 5t-30 10q-17 0 -27.5 -8t-10.5 -25q0 -18 11.5 -25.5t29.5 -7.5h103z" />
    <glyph glyph-name="Hcircumflex" unicode="&#x124;" horiz-adv-x="599" 
d="M151 756l77 193h137l77 -193h-110l-36 98l-35 -98h-110zM404 0v278h-209v-278h-135v700h135v-309h209v309h135v-700h-135z" />
    <glyph glyph-name="hcircumflex" unicode="&#x125;" horiz-adv-x="478" 
d="M70 759l77 193h137l77 -193h-110l-36 98l-35 -98h-110zM458 2q-7 -2 -15 -4q-15 -3 -41 -3q-53 0 -79.5 30.5t-26.5 96.5v166q0 38 -15 61.5t-42 23.5q-17 0 -29 -9.5t-19.5 -23.5t-11 -31.5t-3.5 -32.5v-276h-128v726h128v-301q14 26 37.5 44.5t63.5 18.5t68 -15
t45.5 -41t25.5 -61t8 -74v-154q0 -21 7 -32t27 -11v-98z" />
    <glyph glyph-name="Hbar" unicode="&#x126;" horiz-adv-x="620" 
d="M12 591h56v109h137v-109h209v109h137v-109h57v-88h-57v-503h-137v278h-209v-278h-137v503h-56v88zM414 391v112h-209v-112h209z" />
    <glyph glyph-name="hbar" unicode="&#x127;" horiz-adv-x="479" 
d="M3 654h45v72h129v-72h141v-90h-141v-139q13 26 36.5 44.5t64.5 18.5q39 0 67 -15t45.5 -41t25.5 -61t8 -74v-152q0 -20 7.5 -31.5t26.5 -11.5v-100q-7 -2 -15 -4q-15 -3 -41 -3q-53 0 -79.5 30.5t-26.5 96.5v158q0 40 -15.5 64.5t-40.5 24.5q-18 0 -29.5 -9t-19 -23
t-11 -30t-3.5 -31v-276h-129v564h-45v90z" />
    <glyph glyph-name="Itilde" unicode="&#x128;" horiz-adv-x="254" 
d="M60 0v700h135v-700h-135zM-28 734q-4 6 -7 15q-7 17 -7 44q0 38 21.5 66t66.5 28q22 0 42 -6.5t37.5 -14t33 -13.5t29.5 -6q10 0 14 6.5t4 16.5q0 8 -2.5 16t-4.5 14l-6 14h85q3 -8 6 -18q2 -8 4 -18.5t2 -22.5q0 -38 -21 -67t-64 -29q-26 0 -46.5 6.5t-37.5 14t-30.5 14
t-25.5 6.5q-10 0 -16 -7.5t-6 -19.5q0 -9 2 -16.5t4 -12.5q3 -6 7 -10h-84z" />
    <glyph glyph-name="itilde" unicode="&#x129;" horiz-adv-x="241" 
d="M213 3q-7 -2 -15 -4q-14 -3 -38 -3q-60 0 -87 30.5t-27 98.5v357h128v-331q0 -28 7 -39.5t32 -11.5v-97zM-40 546q-4 6 -7 15q-7 17 -7 44q0 38 21.5 66t66.5 28q22 0 42 -6.5t37.5 -14t33 -13.5t29.5 -6q10 0 14 6.5t4 16.5q0 8 -2.5 16t-4.5 14l-6 14h85q3 -8 6 -18
q2 -8 4 -18.5t2 -22.5q0 -38 -21 -67t-64 -29q-26 0 -46.5 6.5t-37.5 14t-30.5 14t-25.5 6.5q-10 0 -16 -7.5t-6 -19.5q0 -9 2 -16.5t4 -12.5q3 -6 7 -10h-84z" />
    <glyph glyph-name="Imacron" unicode="&#x12a;" horiz-adv-x="254" 
d="M60 0v700h135v-700h-135zM-15 760v93h290v-93h-290z" />
    <glyph glyph-name="imacron" unicode="&#x12b;" horiz-adv-x="241" 
d="M213 3q-7 -2 -15 -4q-14 -3 -38 -3q-60 0 -87 30.5t-27 98.5v357h128v-331q0 -28 7 -39.5t32 -11.5v-97zM-30 574v93h290v-93h-290z" />
    <glyph glyph-name="Ibreve" unicode="&#x12c;" horiz-adv-x="254" 
d="M60 0v700h135v-700h-135zM261 922q0 -29 -6 -56t-21.5 -47.5t-41.5 -33t-65 -12.5q-40 0 -66 12.5t-41.5 33t-21.5 47.5t-6 56h93q0 -32 10 -46.5t31 -15.5q42 0 42 62h93z" />
    <glyph glyph-name="ibreve" unicode="&#x12d;" horiz-adv-x="241" 
d="M213 3q-7 -2 -15 -4q-14 -3 -38 -3q-60 0 -87 30.5t-27 98.5v357h128v-331q0 -28 7 -39.5t32 -11.5v-97zM251 704q0 -29 -6 -56t-21.5 -47.5t-41.5 -33t-65 -12.5q-40 0 -66 12.5t-41.5 33t-21.5 47.5t-6 56h93q0 -32 10 -46.5t31 -15.5q42 0 42 62h93z" />
    <glyph glyph-name="Iogonek" unicode="&#x12e;" horiz-adv-x="255" 
d="M134 0q-5 -2 -14.5 -7t-19.5 -14.5t-17 -23t-7 -31.5q0 -17 9.5 -28t26.5 -11q11 0 19 4t13 9q6 6 11 14l27 -56q-9 -11 -21 -20q-11 -8 -27 -13.5t-36 -5.5q-17 0 -33 5t-28 15.5t-19.5 26.5t-7.5 39q0 42 15.5 68.5t35.5 42.5v686h135v-700h-62z" />
    <glyph glyph-name="iogonek" unicode="&#x12f;" horiz-adv-x="237" 
d="M207 2q-3 -1 -7 -2q-5 -1 -17 -3q-7 -3 -16 -8.5t-17 -14.5t-13.5 -21.5t-5.5 -28.5q0 -18 9.5 -30t26.5 -12q11 0 19.5 4.5t13.5 9.5q6 6 11 14l28 -54q-10 -11 -22 -20q-11 -8 -26.5 -13.5t-36.5 -5.5q-17 0 -33 5t-28.5 15.5t-20 26.5t-7.5 39q0 35 12 59.5t29 40.5
q-60 22 -60 119v360h128v-339q0 -21 7 -32t26 -11v-98zM190 647q0 -35 -23.5 -56.5t-56.5 -21.5t-56 21.5t-23 56.5t23 57.5t56 22.5t56.5 -22.5t23.5 -57.5z" />
    <glyph glyph-name="Idotaccent" unicode="&#x130;" horiz-adv-x="254" 
d="M60 0v700h135v-700h-135zM124 790q-26 0 -44.5 19t-18.5 48q0 28 18.5 47.5t44.5 19.5t45 -19.5t19 -47.5q0 -29 -19 -48t-45 -19z" />
    <glyph glyph-name="dotlessi" unicode="&#x131;" horiz-adv-x="241" 
d="M213 3q-7 -2 -15 -4q-14 -3 -38 -3q-60 0 -87 30.5t-27 98.5v357h128v-331q0 -28 7 -39.5t32 -11.5v-97z" />
    <glyph glyph-name="Jcircumflex" unicode="&#x134;" horiz-adv-x="417" 
d="M150 756l77 193h137l77 -193h-110l-36 98l-35 -98h-110zM227 700h136v-460q0 -61 -17 -107t-46.5 -77t-68 -46.5t-81.5 -15.5q-39 0 -68 11t-49 25q-23 16 -39 37l82 97q9 -13 20 -23q10 -8 23.5 -15t30.5 -7q37 0 57 28.5t20 85.5v467z" />
    <glyph glyph-name="jcircumflex" unicode="&#x135;" horiz-adv-x="225" 
d="M-44 -115q4 -4 9 -8q10 -7 27 -7q30 0 43 26.5t13 68.5v517h129v-523q0 -45 -9.5 -83t-30.5 -65t-53.5 -42.5t-77.5 -15.5q-24 0 -40.5 5.5t-27.5 12.5q-12 8 -20 18zM-31 538l77 193h137l77 -193h-110l-36 98l-35 -98h-110z" />
    <glyph glyph-name="uni0136" unicode="&#x136;" horiz-adv-x="581" 
d="M195 -117q0 32 21.5 55t51.5 23q32 0 56.5 -22t24.5 -67q0 -54 -17.5 -87.5t-37.5 -53.5q-24 -23 -54 -35l-34 56q18 7 31 16q11 8 20.5 17.5t10.5 20.5q-30 0 -51.5 22.5t-21.5 54.5zM568 2q-7 -2 -18 -4q-18 -3 -51 -3q-48 0 -76.5 21.5t-47 53.5t-30 69.5t-24 69.5
t-30 53.5t-48.5 21.5h-48v-284h-135v700h135v-305h47q31 0 56.5 16t43.5 52.5t28 94.5t10 142h134q0 -78 -10 -137t-26.5 -102t-38.5 -71t-47 -44q21 -16 34.5 -39.5t23 -50.5t17 -53.5t17 -47.5t23 -34.5t34.5 -13.5h27v-105z" />
    <glyph glyph-name="uni0137" unicode="&#x137;" horiz-adv-x="483" 
d="M158 -117q0 32 21.5 55t51.5 23q32 0 56.5 -22t24.5 -67q0 -54 -17.5 -87.5t-37.5 -53.5q-24 -23 -54 -35l-34 56q18 7 31 16q11 8 20.5 17.5t10.5 20.5q-30 0 -51.5 22.5t-21.5 54.5zM465 5q-7 -3 -15 -5q-15 -5 -36 -5q-37 0 -59.5 16t-37.5 40t-25 51.5t-22 51.5
t-29.5 40t-46.5 16h-19v-210h-127v726h127v-414h32q44 0 71.5 44.5t27.5 125.5h119q0 -32 -5 -64.5t-17 -61t-32 -51.5t-49 -35q26 -18 38.5 -46.5t24 -56t26.5 -47.5t46 -20h8v-95z" />
    <glyph glyph-name="kgreenlandic" unicode="&#x138;" horiz-adv-x="481" 
d="M463 5q-7 -3 -15 -5q-15 -5 -36 -5q-37 0 -59.5 16t-37.5 40t-25 51.5t-22 51.5t-29.5 40t-46.5 16h-20v-210h-126v482h126v-170h33q44 0 71.5 44.5t27.5 125.5h119q0 -32 -5 -64.5t-17 -61t-32 -51.5t-49 -35q26 -18 38.5 -46.5t24 -56t26.5 -47.5t46 -20h8v-95z" />
    <glyph glyph-name="Lacute" unicode="&#x139;" horiz-adv-x="456" 
d="M65 775l70 193h152l-111 -193h-111zM60 0v700h135v-588h252v-112h-387z" />
    <glyph glyph-name="lacute" unicode="&#x13a;" horiz-adv-x="238" 
d="M50 768l70 193h152l-111 -193h-111zM208 2q-6 -2 -15 -4q-15 -3 -42 -3q-52 0 -78.5 30.5t-26.5 96.5v604h128v-583q0 -21 7 -32t27 -11v-98z" />
    <glyph glyph-name="uni013B" unicode="&#x13b;" horiz-adv-x="456" 
d="M147 -154q0 32 21.5 55t51.5 23q32 0 56.5 -22t24.5 -67q0 -54 -17.5 -87.5t-37.5 -53.5q-24 -23 -54 -35l-34 56q18 7 31 16q11 8 20.5 17.5t10.5 20.5q-30 0 -51.5 22.5t-21.5 54.5zM60 0v700h135v-588h252v-112h-387z" />
    <glyph glyph-name="uni013C" unicode="&#x13c;" horiz-adv-x="238" 
d="M45 -117q0 32 21.5 55t51.5 23q32 0 56.5 -22t24.5 -67q0 -54 -17.5 -87.5t-37.5 -53.5q-24 -23 -54 -35l-34 56q18 7 31 16q11 8 20.5 17.5t10.5 20.5q-30 0 -51.5 22.5t-21.5 54.5zM208 2q-6 -2 -15 -4q-15 -3 -42 -3q-52 0 -78.5 30.5t-26.5 96.5v604h128v-583
q0 -21 7 -32t27 -11v-98z" />
    <glyph glyph-name="Lcaron" unicode="&#x13d;" horiz-adv-x="459" 
d="M227 614q0 32 21.5 55t51.5 23q32 0 56.5 -22t24.5 -67q0 -54 -17.5 -87.5t-37.5 -53.5q-24 -23 -54 -35l-34 56q18 7 31 16q11 8 20.5 17.5t10.5 20.5q-30 0 -51.5 22.5t-21.5 54.5zM60 0v700h135v-588h252v-112h-387z" />
    <glyph glyph-name="lcaron" unicode="&#x13e;" horiz-adv-x="263" 
d="M203 661q0 32 21.5 55t51.5 23q32 0 56.5 -22t24.5 -67q0 -54 -17.5 -87.5t-37.5 -53.5q-24 -23 -54 -35l-34 56q18 7 31 16q11 8 20.5 17.5t10.5 20.5q-30 0 -51.5 22.5t-21.5 54.5zM208 2q-6 -2 -15 -4q-15 -3 -42 -3q-52 0 -78.5 30.5t-26.5 96.5v604h128v-583
q0 -21 7 -32t27 -11v-98z" />
    <glyph glyph-name="Ldot" unicode="&#x13f;" horiz-adv-x="456" 
d="M60 0v700h135v-588h252v-112h-387zM324 178q-26 0 -44.5 19t-18.5 48q0 28 18.5 47.5t44.5 19.5t45 -19.5t19 -47.5q0 -29 -19 -48t-45 -19z" />
    <glyph glyph-name="ldot" unicode="&#x140;" horiz-adv-x="312" 
d="M208 2q-6 -2 -15 -4q-15 -3 -42 -3q-52 0 -78.5 30.5t-26.5 96.5v604h128v-583q0 -21 7 -32t27 -11v-98zM265 167q-26 0 -44.5 19t-18.5 48q0 28 18.5 47.5t44.5 19.5t45 -19.5t19 -47.5q0 -29 -19 -48t-45 -19z" />
    <glyph glyph-name="Lslash" unicode="&#x141;" horiz-adv-x="488" 
d="M-8 306l98 64v330h136v-252l67 48l38 -64l-105 -71v-249h253v-112h-389v284l-60 -42z" />
    <glyph glyph-name="lslash" unicode="&#x142;" horiz-adv-x="322" 
d="M2 340l95 60v326h128v-253l67 44l39 -63l-106 -67v-244q0 -21 7 -32t27 -11v-98q-6 -2 -15 -4q-15 -3 -41 -3q-53 0 -79.5 30.5t-26.5 96.5v191l-57 -37z" />
    <glyph glyph-name="Nacute" unicode="&#x143;" horiz-adv-x="593" 
d="M224 775l70 193h152l-111 -193h-111zM395 0l-200 440v-440h-135v700h138l200 -457v457h136v-700h-139z" />
    <glyph glyph-name="nacute" unicode="&#x144;" horiz-adv-x="494" 
d="M185 557l70 193h152l-111 -193h-111zM473 2q-6 -2 -14 -4q-14 -3 -42 -3q-52 0 -79 30.5t-27 96.5v163q0 42 -14.5 65t-42.5 23q-17 0 -29 -9.5t-19.5 -23.5t-11 -31.5t-3.5 -32.5v-276h-128v339q0 20 -6.5 31.5t-26.5 11.5v98q6 1 14 3q7 2 17.5 3t24.5 1q31 0 48.5 -11
t26.5 -25t11 -27t2 -17v-2q4 15 13 30t23 27t34 19t48 7q39 0 67 -15t46 -41t26 -61t8 -74v-154q0 -21 7 -32t27 -11v-98z" />
    <glyph glyph-name="uni0145" unicode="&#x145;" horiz-adv-x="593" 
d="M215 -117q0 32 21.5 55t51.5 23q32 0 56.5 -22t24.5 -67q0 -54 -17.5 -87.5t-37.5 -53.5q-24 -23 -54 -35l-34 56q18 7 31 16q11 8 20.5 17.5t10.5 20.5q-30 0 -51.5 22.5t-21.5 54.5zM395 0l-200 440v-440h-135v700h138l200 -457v457h136v-700h-139z" />
    <glyph glyph-name="uni0146" unicode="&#x146;" horiz-adv-x="494" 
d="M188 -117q0 32 21.5 55t51.5 23q32 0 56.5 -22t24.5 -67q0 -54 -17.5 -87.5t-37.5 -53.5q-24 -23 -54 -35l-34 56q18 7 31 16q11 8 20.5 17.5t10.5 20.5q-30 0 -51.5 22.5t-21.5 54.5zM473 2q-6 -2 -14 -4q-14 -3 -42 -3q-52 0 -79 30.5t-27 96.5v163q0 42 -14.5 65
t-42.5 23q-17 0 -29 -9.5t-19.5 -23.5t-11 -31.5t-3.5 -32.5v-276h-128v339q0 20 -6.5 31.5t-26.5 11.5v98q6 1 14 3q7 2 17.5 3t24.5 1q31 0 48.5 -11t26.5 -25t11 -27t2 -17v-2q4 15 13 30t23 27t34 19t48 7q39 0 67 -15t46 -41t26 -61t8 -74v-154q0 -21 7 -32t27 -11v-98
z" />
    <glyph glyph-name="Ncaron" unicode="&#x147;" horiz-adv-x="593" 
d="M270 968l35 -98l35 98h111l-77 -193h-138l-76 193h110zM395 0l-200 440v-440h-135v700h138l200 -457v457h136v-700h-139z" />
    <glyph glyph-name="ncaron" unicode="&#x148;" horiz-adv-x="494" 
d="M224 750l35 -98l35 98h111l-77 -193h-138l-76 193h110zM473 2q-6 -2 -14 -4q-14 -3 -42 -3q-52 0 -79 30.5t-27 96.5v163q0 42 -14.5 65t-42.5 23q-17 0 -29 -9.5t-19.5 -23.5t-11 -31.5t-3.5 -32.5v-276h-128v339q0 20 -6.5 31.5t-26.5 11.5v98q6 1 14 3q7 2 17.5 3
t24.5 1q31 0 48.5 -11t26.5 -25t11 -27t2 -17v-2q4 15 13 30t23 27t34 19t48 7q39 0 67 -15t46 -41t26 -61t8 -74v-154q0 -21 7 -32t27 -11v-98z" />
    <glyph glyph-name="napostrophe" unicode="&#x149;" horiz-adv-x="534" 
d="M-50 655q0 26 16.5 44.5t42.5 18.5q25 0 44.5 -18t19.5 -55q0 -44 -13.5 -71t-30.5 -44q-19 -19 -43 -29l-27 46q14 6 25 13q9 6 16.5 13.5t8.5 17.5q-25 0 -42 18.5t-17 45.5zM512 2q-6 -2 -14 -4q-14 -3 -42 -3q-52 0 -79 30.5t-27 96.5v163q0 42 -14.5 65t-42.5 23
q-17 0 -29 -9.5t-19.5 -23.5t-11 -31.5t-3.5 -32.5v-276h-128v339q0 20 -6.5 31.5t-26.5 11.5v98q6 1 14 3q7 2 17.5 3t24.5 1q31 0 48.5 -11t26.5 -25t11 -27t2 -17v-2q4 15 13 30t23 27t34 19t48 7q39 0 67 -15t46 -41t26 -61t8 -74v-154q0 -21 7 -32t27 -11v-98z" />
    <glyph glyph-name="Eng" unicode="&#x14a;" horiz-adv-x="593" 
d="M398 0h-12l-191 440v-440h-135v700h138l200 -472v472h136v-716q0 -61 -18 -106.5t-48 -76t-69.5 -45.5t-82.5 -15q-41 0 -71 11t-50 25q-24 16 -40 37l82 97l6 -7.5t16.5 -15.5t24.5 -15t32 -7q38 0 60 28.5t22 85.5v20z" />
    <glyph glyph-name="eng" unicode="&#x14b;" horiz-adv-x="474" 
d="M442 35q0 -47 -9.5 -85t-30.5 -65.5t-53.5 -42.5t-77.5 -15q-23 0 -38.5 5t-26.5 11q-12 7 -20 16l37 94q4 -3 9 -6q10 -5 24 -5q32 0 45.5 25.5t13.5 73.5v244q0 40 -15 64t-42 24q-17 0 -29 -9.5t-19.5 -23.5t-11 -31.5t-3.5 -32.5v-276h-128v332q0 27 -7 38.5
t-32 11.5v98l15 3q7 2 17 3t22 1q32 0 51 -11t28.5 -25t12.5 -28t3 -20v-1q4 16 12.5 31.5t22.5 27.5t34.5 19.5t49.5 7.5q39 0 67 -15t46 -41t26 -61t8 -74z" />
    <glyph glyph-name="Omacron" unicode="&#x14c;" horiz-adv-x="608" 
d="M159 792v93h290v-93h-290zM304 -6q-57 0 -106.5 21.5t-86 65.5t-58 110.5t-21.5 157.5t21 158t58 111t86.5 66t106.5 22t106.5 -22t86.5 -66t58 -111t21 -158t-21.5 -157.5t-58 -110.5t-86 -65.5t-106.5 -21.5zM304 113q27 0 51 12.5t42 40.5t28 73t10 110
q0 66 -10.5 111t-28 72.5t-41.5 40t-51 12.5t-51 -12.5t-41.5 -40t-28 -72.5t-10.5 -111q0 -65 10.5 -110t28 -73t41.5 -40.5t51 -12.5z" />
    <glyph glyph-name="omacron" unicode="&#x14d;" horiz-adv-x="450" 
d="M82 574v93h290v-93h-290zM225 -6q-48 0 -84.5 18t-61 50.5t-37.5 78t-13 101.5q0 55 13 100.5t38 77.5t61.5 50t83.5 18t83.5 -18t61.5 -50t38 -77.5t13 -100.5q0 -56 -13 -101.5t-37.5 -78t-61 -50.5t-84.5 -18zM225 108q38 0 53.5 35t15.5 98t-16 98t-53 35t-53 -35
t-16 -98t15.5 -98t53.5 -35z" />
    <glyph glyph-name="Obreve" unicode="&#x14e;" horiz-adv-x="608" 
d="M304 -6q-57 0 -106.5 21.5t-86 65.5t-58 110.5t-21.5 157.5t21 158t58 111t86.5 66t106.5 22t106.5 -22t86.5 -66t58 -111t21 -158t-21.5 -157.5t-58 -110.5t-86 -65.5t-106.5 -21.5zM304 113q27 0 51 12.5t42 40.5t28 73t10 110q0 66 -10.5 111t-28 72.5t-41.5 40
t-51 12.5t-51 -12.5t-41.5 -40t-28 -72.5t-10.5 -111q0 -65 10.5 -110t28 -73t41.5 -40.5t51 -12.5zM443 922q0 -29 -6 -56t-21.5 -47.5t-41.5 -33t-65 -12.5q-40 0 -66 12.5t-41.5 33t-21.5 47.5t-6 56h93q0 -32 10 -46.5t31 -15.5q42 0 42 62h93z" />
    <glyph glyph-name="obreve" unicode="&#x14f;" horiz-adv-x="450" 
d="M225 -6q-48 0 -84.5 18t-61 50.5t-37.5 78t-13 101.5q0 55 13 100.5t38 77.5t61.5 50t83.5 18t83.5 -18t61.5 -50t38 -77.5t13 -100.5q0 -56 -13 -101.5t-37.5 -78t-61 -50.5t-84.5 -18zM225 108q38 0 53.5 35t15.5 98t-16 98t-53 35t-53 -35t-16 -98t15.5 -98t53.5 -35z
M363 704q0 -29 -6 -56t-21.5 -47.5t-41.5 -33t-65 -12.5q-40 0 -66 12.5t-41.5 33t-21.5 47.5t-6 56h93q0 -32 10 -46.5t31 -15.5q42 0 42 62h93z" />
    <glyph glyph-name="Ohungarumlaut" unicode="&#x150;" horiz-adv-x="608" 
d="M159 775l69 193h153l-112 -193h-110zM336 775l69 193h152l-111 -193h-110zM304 -6q-57 0 -106.5 21.5t-86 65.5t-58 110.5t-21.5 157.5t21 158t58 111t86.5 66t106.5 22t106.5 -22t86.5 -66t58 -111t21 -158t-21.5 -157.5t-58 -110.5t-86 -65.5t-106.5 -21.5zM304 113
q27 0 51 12.5t42 40.5t28 73t10 110q0 66 -10.5 111t-28 72.5t-41.5 40t-51 12.5t-51 -12.5t-41.5 -40t-28 -72.5t-10.5 -111q0 -65 10.5 -110t28 -73t41.5 -40.5t51 -12.5z" />
    <glyph glyph-name="ohungarumlaut" unicode="&#x151;" horiz-adv-x="450" 
d="M77 557l69 193h153l-112 -193h-110zM254 557l69 193h152l-111 -193h-110zM225 -6q-48 0 -84.5 18t-61 50.5t-37.5 78t-13 101.5q0 55 13 100.5t38 77.5t61.5 50t83.5 18t83.5 -18t61.5 -50t38 -77.5t13 -100.5q0 -56 -13 -101.5t-37.5 -78t-61 -50.5t-84.5 -18zM225 108
q38 0 53.5 35t15.5 98t-16 98t-53 35t-53 -35t-16 -98t15.5 -98t53.5 -35z" />
    <glyph glyph-name="OE" unicode="&#x152;" horiz-adv-x="860" 
d="M304 -6q-57 0 -106.5 21.5t-86 65.5t-58 110.5t-21.5 157.5t21 158t58 111t86.5 66t106.5 22q77 0 137 -39v33h386v-112h-250v-191h191v-110h-191v-175h250v-112h-386v32q-30 -20 -64.5 -29t-72.5 -9zM304 113q27 0 51 12.5t42 40.5t28 73t10 110q0 66 -10.5 111
t-28 72.5t-41.5 40t-51 12.5t-51 -12.5t-41.5 -40t-28 -72.5t-10.5 -111q0 -65 10.5 -110t28 -73t41.5 -40.5t51 -12.5z" />
    <glyph glyph-name="oe" unicode="&#x153;" horiz-adv-x="705" 
d="M423 224v-5q3 -34 12 -56.5t22 -36t28 -19.5t30 -6q25 0 43.5 9.5t30.5 21.5q14 13 24 31l64 -69q-15 -28 -40 -50q-21 -19 -55.5 -34.5t-84.5 -15.5q-42 0 -77 13.5t-61 40.5q-51 -54 -134 -54q-48 0 -84.5 18t-61 50.5t-37.5 78t-13 101.5q0 55 13 100.5t38 77.5
t61.5 50t83.5 18q42 0 74.5 -13.5t56.5 -38.5q25 25 59.5 38.5t80.5 13.5q47 0 80 -16.5t54 -46t31 -71t10 -90.5v-40h-248zM225 108q38 0 53.5 35t15.5 98t-16 98t-53 35t-53 -35t-16 -98t15.5 -98t53.5 -35zM549 297q0 40 -13.5 64t-46.5 24q-26 0 -43.5 -21t-20.5 -67
h124z" />
    <glyph glyph-name="Racute" unicode="&#x154;" 
d="M182 775l70 193h152l-111 -193h-111zM566 2q-7 -2 -17 -4q-17 -3 -51 -3q-48 0 -77 20t-47 49.5t-29.5 64t-24 64t-30.5 49.5t-49 20h-46v-262h-135v700h216q115 0 174 -51t59 -169q0 -39 -9.5 -68.5t-24.5 -51.5t-32 -36.5t-32 -21.5q21 -22 33 -55.5t24 -64.5t28 -53
t44 -22h26v-105zM260 366q51 0 83.5 28t32.5 82q0 53 -27.5 82.5t-78.5 29.5h-75v-222h65z" />
    <glyph glyph-name="racute" unicode="&#x155;" horiz-adv-x="364" 
d="M83 557l70 193h152l-111 -193h-111zM63 0v339q0 20 -6.5 31.5t-26.5 11.5v98q5 1 13 3q7 2 16.5 3t23.5 1q32 0 50 -12t27 -27t11 -28.5t2 -16.5v-2q4 15 12 30.5t22 28t35 20.5t50 8q17 0 30 -3t22 -7q11 -4 18 -9l-53 -115q-5 3 -13 7q-7 3 -17.5 5.5t-24.5 2.5
q-17 0 -29 -9t-19 -23t-10.5 -30t-4.5 -31v-276h-128z" />
    <glyph glyph-name="uni0156" unicode="&#x156;" 
d="M203 -117q0 32 21.5 55t51.5 23q32 0 56.5 -22t24.5 -67q0 -54 -17.5 -87.5t-37.5 -53.5q-24 -23 -54 -35l-34 56q18 7 31 16q11 8 20.5 17.5t10.5 20.5q-30 0 -51.5 22.5t-21.5 54.5zM566 2q-7 -2 -17 -4q-17 -3 -51 -3q-48 0 -77 20t-47 49.5t-29.5 64t-24 64
t-30.5 49.5t-49 20h-46v-262h-135v700h216q115 0 174 -51t59 -169q0 -39 -9.5 -68.5t-24.5 -51.5t-32 -36.5t-32 -21.5q21 -22 33 -55.5t24 -64.5t28 -53t44 -22h26v-105zM260 366q51 0 83.5 28t32.5 82q0 53 -27.5 82.5t-78.5 29.5h-75v-222h65z" />
    <glyph glyph-name="uni0157" unicode="&#x157;" horiz-adv-x="364" 
d="M51 -117q0 32 21.5 55t51.5 23q32 0 56.5 -22t24.5 -67q0 -54 -17.5 -87.5t-37.5 -53.5q-24 -23 -54 -35l-34 56q18 7 31 16q11 8 20.5 17.5t10.5 20.5q-30 0 -51.5 22.5t-21.5 54.5zM63 0v339q0 20 -6.5 31.5t-26.5 11.5v98q5 1 13 3q7 2 16.5 3t23.5 1q32 0 50 -12
t27 -27t11 -28.5t2 -16.5v-2q4 15 12 30.5t22 28t35 20.5t50 8q17 0 30 -3t22 -7q11 -4 18 -9l-53 -115q-5 3 -13 7q-7 3 -17.5 5.5t-24.5 2.5q-17 0 -29 -9t-19 -23t-10.5 -30t-4.5 -31v-276h-128z" />
    <glyph glyph-name="Rcaron" unicode="&#x158;" 
d="M198 968l35 -98l35 98h111l-77 -193h-138l-76 193h110zM566 2q-7 -2 -17 -4q-17 -3 -51 -3q-48 0 -77 20t-47 49.5t-29.5 64t-24 64t-30.5 49.5t-49 20h-46v-262h-135v700h216q115 0 174 -51t59 -169q0 -39 -9.5 -68.5t-24.5 -51.5t-32 -36.5t-32 -21.5q21 -22 33 -55.5
t24 -64.5t28 -53t44 -22h26v-105zM260 366q51 0 83.5 28t32.5 82q0 53 -27.5 82.5t-78.5 29.5h-75v-222h65z" />
    <glyph glyph-name="rcaron" unicode="&#x159;" horiz-adv-x="364" 
d="M158 750l35 -98l35 98h111l-77 -193h-138l-76 193h110zM63 0v339q0 20 -6.5 31.5t-26.5 11.5v98q5 1 13 3q7 2 16.5 3t23.5 1q32 0 50 -12t27 -27t11 -28.5t2 -16.5v-2q4 15 12 30.5t22 28t35 20.5t50 8q17 0 30 -3t22 -7q11 -4 18 -9l-53 -115q-5 3 -13 7
q-7 3 -17.5 5.5t-24.5 2.5q-17 0 -29 -9t-19 -23t-10.5 -30t-4.5 -31v-276h-128z" />
    <glyph glyph-name="Sacute" unicode="&#x15a;" horiz-adv-x="524" 
d="M197 775l70 193h152l-111 -193h-111zM396 507q-10 23 -28 41q-15 16 -39 29t-58 13q-38 0 -61 -23.5t-23 -58.5q0 -38 23 -57t57 -31.5t74.5 -24t74.5 -33.5t57 -61t23 -106q0 -38 -12.5 -74t-40 -64t-71 -45.5t-104.5 -17.5q-72 0 -120 22.5t-77 49.5q-33 32 -52 73
l80 78q17 -31 41 -55q20 -20 49.5 -37t67.5 -17q45 0 70.5 22t25.5 61q0 41 -23 61.5t-58 33t-75 23t-75 32t-58 60t-23 106.5q0 40 14.5 76t42.5 63.5t69 43.5t94 16q70 0 114 -21t70 -47q30 -30 45 -67z" />
    <glyph glyph-name="sacute" unicode="&#x15b;" horiz-adv-x="428" 
d="M147 557l70 193h152l-111 -193h-111zM275 304q0 5 1 10t1.5 11t0.5 14q0 22 -12.5 36t-43.5 14q-26 0 -40 -13.5t-14 -37.5q0 -25 17 -36.5t43 -18.5t56 -13t56 -19.5t43 -38t17 -68.5q0 -69 -45 -109.5t-141 -40.5q-60 0 -98 15.5t-60 34.5q-26 22 -39 51l71 73
q13 -21 31 -37q15 -14 37 -25t51 -11q30 0 41 11.5t11 31.5t-16.5 29.5t-40.5 16t-53 14t-53 23t-40.5 42t-16.5 72.5q0 29 9.5 56.5t31 49t56 34.5t84.5 13t83.5 -11.5t53.5 -31t28.5 -44.5t8.5 -51q0 -11 -1 -19t-3 -14q-2 -7 -4 -13h-111z" />
    <glyph glyph-name="Scircumflex" unicode="&#x15c;" horiz-adv-x="524" 
d="M99 756l77 193h137l77 -193h-110l-36 98l-35 -98h-110zM396 507q-10 23 -28 41q-15 16 -39 29t-58 13q-38 0 -61 -23.5t-23 -58.5q0 -38 23 -57t57 -31.5t74.5 -24t74.5 -33.5t57 -61t23 -106q0 -38 -12.5 -74t-40 -64t-71 -45.5t-104.5 -17.5q-72 0 -120 22.5t-77 49.5
q-33 32 -52 73l80 78q17 -31 41 -55q20 -20 49.5 -37t67.5 -17q45 0 70.5 22t25.5 61q0 41 -23 61.5t-58 33t-75 23t-75 32t-58 60t-23 106.5q0 40 14.5 76t42.5 63.5t69 43.5t94 16q70 0 114 -21t70 -47q30 -30 45 -67z" />
    <glyph glyph-name="scircumflex" unicode="&#x15d;" horiz-adv-x="428" 
d="M79 538l77 193h137l77 -193h-110l-36 98l-35 -98h-110zM275 304q0 5 1 10t1.5 11t0.5 14q0 22 -12.5 36t-43.5 14q-26 0 -40 -13.5t-14 -37.5q0 -25 17 -36.5t43 -18.5t56 -13t56 -19.5t43 -38t17 -68.5q0 -69 -45 -109.5t-141 -40.5q-60 0 -98 15.5t-60 34.5
q-26 22 -39 51l71 73q13 -21 31 -37q15 -14 37 -25t51 -11q30 0 41 11.5t11 31.5t-16.5 29.5t-40.5 16t-53 14t-53 23t-40.5 42t-16.5 72.5q0 29 9.5 56.5t31 49t56 34.5t84.5 13t83.5 -11.5t53.5 -31t28.5 -44.5t8.5 -51q0 -11 -1 -19t-3 -14q-2 -7 -4 -13h-111z" />
    <glyph glyph-name="Scedilla" unicode="&#x15e;" horiz-adv-x="524" 
d="M396 507q-10 23 -28 41q-15 16 -39 29t-58 13q-38 0 -61 -23.5t-23 -58.5q0 -38 23 -57t57 -31.5t74.5 -24t74.5 -33.5t57 -61t23 -106q0 -35 -10.5 -68.5t-33 -61t-58.5 -46t-86 -23.5l-10 -25q18 0 37 -18t19 -55q0 -22 -7.5 -38t-20 -26.5t-29 -15.5t-33.5 -5
q-21 0 -37 6t-27 14q-13 9 -22 20l28 49q6 -8 15 -14q8 -5 17.5 -9.5t22.5 -4.5q31 0 31 27q0 12 -13.5 22.5t-53.5 10.5l22 61q-66 4 -110 27t-70 49q-31 31 -48 68l80 78q18 -31 44 -55q22 -20 53 -37t72 -17q40 0 62.5 22t22.5 61q0 41 -23 61.5t-58 33t-75 23t-75 32
t-58 60t-23 106.5q0 40 14.5 76t42.5 63.5t69 43.5t94 16q70 0 114 -21t70 -47q30 -30 45 -67z" />
    <glyph glyph-name="scedilla" unicode="&#x15f;" horiz-adv-x="428" 
d="M275 304q0 5 1 10t1.5 11t0.5 14q0 22 -12.5 36t-43.5 14q-26 0 -40 -13.5t-14 -37.5q0 -25 17 -36.5t43 -18.5t56 -13t56 -19.5t43 -38t17 -68.5q0 -61 -35.5 -100t-109.5 -47l-10 -26q9 0 18.5 -4.5t17.5 -13.5t13.5 -23t5.5 -32q0 -22 -7.5 -38t-20 -26.5t-29 -15.5
t-33.5 -5q-21 0 -37 6t-27 14q-13 9 -22 20l29 47q6 -9 15 -15q8 -5 17.5 -9.5t22.5 -4.5q17 0 25.5 8t8.5 22q0 13 -13 24t-53 11l20 59q-54 2 -88.5 18t-54.5 34q-24 21 -36 48l71 73q13 -21 31 -37q15 -14 37 -25t51 -11q30 0 41 11.5t11 31.5t-16.5 29.5t-40.5 16
t-53 14t-53 23t-40.5 42t-16.5 72.5q0 29 9.5 56.5t31 49t56 34.5t84.5 13t83.5 -11.5t53.5 -31t28.5 -44.5t8.5 -51q0 -11 -1 -19t-3 -14q-2 -7 -4 -13h-111z" />
    <glyph glyph-name="Scaron" unicode="&#x160;" horiz-adv-x="524" 
d="M230 968l35 -98l35 98h111l-77 -193h-138l-76 193h110zM396 507q-10 23 -28 41q-15 16 -39 29t-58 13q-38 0 -61 -23.5t-23 -58.5q0 -38 23 -57t57 -31.5t74.5 -24t74.5 -33.5t57 -61t23 -106q0 -38 -12.5 -74t-40 -64t-71 -45.5t-104.5 -17.5q-72 0 -120 22.5t-77 49.5
q-33 32 -52 73l80 78q17 -31 41 -55q20 -20 49.5 -37t67.5 -17q45 0 70.5 22t25.5 61q0 41 -23 61.5t-58 33t-75 23t-75 32t-58 60t-23 106.5q0 40 14.5 76t42.5 63.5t69 43.5t94 16q70 0 114 -21t70 -47q30 -30 45 -67z" />
    <glyph glyph-name="scaron" unicode="&#x161;" horiz-adv-x="428" 
d="M180 750l35 -98l35 98h111l-77 -193h-138l-76 193h110zM275 304q0 5 1 10t1.5 11t0.5 14q0 22 -12.5 36t-43.5 14q-26 0 -40 -13.5t-14 -37.5q0 -25 17 -36.5t43 -18.5t56 -13t56 -19.5t43 -38t17 -68.5q0 -69 -45 -109.5t-141 -40.5q-60 0 -98 15.5t-60 34.5
q-26 22 -39 51l71 73q13 -21 31 -37q15 -14 37 -25t51 -11q30 0 41 11.5t11 31.5t-16.5 29.5t-40.5 16t-53 14t-53 23t-40.5 42t-16.5 72.5q0 29 9.5 56.5t31 49t56 34.5t84.5 13t83.5 -11.5t53.5 -31t28.5 -44.5t8.5 -51q0 -11 -1 -19t-3 -14q-2 -7 -4 -13h-111z" />
    <glyph glyph-name="uni0162" unicode="&#x162;" horiz-adv-x="550" 
d="M193 -117q0 32 21.5 55t51.5 23q32 0 56.5 -22t24.5 -67q0 -54 -17.5 -87.5t-37.5 -53.5q-24 -23 -54 -35l-34 56q18 7 31 16q11 8 20.5 17.5t10.5 20.5q-30 0 -51.5 22.5t-21.5 54.5zM212 0v588h-202v112h530v-112h-193v-588h-135z" />
    <glyph glyph-name="uni0163" unicode="&#x163;" horiz-adv-x="380" 
d="M119 -145q0 32 21.5 55t51.5 23q32 0 56.5 -22t24.5 -67q0 -54 -17.5 -87.5t-37.5 -53.5q-24 -23 -54 -35l-34 56q18 7 31 16q11 8 20.5 17.5t10.5 20.5q-30 0 -51.5 22.5t-21.5 54.5zM369 43q-13 -14 -30 -25q-14 -9 -35 -16.5t-46 -7.5q-96 0 -136 55t-40 156v174h-62
v103h62v151h128v-151h136v-103h-136v-168q0 -102 62 -102q14 0 25 4.5t19 9.5q9 6 16 14z" />
    <glyph glyph-name="Tcaron" unicode="&#x164;" horiz-adv-x="550" 
d="M230 968l35 -98l35 98h111l-77 -193h-138l-76 193h110zM212 0v588h-202v112h530v-112h-193v-588h-135z" />
    <glyph glyph-name="tcaron" unicode="&#x165;" horiz-adv-x="380" 
d="M225 695q0 32 21.5 55t51.5 23q32 0 56.5 -22t24.5 -67q0 -54 -17.5 -87.5t-37.5 -53.5q-24 -23 -54 -35l-34 56q18 7 31 16q11 8 20.5 17.5t10.5 20.5q-30 0 -51.5 22.5t-21.5 54.5zM369 43q-13 -14 -30 -25q-14 -9 -35 -16.5t-46 -7.5q-96 0 -136 55t-40 156v174h-62
v103h62v151h128v-151h136v-103h-136v-168q0 -102 62 -102q14 0 25 4.5t19 9.5q9 6 16 14z" />
    <glyph glyph-name="Tbar" unicode="&#x166;" horiz-adv-x="559" 
d="M103 437h111v151h-201v112h532v-112h-194v-151h111v-102h-111v-335h-137v335h-111v102z" />
    <glyph glyph-name="tbar" unicode="&#x167;" horiz-adv-x="380" 
d="M369 43q-13 -14 -30 -25q-14 -9 -35 -16.5t-46 -7.5q-96 0 -136 55t-40 156v16h-43v91h43v67h-62v103h62v151h128v-151h136v-103h-136v-67h104v-91h-104v-10q0 -102 62 -102q14 0 25 4.5t19 9.5q9 6 16 14z" />
    <glyph glyph-name="Utilde" unicode="&#x168;" 
d="M388 700h136v-411q0 -84 -18.5 -140.5t-50.5 -91t-74.5 -49t-90.5 -14.5t-91 14.5t-75.5 49t-51 91t-18.5 140.5v411h136v-421q0 -37 5 -67t16.5 -51.5t30.5 -33t48 -11.5q56 0 77 44.5t21 118.5v421zM127 755q-4 6 -7 15q-7 17 -7 44q0 38 21.5 66t66.5 28q22 0 42 -6.5
t37.5 -14t33 -13.5t29.5 -6q10 0 14 6.5t4 16.5q0 8 -2.5 16t-4.5 14l-6 14h85q3 -8 6 -18q2 -8 4 -18.5t2 -22.5q0 -38 -21 -67t-64 -29q-26 0 -46.5 6.5t-37.5 14t-30.5 14t-25.5 6.5q-10 0 -16 -7.5t-6 -19.5q0 -9 2 -16.5t4 -12.5q3 -6 7 -10h-84z" />
    <glyph glyph-name="utilde" unicode="&#x169;" horiz-adv-x="485" 
d="M455 2q-7 -2 -15 -4q-15 -3 -41 -3q-32 0 -50 11t-27 25.5t-11.5 27.5t-2.5 16v1q-6 -14 -16 -28.5t-25.5 -26.5t-38 -19.5t-52.5 -7.5q-37 0 -62 12.5t-40 35.5t-21.5 55t-6.5 71v314h128v-285q0 -48 14 -68t39 -20q19 0 31.5 11t20 26.5t11 33.5t3.5 32v270h128v-339
q0 -20 7 -31.5t27 -11.5v-98zM81 546q-4 6 -7 15q-7 17 -7 44q0 38 21.5 66t66.5 28q22 0 42 -6.5t37.5 -14t33 -13.5t29.5 -6q10 0 14 6.5t4 16.5q0 8 -2.5 16t-4.5 14l-6 14h85q3 -8 6 -18q2 -8 4 -18.5t2 -22.5q0 -38 -21 -67t-64 -29q-26 0 -46.5 6.5t-37.5 14t-30.5 14
t-25.5 6.5q-10 0 -16 -7.5t-6 -19.5q0 -9 2 -16.5t4 -12.5q3 -6 7 -10h-84z" />
    <glyph glyph-name="Umacron" unicode="&#x16a;" 
d="M388 700h136v-411q0 -84 -18.5 -140.5t-50.5 -91t-74.5 -49t-90.5 -14.5t-91 14.5t-75.5 49t-51 91t-18.5 140.5v411h136v-421q0 -37 5 -67t16.5 -51.5t30.5 -33t48 -11.5q56 0 77 44.5t21 118.5v421zM140 792v93h290v-93h-290z" />
    <glyph glyph-name="umacron" unicode="&#x16b;" horiz-adv-x="485" 
d="M455 2q-7 -2 -15 -4q-15 -3 -41 -3q-32 0 -50 11t-27 25.5t-11.5 27.5t-2.5 16v1q-6 -14 -16 -28.5t-25.5 -26.5t-38 -19.5t-52.5 -7.5q-37 0 -62 12.5t-40 35.5t-21.5 55t-6.5 71v314h128v-285q0 -48 14 -68t39 -20q19 0 31.5 11t20 26.5t11 33.5t3.5 32v270h128v-339
q0 -20 7 -31.5t27 -11.5v-98zM82 574v93h290v-93h-290z" />
    <glyph glyph-name="Ubreve" unicode="&#x16c;" 
d="M388 700h136v-411q0 -84 -18.5 -140.5t-50.5 -91t-74.5 -49t-90.5 -14.5t-91 14.5t-75.5 49t-51 91t-18.5 140.5v411h136v-421q0 -37 5 -67t16.5 -51.5t30.5 -33t48 -11.5q56 0 77 44.5t21 118.5v421zM422 922q0 -29 -6 -56t-21.5 -47.5t-41.5 -33t-65 -12.5
q-40 0 -66 12.5t-41.5 33t-21.5 47.5t-6 56h93q0 -32 10 -46.5t31 -15.5q42 0 42 62h93z" />
    <glyph glyph-name="ubreve" unicode="&#x16d;" horiz-adv-x="485" 
d="M455 2q-7 -2 -15 -4q-15 -3 -41 -3q-32 0 -50 11t-27 25.5t-11.5 27.5t-2.5 16v1q-6 -14 -16 -28.5t-25.5 -26.5t-38 -19.5t-52.5 -7.5q-37 0 -62 12.5t-40 35.5t-21.5 55t-6.5 71v314h128v-285q0 -48 14 -68t39 -20q19 0 31.5 11t20 26.5t11 33.5t3.5 32v270h128v-339
q0 -20 7 -31.5t27 -11.5v-98zM360 704q0 -29 -6 -56t-21.5 -47.5t-41.5 -33t-65 -12.5q-40 0 -66 12.5t-41.5 33t-21.5 47.5t-6 56h93q0 -32 10 -46.5t31 -15.5q42 0 42 62h93z" />
    <glyph glyph-name="Uring" unicode="&#x16e;" 
d="M285 768q-20 0 -36.5 7.5t-28.5 21t-19 31.5t-7 39q0 43 26 71.5t65 28.5q19 0 35.5 -7.5t29 -21t19.5 -32t7 -39.5t-7 -39t-19.5 -31.5t-29 -21t-35.5 -7.5zM318 867q0 17 -9.5 28t-23.5 11t-23.5 -11t-9.5 -28t9.5 -27.5t23.5 -10.5t23.5 10.5t9.5 27.5zM388 700h136
v-411q0 -84 -18.5 -140.5t-50.5 -91t-74.5 -49t-90.5 -14.5t-91 14.5t-75.5 49t-51 91t-18.5 140.5v411h136v-421q0 -37 5 -67t16.5 -51.5t30.5 -33t48 -11.5q56 0 77 44.5t21 118.5v421z" />
    <glyph glyph-name="uring" unicode="&#x16f;" horiz-adv-x="485" 
d="M224 550q-20 0 -36.5 7.5t-28.5 21t-19 31.5t-7 39q0 43 26 71.5t65 28.5q19 0 35.5 -7.5t29 -21t19.5 -32t7 -39.5t-7 -39t-19.5 -31.5t-29 -21t-35.5 -7.5zM257 649q0 17 -9.5 28t-23.5 11t-23.5 -11t-9.5 -28t9.5 -27.5t23.5 -10.5t23.5 10.5t9.5 27.5zM455 2
q-7 -2 -15 -4q-15 -3 -41 -3q-32 0 -50 11t-27 25.5t-11.5 27.5t-2.5 16v1q-6 -14 -16 -28.5t-25.5 -26.5t-38 -19.5t-52.5 -7.5q-37 0 -62 12.5t-40 35.5t-21.5 55t-6.5 71v314h128v-285q0 -48 14 -68t39 -20q19 0 31.5 11t20 26.5t11 33.5t3.5 32v270h128v-339
q0 -20 7 -31.5t27 -11.5v-98z" />
    <glyph glyph-name="Uhungarumlaut" unicode="&#x170;" 
d="M388 700h136v-411q0 -84 -18.5 -140.5t-50.5 -91t-74.5 -49t-90.5 -14.5t-91 14.5t-75.5 49t-51 91t-18.5 140.5v411h136v-421q0 -37 5 -67t16.5 -51.5t30.5 -33t48 -11.5q56 0 77 44.5t21 118.5v421zM129 775l69 193h153l-112 -193h-110zM306 775l69 193h152l-111 -193
h-110z" />
    <glyph glyph-name="uhungarumlaut" unicode="&#x171;" horiz-adv-x="485" 
d="M455 2q-7 -2 -15 -4q-15 -3 -41 -3q-32 0 -50 11t-27 25.5t-11.5 27.5t-2.5 16v1q-6 -14 -16 -28.5t-25.5 -26.5t-38 -19.5t-52.5 -7.5q-37 0 -62 12.5t-40 35.5t-21.5 55t-6.5 71v314h128v-285q0 -48 14 -68t39 -20q19 0 31.5 11t20 26.5t11 33.5t3.5 32v270h128v-339
q0 -20 7 -31.5t27 -11.5v-98zM85 557l69 193h153l-112 -193h-110zM262 557l69 193h152l-111 -193h-110z" />
    <glyph glyph-name="Uogonek" unicode="&#x172;" 
d="M388 700h136v-411q0 -74 -14.5 -126.5t-39.5 -87t-59.5 -53t-73.5 -24.5q-6 -3 -15 -9t-17 -15t-14 -21.5t-6 -28.5q0 -17 9 -28t26 -11q11 0 19.5 4t13.5 9q6 6 11 14l28 -56q-10 -11 -22 -20q-11 -8 -26.5 -13.5t-36.5 -5.5q-17 0 -33 5t-28.5 15.5t-20 26.5t-7.5 39
q0 31 9.5 53.5t23.5 39.5q-41 4 -77 22t-63 53t-42 88.5t-15 129.5v411h136v-421q0 -37 5 -67t16.5 -51.5t30.5 -33t48 -11.5q56 0 77 44.5t21 118.5v421z" />
    <glyph glyph-name="uogonek" unicode="&#x173;" horiz-adv-x="485" 
d="M484 -144q-10 -11 -22 -20q-11 -8 -27 -13.5t-36 -5.5q-17 0 -33 5t-28.5 15.5t-20 26.5t-7.5 39q0 35 13 59.5t30 41.5q-15 7 -24 18t-13.5 22t-6 19.5t-1.5 11.5v1q-6 -14 -16 -28.5t-25.5 -26.5t-38 -19.5t-52.5 -7.5q-37 0 -62 12.5t-40 35.5t-21.5 55t-6.5 71v314
h128v-285q0 -48 14 -68t39 -20q19 0 31.5 11t20 26.5t11 33.5t3.5 32v270h128v-339q0 -20 7 -31.5t27 -11.5v-98l-8 -2t-9.5 -2t-12.5 -2q-7 -3 -15 -9t-15.5 -15t-12.5 -21t-5 -27q0 -17 9 -28t26 -11q11 0 19 4t13 9q6 6 11 14z" />
    <glyph glyph-name="Wcircumflex" unicode="&#x174;" horiz-adv-x="881" 
d="M293 756l77 193h137l77 -193h-110l-36 98l-35 -98h-110zM615 157l104 543h153l-171 -700h-159l-100 467l-103 -467h-159l-171 700h159l97 -543l122 543h113z" />
    <glyph glyph-name="wcircumflex" unicode="&#x175;" horiz-adv-x="705" 
d="M192 538l77 193h137l77 -193h-110l-36 98l-35 -98h-110zM422 0l-64 282l-75 -282h-130l-141 482h136l71 -332l83 330h120l65 -330l71 332h134l-140 -482h-130z" />
    <glyph glyph-name="Ycircumflex" unicode="&#x176;" horiz-adv-x="580" 
d="M220 0v293l-219 407h158l131 -290l131 290h158l-219 -407v-293h-140zM141 756l77 193h137l77 -193h-110l-36 98l-35 -98h-110z" />
    <glyph glyph-name="ycircumflex" unicode="&#x177;" horiz-adv-x="467" 
d="M268 -101q-11 -31 -26.5 -57.5t-37.5 -46t-50 -31t-63 -11.5q-19 0 -33 2.5t-25 6.5q-12 4 -22 10l17 102q7 -3 16 -5q17 -5 38 -5q33 0 50 22.5t27 52.5l14 61l-166 482h137l94 -326l83 326h135zM82 538l77 193h137l77 -193h-110l-36 98l-35 -98h-110z" />
    <glyph glyph-name="Ydieresis" unicode="&#x178;" horiz-adv-x="580" 
d="M220 0v293l-219 407h158l131 -290l131 290h158l-219 -407v-293h-140zM200 789q-26 0 -45 19t-19 48q0 27 19 47t45 20t44.5 -20t18.5 -47q0 -29 -18.5 -48t-44.5 -19zM382 789q-26 0 -45 19t-19 48q0 27 19 47t45 20t44.5 -20t18.5 -47q0 -29 -18.5 -48t-44.5 -19z" />
    <glyph glyph-name="Zacute" unicode="&#x179;" horiz-adv-x="529" 
d="M179 775l70 193h152l-111 -193h-111zM34 0v112l296 476h-296v112h461v-112l-291 -476h291v-112h-461z" />
    <glyph glyph-name="zacute" unicode="&#x17a;" horiz-adv-x="418" 
d="M159 557l70 193h152l-111 -193h-111zM34 0v103l200 276h-200v103h351v-103l-194 -276h194v-103h-351z" />
    <glyph glyph-name="Zdotaccent" unicode="&#x17b;" horiz-adv-x="529" 
d="M34 0v112l296 476h-296v112h461v-112l-291 -476h291v-112h-461zM281 803q-26 0 -44.5 19t-18.5 48q0 28 18.5 47.5t44.5 19.5t45 -19.5t19 -47.5q0 -29 -19 -48t-45 -19z" />
    <glyph glyph-name="zdotaccent" unicode="&#x17c;" horiz-adv-x="418" 
d="M34 0v103l200 276h-200v103h351v-103l-194 -276h194v-103h-351zM262 585q-26 0 -44.5 19t-18.5 48q0 28 18.5 47.5t44.5 19.5t45 -19.5t19 -47.5q0 -29 -19 -48t-45 -19z" />
    <glyph glyph-name="Zcaron" unicode="&#x17d;" horiz-adv-x="529" 
d="M235 968l35 -98l35 98h111l-77 -193h-138l-76 193h110zM34 0v112l296 476h-296v112h461v-112l-291 -476h291v-112h-461z" />
    <glyph glyph-name="zcaron" unicode="&#x17e;" horiz-adv-x="418" 
d="M191 750l35 -98l35 98h111l-77 -193h-138l-76 193h110zM34 0v103l200 276h-200v103h351v-103l-194 -276h194v-103h-351z" />
    <glyph glyph-name="longs" unicode="&#x17f;" horiz-adv-x="275" 
d="M82 0v379h-60v103h60v47q0 45 10 82t31 63.5t53.5 41.5t77.5 15q26 0 45.5 -7t33.5 -15q16 -10 27 -21l-40 -96q-5 7 -13 12q-7 5 -16.5 8.5t-22.5 3.5q-30 0 -44 -24t-14 -69v-523h-128z" />
    <glyph glyph-name="florin" unicode="&#x192;" horiz-adv-x="385" 
d="M222 -46q0 -45 -10 -82t-31 -63.5t-53.5 -41t-77.5 -14.5q-26 0 -45.5 6.5t-33.5 14.5q-16 9 -27 21l39 97l3.5 -4t10 -8.5t16.5 -8.5t23 -4q30 0 43.5 24.5t13.5 68.5v419h-59v103h59v47q0 45 10 82t31 63.5t53.5 41.5t77.5 15q26 0 45.5 -7t33.5 -15q16 -10 27 -21
l-40 -96l-3.5 4t-10 8.5t-16 8t-22.5 3.5q-30 0 -43.5 -24t-13.5 -69v-41h123v-103h-123v-425z" />
    <glyph glyph-name="AEacute" unicode="&#x1fc;" horiz-adv-x="747" 
d="M346 775l70 193h152l-111 -193h-111zM390 175h-198l-47 -175h-142l219 700h492v-112h-314l54 -191h199v-110h-160l46 -175h175v-112h-276zM227 280h129l-65 254z" />
    <glyph glyph-name="aeacute" unicode="&#x1fd;" horiz-adv-x="683" 
d="M271 557l70 193h152l-111 -193h-111zM401 224v-5q3 -33 11.5 -55.5t21 -36.5t28 -20t31.5 -6q24 0 42.5 9.5t30.5 21.5q14 13 24 31l65 -69q-15 -28 -40 -50q-22 -19 -56 -34.5t-85 -15.5t-97 26.5t-74 78.5q-2 -6 -9 -23t-23.5 -35t-43.5 -32.5t-68 -14.5
q-64 0 -99.5 36t-35.5 93q0 64 38 99t126 35h83v58q0 39 -13.5 56.5t-39.5 17.5q-25 0 -38 -16t-13 -44q0 -9 0.5 -15t1.5 -10t3 -8h-114q-3 5 -5 13q-2 7 -3 17t-1 24q0 61 43.5 99.5t129.5 38.5q82 0 128 -49q25 23 57 36t67 13q47 0 80 -16.5t54 -46t31 -71t10 -90.5v-40
h-248zM528 297q0 37 -13 62.5t-47 25.5q-28 0 -45 -21.5t-20 -66.5h125zM271 188h-62q-29 0 -42.5 -12.5t-13.5 -35.5t13.5 -35t33.5 -12q21 0 35 12t22 26q10 17 14 38v19z" />
    <glyph glyph-name="Oslashacute" unicode="&#x1fe;" horiz-adv-x="607" 
d="M36 -16q19 31 33 56l22 38.5t8 17.5q-32 44 -49.5 106.5t-17.5 146.5q0 91 21 158t58 111t86.5 66t106.5 22q65 0 118 -31q-2 0 1.5 6t7.5 14q4 9 11 21h127l-63 -110q32 -45 51 -108.5t19 -148.5q0 -91 -21.5 -157.5t-58 -110.5t-86 -65.5t-106.5 -21.5q-67 0 -120 31
l-21 -41h-127zM304 113q27 0 51 12.5t41.5 40.5t28 73t10.5 110q0 39 -3.5 69.5t-9.5 55.5l-176 -340q25 -21 58 -21zM172 349q0 -38 3.5 -68.5t8.5 -55.5l176 339q-26 21 -56 21q-27 0 -51 -12.5t-42 -40t-28.5 -72.5t-10.5 -111zM251 775l70 193h152l-111 -193h-111z" />
    <glyph glyph-name="oslashacute" unicode="&#x1ff;" horiz-adv-x="450" 
d="M336 504q-1 0 11.5 -0.5t27.5 -0.5h39l-45 -82q52 -66 52 -179q0 -56 -13 -101.5t-37.5 -78t-61 -50.5t-84.5 -18q-46 0 -83 17l-17 -30l-81 -1q6 9 12 20q10 19 30 54q-29 33 -43 80.5t-14 107.5q0 55 13 100.5t38 77.5t61.5 50t83.5 18q49 0 90 -22q5 8 8.5 15.5
t6.5 12.5q4 6 6 10zM156 241q0 -31 3 -55q25 45 50.5 90.5t48.5 86.5q-14 11 -33 11q-37 0 -53 -35t-16 -98zM225 108q38 0 53.5 35t15.5 98q0 11 -0.5 21.5t-1.5 19.5l-94 -168q12 -6 27 -6zM145 557l70 193h152l-111 -193h-111z" />
    <glyph glyph-name="uni0218" unicode="&#x218;" horiz-adv-x="524" 
d="M192 -117q0 32 21.5 55t51.5 23q32 0 56.5 -22t24.5 -67q0 -54 -17.5 -87.5t-37.5 -53.5q-24 -23 -54 -35l-34 56q18 7 31 16q11 8 20.5 17.5t10.5 20.5q-30 0 -51.5 22.5t-21.5 54.5zM396 507q-10 23 -28 41q-15 16 -39 29t-58 13q-38 0 -61 -23.5t-23 -58.5
q0 -38 23 -57t57 -31.5t74.5 -24t74.5 -33.5t57 -61t23 -106q0 -38 -12.5 -74t-40 -64t-71 -45.5t-104.5 -17.5q-72 0 -120 22.5t-77 49.5q-33 32 -52 73l80 78q17 -31 41 -55q20 -20 49.5 -37t67.5 -17q45 0 70.5 22t25.5 61q0 41 -23 61.5t-58 33t-75 23t-75 32t-58 60
t-23 106.5q0 40 14.5 76t42.5 63.5t69 43.5t94 16q70 0 114 -21t70 -47q30 -30 45 -67z" />
    <glyph glyph-name="uni0219" unicode="&#x219;" horiz-adv-x="428" 
d="M150 -117q0 32 21.5 55t51.5 23q32 0 56.5 -22t24.5 -67q0 -54 -17.5 -87.5t-37.5 -53.5q-24 -23 -54 -35l-34 56q18 7 31 16q11 8 20.5 17.5t10.5 20.5q-30 0 -51.5 22.5t-21.5 54.5zM275 304q0 5 1 10t1.5 11t0.5 14q0 22 -12.5 36t-43.5 14q-26 0 -40 -13.5t-14 -37.5
q0 -25 17 -36.5t43 -18.5t56 -13t56 -19.5t43 -38t17 -68.5q0 -69 -45 -109.5t-141 -40.5q-60 0 -98 15.5t-60 34.5q-26 22 -39 51l71 73q13 -21 31 -37q15 -14 37 -25t51 -11q30 0 41 11.5t11 31.5t-16.5 29.5t-40.5 16t-53 14t-53 23t-40.5 42t-16.5 72.5q0 29 9.5 56.5
t31 49t56 34.5t84.5 13t83.5 -11.5t53.5 -31t28.5 -44.5t8.5 -51q0 -11 -1 -19t-3 -14q-2 -7 -4 -13h-111z" />
    <glyph glyph-name="uni021A" unicode="&#x21a;" horiz-adv-x="550" 
d="M195 -117q0 32 21.5 55t51.5 23q32 0 56.5 -22t24.5 -67q0 -54 -17.5 -87.5t-37.5 -53.5q-24 -23 -54 -35l-34 56q18 7 31 16q11 8 20.5 17.5t10.5 20.5q-30 0 -51.5 22.5t-21.5 54.5zM212 0v588h-202v112h530v-112h-193v-588h-135z" />
    <glyph glyph-name="uni021B" unicode="&#x21b;" horiz-adv-x="380" 
d="M116 -117q0 32 21.5 55t51.5 23q32 0 56.5 -22t24.5 -67q0 -54 -17.5 -87.5t-37.5 -53.5q-24 -23 -54 -35l-34 56q18 7 31 16q11 8 20.5 17.5t10.5 20.5q-30 0 -51.5 22.5t-21.5 54.5zM369 43q-13 -14 -30 -25q-14 -9 -35 -16.5t-46 -7.5q-96 0 -136 55t-40 156v174h-62
v103h62v151h128v-151h136v-103h-136v-168q0 -102 62 -102q14 0 25 4.5t19 9.5q9 6 16 14z" />
    <glyph glyph-name="circumflex" unicode="&#x2c6;" horiz-adv-x="336" 
d="M21 538l77 193h137l77 -193h-110l-36 98l-35 -98h-110z" />
    <glyph glyph-name="caron" unicode="&#x2c7;" horiz-adv-x="315" 
d="M121 750l35 -98l35 98h111l-77 -193h-138l-76 193h110z" />
    <glyph glyph-name="breve" unicode="&#x2d8;" horiz-adv-x="311" 
d="M290 704q0 -29 -6 -56t-21.5 -47.5t-41.5 -33t-65 -12.5q-40 0 -66 12.5t-41.5 33t-21.5 47.5t-6 56h93q0 -32 10 -46.5t31 -15.5q42 0 42 62h93z" />
    <glyph glyph-name="dotaccent" unicode="&#x2d9;" horiz-adv-x="176" 
d="M88 585q-26 0 -44.5 19t-18.5 48q0 28 18.5 47.5t44.5 19.5t45 -19.5t19 -47.5q0 -29 -19 -48t-45 -19z" />
    <glyph glyph-name="ring" unicode="&#x2da;" horiz-adv-x="248" 
d="M124 550q-20 0 -36.5 7.5t-28.5 21t-19 31.5t-7 39q0 43 26 71.5t65 28.5q19 0 35.5 -7.5t29 -21t19.5 -32t7 -39.5t-7 -39t-19.5 -31.5t-29 -21t-35.5 -7.5zM157 649q0 17 -9.5 28t-23.5 11t-23.5 -11t-9.5 -28t9.5 -27.5t23.5 -10.5t23.5 10.5t9.5 27.5z" />
    <glyph glyph-name="ogonek" unicode="&#x2db;" horiz-adv-x="247" 
d="M211 -144q-10 -11 -22 -20q-11 -8 -27 -13.5t-36 -5.5q-17 0 -33 5t-28.5 15.5t-20 26.5t-7.5 39q0 42 18 69.5t40 44.5q26 19 59 30l11 -45q-18 -7 -31 -18q-11 -9 -20.5 -24t-9.5 -36q0 -17 9 -28t26 -11q11 0 19 4t13 9q6 6 11 14z" />
    <glyph glyph-name="tilde" unicode="&#x2dc;" horiz-adv-x="387" 
d="M41 546q-4 6 -7 15q-7 17 -7 44q0 38 21.5 66t66.5 28q22 0 42 -6.5t37.5 -14t33 -13.5t29.5 -6q10 0 14 6.5t4 16.5q0 8 -2.5 16t-4.5 14l-6 14h85q3 -8 6 -18q2 -8 4 -18.5t2 -22.5q0 -38 -21 -67t-64 -29q-26 0 -46.5 6.5t-37.5 14t-30.5 14t-25.5 6.5q-10 0 -16 -7.5
t-6 -19.5q0 -9 2 -16.5t4 -12.5q3 -6 7 -10h-84z" />
    <glyph glyph-name="hungarumlaut" unicode="&#x2dd;" horiz-adv-x="409" 
d="M20 557l69 193h153l-112 -193h-110zM197 557l69 193h152l-111 -193h-110z" />
    <glyph glyph-name="uni0394" unicode="&#x394;" horiz-adv-x="596" 
d="M24 0l1 113l211 587h124l211 -587v-113h-547zM297 568l-149 -455h299z" />
    <glyph glyph-name="uni03A9" unicode="&#x3a9;" horiz-adv-x="755" 
d="M74 88h137v19q-43 12 -75.5 40t-55 65.5t-34 80.5t-11.5 85q0 80 25 145t70 111.5t108 72t140 25.5q76 0 139 -25.5t108 -72t70 -111.5t25 -145q0 -42 -11.5 -85t-33.5 -80.5t-55 -65.5t-76 -40v-19h138v-90h-228v191q34 0 61 16t46 42.5t28.5 60.5t9.5 70
q0 52 -16.5 96.5t-45.5 76t-69.5 49.5t-89.5 18t-90 -18t-70.5 -49.5t-46 -76t-16.5 -96.5q0 -36 9.5 -70t28.5 -60.5t45.5 -42.5t61.5 -16v-191h-226v90z" />
    <glyph glyph-name="uni03BC" unicode="&#x3bc;" horiz-adv-x="469" 
d="M318 0l-3 74q-6 -14 -16 -28.5t-25.5 -26t-37.5 -18.5t-52 -7q-5 0 -9.5 0.5t-9.5 0.5v-239h-111v726h128v-285q0 -48 14 -68t39 -20q19 0 31.5 11t20 26.5t11 33.5t3.5 32v270h128v-482h-111z" />
    <glyph glyph-name="pi" unicode="&#x3c0;" horiz-adv-x="531" 
d="M54 102q20 0 27 11.5t7 31.5v227h-62v110h483v-110h-59v-372h-117v372h-128v-262q0 -60 -27 -87.5t-79 -27.5q-24 0 -34 3q-7 2 -11 4v100z" />
    <glyph glyph-name="Wgrave" unicode="&#x1e80;" horiz-adv-x="881" 
d="M615 157l104 543h153l-171 -700h-159l-100 467l-103 -467h-159l-171 700h159l97 -543l122 543h113zM392 775l-112 193h153l69 -193h-110z" />
    <glyph glyph-name="wgrave" unicode="&#x1e81;" horiz-adv-x="705" 
d="M422 0l-64 282l-75 -282h-130l-141 482h136l71 -332l83 330h120l65 -330l71 332h134l-140 -482h-130zM319 557l-112 193h153l69 -193h-110z" />
    <glyph glyph-name="Wacute" unicode="&#x1e82;" horiz-adv-x="881" 
d="M389 775l70 193h152l-111 -193h-111zM615 157l104 543h153l-171 -700h-159l-100 467l-103 -467h-159l-171 700h159l97 -543l122 543h113z" />
    <glyph glyph-name="wacute" unicode="&#x1e83;" horiz-adv-x="705" 
d="M307 557l70 193h152l-111 -193h-111zM422 0l-64 282l-75 -282h-130l-141 482h136l71 -332l83 330h120l65 -330l71 332h134l-140 -482h-130z" />
    <glyph glyph-name="Wdieresis" unicode="&#x1e84;" horiz-adv-x="881" 
d="M356 789q-26 0 -45 19t-19 48q0 27 19 47t45 20t44.5 -20t18.5 -47q0 -29 -18.5 -48t-44.5 -19zM538 789q-26 0 -45 19t-19 48q0 27 19 47t45 20t44.5 -20t18.5 -47q0 -29 -18.5 -48t-44.5 -19zM615 157l104 543h153l-171 -700h-159l-100 467l-103 -467h-159l-171 700
h159l97 -543l122 543h113z" />
    <glyph glyph-name="wdieresis" unicode="&#x1e85;" horiz-adv-x="705" 
d="M271 571q-26 0 -45 19t-19 48q0 27 19 47t45 20t44.5 -20t18.5 -47q0 -29 -18.5 -48t-44.5 -19zM453 571q-26 0 -45 19t-19 48q0 27 19 47t45 20t44.5 -20t18.5 -47q0 -29 -18.5 -48t-44.5 -19zM422 0l-64 282l-75 -282h-130l-141 482h136l71 -332l83 330h120l65 -330
l71 332h134l-140 -482h-130z" />
    <glyph glyph-name="Ygrave" unicode="&#x1ef2;" horiz-adv-x="580" 
d="M220 0v293l-219 407h158l131 -290l131 290h158l-219 -407v-293h-140zM241 775l-112 193h153l69 -193h-110z" />
    <glyph glyph-name="ygrave" unicode="&#x1ef3;" horiz-adv-x="467" 
d="M268 -101q-11 -31 -26.5 -57.5t-37.5 -46t-50 -31t-63 -11.5q-19 0 -33 2.5t-25 6.5q-12 4 -22 10l17 102q7 -3 16 -5q17 -5 38 -5q33 0 50 22.5t27 52.5l14 61l-166 482h137l94 -326l83 326h135zM198 557l-112 193h153l69 -193h-110z" />
    <glyph glyph-name="endash" unicode="&#x2013;" horiz-adv-x="482" 
d="M49 225v94h384v-94h-384z" />
    <glyph glyph-name="emdash" unicode="&#x2014;" horiz-adv-x="764" 
d="M49 225v94h666v-94h-666z" />
    <glyph glyph-name="quoteleft" unicode="&#x2018;" horiz-adv-x="177" 
d="M163 721q0 -32 -21 -55t-51 -23q-32 0 -57 23t-25 68q0 61 17 100.5t38 62.5q24 27 55 41l33 -56q-18 -11 -31 -24q-11 -11 -20.5 -26.5t-9.5 -33.5q30 0 51 -22.5t21 -54.5z" />
    <glyph glyph-name="quoteright" unicode="&#x2019;" horiz-adv-x="221" 
d="M35 639q0 32 21 55.5t53 23.5q31 0 55.5 -23t24.5 -68q0 -62 -17 -101t-37 -62q-24 -27 -54 -41l-34 55q18 11 31 24q11 11 20.5 26.5t10.5 33.5q-31 0 -52.5 22.5t-21.5 54.5z" />
    <glyph glyph-name="quotesinglbase" unicode="&#x201a;" horiz-adv-x="232" 
d="M39 71q0 32 21 55t52 23t55.5 -22.5t24.5 -67.5q0 -62 -17 -101.5t-37 -62.5q-24 -27 -54 -41l-34 56q18 11 31 24q11 11 20.5 26t10.5 34q-31 0 -52 22.5t-21 54.5z" />
    <glyph glyph-name="quotedblleft" unicode="&#x201c;" horiz-adv-x="365" 
d="M351 721q0 -32 -21.5 -55t-51.5 -23q-32 0 -56.5 23t-24.5 68q0 61 17 100.5t37 62.5q24 27 55 41l33 -56q-17 -11 -30 -24q-11 -11 -21 -26.5t-10 -33.5q30 0 51.5 -22.5t21.5 -54.5zM163 721q0 -32 -21 -55t-51 -23q-32 0 -57 23t-25 68q0 61 17 100.5t38 62.5
q24 27 55 41l33 -56q-18 -11 -31 -24q-11 -11 -20.5 -26.5t-9.5 -33.5q30 0 51 -22.5t21 -54.5z" />
    <glyph glyph-name="quotedblright" unicode="&#x201d;" horiz-adv-x="408" 
d="M35 639q0 32 21 55t53 23q31 0 55.5 -22.5t24.5 -67.5q0 -62 -17 -101t-37 -62q-24 -27 -54 -41l-34 55q18 11 31 24q11 11 20.5 26t10.5 34q-32 0 -53 22.5t-21 54.5zM223 639q0 32 21 55t52 23t55.5 -22.5t24.5 -67.5q0 -62 -17 -101t-37 -62q-24 -27 -53 -41l-34 55
q17 11 30 24q11 11 21 26t10 34q-31 0 -52 22.5t-21 54.5z" />
    <glyph glyph-name="quotedblbase" unicode="&#x201e;" horiz-adv-x="415" 
d="M39 71q0 32 21 55t52 23t55.5 -22.5t24.5 -67.5q0 -62 -17 -101.5t-37 -62.5q-24 -27 -54 -41l-34 56q18 11 31 24q11 11 20.5 26t10.5 34q-31 0 -52 22.5t-21 54.5zM222 71q0 32 21 55t52 23t55.5 -22.5t24.5 -67.5q0 -62 -17.5 -101.5t-37.5 -62.5q-24 -27 -54 -41
l-33 56q18 11 31 24q11 11 20.5 26t10.5 34q-31 0 -52 22.5t-21 54.5z" />
    <glyph glyph-name="dagger" unicode="&#x2020;" horiz-adv-x="326" 
d="M130 122l-15 369h-90v70h90v166h96v-166h90v-70h-90l-15 -369h-66z" />
    <glyph glyph-name="daggerdbl" unicode="&#x2021;" horiz-adv-x="352" 
d="M142 122l-6 170h-97v71h93l-5 128h-90v70h90v166h97v-166h90v-70h-90l-5 -128h94v-71h-98l-7 -170h-66z" />
    <glyph glyph-name="bullet" unicode="&#x2022;" horiz-adv-x="351" 
d="M297 290q0 -27 -9.5 -50.5t-26 -41.5t-39 -28t-47.5 -10t-47 10t-38.5 28t-26 41.5t-9.5 50.5t9.5 50.5t26 41.5t38.5 28t47 10t47.5 -10t39 -28t26 -41.5t9.5 -50.5z" />
    <glyph glyph-name="ellipsis" unicode="&#x2026;" horiz-adv-x="543" 
d="M104 -6q-27 0 -46 19.5t-19 47.5t19 48t46 20q26 0 44.5 -20t18.5 -48t-18.5 -47.5t-44.5 -19.5zM268 -6q-26 0 -44.5 19.5t-18.5 47.5t18.5 48t44.5 20q27 0 45.5 -20t18.5 -48t-18.5 -47.5t-45.5 -19.5zM440 -6q-26 0 -44.5 19.5t-18.5 47.5t18.5 48t44.5 20t44.5 -20
t18.5 -48t-18.5 -47.5t-44.5 -19.5z" />
    <glyph glyph-name="perthousand" unicode="&#x2030;" horiz-adv-x="813" 
d="M147 0l181 700h86l-180 -700h-87zM133 423q-54 0 -81.5 38t-27.5 101q0 64 27.5 101.5t81.5 37.5q57 0 85 -37.5t28 -101.5q0 -63 -28 -101t-85 -38zM133 487q20 0 29 19.5t9 55.5q0 71 -38 71q-20 0 -28.5 -18t-8.5 -53q0 -36 8.5 -55.5t28.5 -19.5zM422 -2
q-54 0 -81.5 37.5t-27.5 101.5q0 63 27.5 101t81.5 38q57 0 85 -38t28 -101q0 -64 -28 -101.5t-85 -37.5zM422 62q20 0 28.5 19.5t8.5 55.5q0 71 -37 71t-37 -71q0 -36 8.5 -55.5t28.5 -19.5zM677 -2q-54 0 -81.5 37.5t-27.5 101.5q0 63 27.5 101t81.5 38q57 0 85 -38
t28 -101q0 -64 -28 -101.5t-85 -37.5zM677 62q20 0 29 19.5t9 55.5q0 71 -38 71q-20 0 -28 -18t-8 -53q0 -36 8 -55.5t28 -19.5z" />
    <glyph glyph-name="guilsinglleft" unicode="&#x2039;" horiz-adv-x="280" 
d="M40 212v105l142 139l63 -72l-108 -120l108 -119l-63 -73z" />
    <glyph glyph-name="guilsinglright" unicode="&#x203a;" horiz-adv-x="280" 
d="M98 72l-63 73l108 119l-108 120l63 72l142 -139v-105z" />
    <glyph glyph-name="fraction" unicode="&#x2044;" horiz-adv-x="97" 
d="M-107 0l188 727h125l-188 -727h-125z" />
    <glyph glyph-name="uni2070" unicode="&#x2070;" horiz-adv-x="258" 
d="M128 492q-55 0 -82.5 37.5t-27.5 101.5q0 63 27.5 101t82.5 38q56 0 84 -38t28 -101q0 -64 -28.5 -101.5t-83.5 -37.5zM128 556q19 0 27.5 19.5t8.5 55.5q0 71 -36 71q-38 0 -38 -71q0 -36 9 -55.5t29 -19.5z" />
    <glyph glyph-name="uni2074" unicode="&#x2074;" horiz-adv-x="241" 
d="M124 492v54h-111v50l67 169h74l-61 -156h39v55h64v-55h31v-63h-31v-54h-72z" />
    <glyph glyph-name="uni2075" unicode="&#x2075;" horiz-adv-x="235" 
d="M90 706v-43q4 2 9 5q5 2 11 4t16 2q43 0 67.5 -24.5t24.5 -69.5q0 -17 -6 -33.5t-18.5 -29t-32 -20.5t-46.5 -8t-46 7t-30 16q-14 11 -22 24l43 43q7 -8 16 -13q8 -5 17.5 -8.5t21.5 -3.5q17 0 25 10t8 22q0 13 -7.5 21.5t-21.5 8.5q-8 0 -13.5 -3t-10.5 -6q-5 -4 -9 -8
h-57v166h172v-59h-111z" />
    <glyph glyph-name="uni2076" unicode="&#x2076;" horiz-adv-x="238" 
d="M167 688l-8 8q-5 3 -11 6t-14 3q-18 0 -32 -13.5t-17 -42.5q5 6 13 10q6 4 15.5 7.5t22.5 3.5q38 0 62.5 -24.5t24.5 -63.5q0 -38 -22 -64.5t-71 -26.5q-55 0 -83.5 35t-28.5 101q0 69 29 105.5t84 36.5q20 0 34 -6t24 -13q11 -8 19 -18zM87 595q3 -22 15 -32t28 -10
q14 0 22 7.5t8 21.5q0 29 -29 29q-17 0 -28 -6.5t-16 -9.5z" />
    <glyph glyph-name="uni2077" unicode="&#x2077;" horiz-adv-x="201" 
d="M40 492q0 44 11.5 77t26 58.5t26 44.5t11.5 34h-101v59h177v-28q0 -32 -12.5 -57.5t-27 -51.5t-27 -58t-12.5 -78h-72z" />
    <glyph glyph-name="uni2078" unicode="&#x2078;" horiz-adv-x="242" 
d="M214 697q0 -16 -4.5 -27t-9.5 -18t-10.5 -10.5t-6.5 -3.5q23 -9 32.5 -27t9.5 -39q0 -37 -27 -58.5t-75 -21.5q-45 0 -75.5 19.5t-30.5 61.5q0 16 6 27.5t13.5 19t14 11.5t8.5 6q-2 0 -6.5 3t-10 10t-9.5 18t-4 28q0 33 25 53.5t68 20.5q49 0 70.5 -23t21.5 -50zM107 618
q-7 -4 -11 -8q-5 -5 -8 -11t-3 -16q0 -13 10.5 -22t27.5 -9t26 9t9 20q0 24 -21 30zM134 654q3 0 7 4q2 3 4.5 9t2.5 17q0 10 -7 18.5t-19 8.5t-19 -7.5t-7 -17.5q0 -14 6.5 -18.5t8.5 -5.5z" />
    <glyph glyph-name="uni2079" unicode="&#x2079;" horiz-adv-x="237" 
d="M69 567q0 -1 8.5 -8t24.5 -7q19 0 32.5 13.5t17.5 42.5q-5 -7 -13 -11q-7 -4 -16.5 -7t-21.5 -3q-38 0 -61.5 24t-23.5 64q0 38 22 64.5t71 26.5q54 0 82 -35t28 -101q0 -69 -29 -105.5t-84 -36.5q-20 0 -34.5 5.5t-24.5 12.5q-11 8 -19 19zM153 662q-4 22 -16 32t-28 10
q-14 0 -22 -7.5t-8 -21.5t8 -21.5t22 -7.5q17 0 28 6.5t16 9.5z" />
    <glyph glyph-name="uni2080" unicode="&#x2080;" horiz-adv-x="257" 
d="M128 -100q-55 0 -82.5 37.5t-27.5 101.5q0 63 27.5 101t82.5 38q56 0 84 -38t28 -101q0 -64 -28 -101.5t-84 -37.5zM128 -36q19 0 28 19.5t9 55.5q0 71 -37 71q-38 0 -38 -71q0 -36 9 -55.5t29 -19.5z" />
    <glyph glyph-name="uni2081" unicode="&#x2081;" horiz-adv-x="210" 
d="M107 -98v176q-8 -14 -28 -29.5t-58 -15.5l-10 70q19 0 36.5 6.5t30 17t20.5 23.5t9 25h72v-273h-72z" />
    <glyph glyph-name="uni2082" unicode="&#x2082;" horiz-adv-x="224" 
d="M20 -98v30q0 33 17.5 53t39 35t39 28.5t17.5 32.5q0 29 -24 29q-14 0 -19.5 -12t-5.5 -20l-64 12q0 12 5 27.5t15.5 29t27.5 22.5t42 9q43 0 68 -25t25 -68q0 -28 -13 -47.5t-29 -33.5t-29 -24t-14 -18v-1h84v-59h-182z" />
    <glyph glyph-name="uni2083" unicode="&#x2083;" horiz-adv-x="225" 
d="M82 11v51h30q7 0 12 6.5t5 20.5q0 11 -5.5 18.5t-18.5 7.5q-8 0 -13 -3.5t-8 -7.5q-4 -5 -5 -11l-59 22q5 17 16 31q10 12 27.5 22t46.5 10q24 0 41 -7t28 -18t16 -25t5 -29q0 -29 -13 -42t-19 -14q3 -2 9.5 -5.5t13 -11t11.5 -19.5t5 -30q0 -36 -26.5 -56.5t-71.5 -20.5
q-32 0 -50.5 8.5t-28.5 19.5q-11 12 -16 28l46 34q4 -9 10 -16q5 -6 13.5 -11t21.5 -5q30 0 30 26q0 27 -23 27h-30z" />
    <glyph glyph-name="uni2084" unicode="&#x2084;" horiz-adv-x="241" 
d="M124 -98v54h-111v50l67 169h74l-61 -156h39v55h64v-55h31v-63h-31v-54h-72z" />
    <glyph glyph-name="uni2085" unicode="&#x2085;" horiz-adv-x="235" 
d="M90 118v-43q4 2 9 5q5 2 11 4t16 2q43 0 68 -24.5t25 -69.5q0 -17 -6 -33.5t-19 -29t-32.5 -20.5t-46.5 -8t-46 7t-30 16q-14 11 -22 24l43 43q7 -8 16 -13q8 -5 17.5 -8.5t21.5 -3.5q17 0 25 10t8 22q0 13 -7.5 21.5t-21.5 8.5q-8 0 -13.5 -3t-10.5 -6q-5 -4 -9 -8h-57
v166h172v-59h-111z" />
    <glyph glyph-name="uni2086" unicode="&#x2086;" horiz-adv-x="238" 
d="M167 97l-8 8q-5 3 -11 6t-14 3q-18 0 -32 -13.5t-17 -42.5q5 6 13 10q6 4 15.5 7.5t22.5 3.5q38 0 62.5 -24.5t24.5 -63.5q0 -38 -22 -64.5t-71 -26.5q-55 0 -83.5 35t-28.5 101q0 69 29 105.5t84 36.5q20 0 34 -6t24 -13q11 -8 19 -18zM87 4q3 -22 15 -32t28 -10
q14 0 22 7.5t8 21.5q0 29 -29 29q-17 0 -28 -6.5t-16 -9.5z" />
    <glyph glyph-name="uni2087" unicode="&#x2087;" horiz-adv-x="200" 
d="M40 -98q0 44 11.5 77t26 58.5t26 44.5t11.5 34h-102v59h178v-28q0 -32 -12.5 -57.5t-27 -51.5t-27 -58t-12.5 -78h-72z" />
    <glyph glyph-name="uni2088" unicode="&#x2088;" horiz-adv-x="242" 
d="M214 105q0 -16 -4.5 -27t-9.5 -18t-10.5 -10.5t-6.5 -3.5q23 -9 32.5 -26.5t9.5 -38.5q0 -38 -27 -59.5t-75 -21.5q-45 0 -75.5 19.5t-30.5 61.5q0 16 6 28t13.5 19.5t14 11.5t8.5 5q-2 0 -6.5 3t-10 10t-9.5 18t-4 28q0 33 25 53.5t68 20.5q49 0 70.5 -23t21.5 -50z
M107 26q-7 -4 -11 -8q-5 -5 -8 -11t-3 -16q0 -12 10.5 -21.5t27.5 -9.5t26 9.5t9 20.5q0 24 -21 29zM134 62q3 0 7 4q2 3 4.5 9t2.5 17t-7 19.5t-19 8.5t-19 -8t-7 -18q0 -14 6.5 -18.5t8.5 -5.5z" />
    <glyph glyph-name="uni2089" unicode="&#x2089;" horiz-adv-x="235" 
d="M69 -19q1 -2 9.5 -9.5t23.5 -7.5q18 0 32 13.5t18 42.5q-5 -7 -13 -11q-7 -4 -16.5 -7t-22.5 -3q-37 0 -60.5 24.5t-23.5 63.5q0 38 22 64.5t71 26.5q53 0 80 -35t27 -101q0 -69 -28 -105.5t-82 -36.5q-20 0 -34.5 5.5t-24.5 12.5q-11 8 -19 19zM152 74q-3 22 -15 32
t-28 10q-14 0 -22 -7.5t-8 -21.5q0 -29 29 -29q17 0 28 6.5t16 9.5z" />
    <glyph glyph-name="Euro" unicode="&#x20ac;" horiz-adv-x="586" 
d="M30 322h53v38h-53v81h60q9 54 29 99.5t51.5 78.5t75 51.5t99.5 18.5q43 0 76.5 -9.5t58 -25.5t42 -36t28.5 -42l-108 -78q-11 24 -33 44t-62 20q-14 0 -30 -6t-31 -20t-28 -37t-20 -58h153v-81h-162v-38h162v-83h-147q10 -31 25.5 -51.5t32 -33t32.5 -17.5t28 -5
q26 0 46.5 10t35.5 23q18 15 31 34l84 -88q-4 -7 -17.5 -24.5t-37.5 -35.5t-59.5 -32t-83.5 -14q-58 0 -103 17.5t-78 48.5t-55 74t-32 94h-63v83z" />
    <glyph glyph-name="trademark" unicode="&#x2122;" horiz-adv-x="742" 
d="M604 335v214l-62 -166h-54l-60 166v-214h-82v380h87l82 -223l84 223h86v-380h-81zM138 335v301h-95v79h281v-79h-87v-301h-99z" />
    <glyph glyph-name="estimated" unicode="&#x212e;" horiz-adv-x="693" 
d="M543 59q-38 -32 -86 -48.5t-104 -16.5q-71 0 -129 26.5t-99 75t-64 116.5t-23 151t23 151t64.5 116.5t99.5 75t128 26.5t128 -26.5t99.5 -75t64.5 -116.5t23 -151h-516v-217q38 -54 88.5 -83t112.5 -29q47 0 90 15t75 41zM554 403q0 9 0.5 38t0.5 61v59v30
q-39 48 -90 74.5t-112 26.5t-111.5 -26t-88.5 -72q0 -2 -0.5 -15.5t-0.5 -32.5v-41.5v-43v-36.5v-22h402z" />
    <glyph glyph-name="onethird" unicode="&#x2153;" horiz-adv-x="525" 
d="M131 0l181 700h85l-179 -700h-87zM376 109v51h30q7 0 12.5 6t5.5 20q0 8 -6.5 15t-18.5 7q-9 0 -14 -3t-8 -6q-4 -4 -5 -8l-58 22q5 17 16 31q10 12 27.5 22t46.5 10q22 0 39 -7t27.5 -18t16 -25t5.5 -29t-4.5 -25t-10 -17t-11.5 -10t-9 -4q3 -2 10 -5.5t14 -11
t12.5 -19.5t5.5 -30q0 -36 -26.5 -56.5t-69.5 -20.5q-32 0 -50.5 8.5t-28.5 19.5q-11 12 -16 28l46 34q3 -8 9 -14q5 -5 13.5 -9t21.5 -4q31 0 31 25q0 23 -23 23h-30zM118 427v176q-8 -14 -28 -29.5t-57 -15.5l-12 70q20 0 37 6.5t30 17t21 23.5t9 25h71v-273h-71z" />
    <glyph glyph-name="twothirds" unicode="&#x2154;" horiz-adv-x="531" 
d="M146 0l181 700h85l-180 -700h-86zM30 427v29q0 33 18 53t39 35t39 28.5t18 32.5q0 29 -24 29q-15 0 -20 -11.5t-5 -19.5l-64 11q0 13 5 28.5t15.5 29t27.5 22.5t42 9q42 0 67 -25.5t25 -67.5q0 -29 -13 -48.5t-28.5 -33.5t-29 -23.5t-14.5 -17.5v-2h85v-58h-183zM381 109
v51h30q7 0 12 6.5t5 20.5q0 11 -5.5 18.5t-19.5 7.5q-8 0 -13 -3.5t-8 -7.5q-4 -5 -5 -11l-59 22q5 17 16 31q10 12 28 22t47 10q23 0 40 -7t28 -18t16.5 -25t5.5 -29q0 -29 -13 -42t-19 -14q3 -2 9.5 -5.5t13 -11t11.5 -19.5t5 -30q0 -36 -26.5 -56.5t-71.5 -20.5
q-32 0 -50.5 8.5t-28.5 19.5q-11 12 -16 28l45 34q4 -9 10 -16q5 -6 13.5 -11t21.5 -5q31 0 31 26q0 27 -23 27h-30z" />
    <glyph glyph-name="oneeighth" unicode="&#x215b;" horiz-adv-x="545" 
d="M118 427v176q-8 -14 -27.5 -29.5t-57.5 -15.5l-11 70q20 0 37 6.5t29.5 17t20.5 23.5t9 25h72v-273h-72zM133 0l181 700h86l-181 -700h-86zM477 144q23 -9 32.5 -26.5t9.5 -38.5q0 -38 -27 -59.5t-75 -21.5q-45 0 -75.5 19.5t-30.5 61.5q0 16 6 28t13.5 19.5t14 11.5
t8.5 5q-1 0 -5.5 3t-10 10t-9.5 18t-4 28q0 33 24.5 53.5t68.5 20.5q48 0 69.5 -23t21.5 -50q0 -16 -4.5 -27t-9.5 -18t-10.5 -10.5t-6.5 -3.5zM401 124q-7 -4 -11 -8q-5 -5 -8 -11t-3 -16q0 -12 10.5 -21.5t27.5 -9.5t26 9.5t9 20.5q0 24 -20 29zM429 160q3 0 6 4
q2 3 4.5 9t2.5 17t-6.5 19.5t-18.5 8.5q-13 0 -19.5 -8t-6.5 -18q0 -14 5.5 -18t9.5 -6z" />
    <glyph glyph-name="threeeighths" unicode="&#x215c;" horiz-adv-x="546" 
d="M480 144q22 -9 31.5 -26.5t9.5 -38.5q0 -38 -26.5 -59.5t-74.5 -21.5q-45 0 -75.5 19.5t-30.5 61.5q0 16 6 28t13.5 19.5t14 11.5t8.5 5q-2 0 -6.5 3t-10 10t-9.5 18t-4 28q0 33 25 53.5t68 20.5q49 0 70.5 -23t21.5 -50q0 -16 -4.5 -27t-10 -18t-10.5 -10.5t-6 -3.5z
M138 0l180 700h85l-179 -700h-86zM92 535v52h31q7 0 12 6.5t5 20.5q0 10 -5.5 18t-19.5 8q-8 0 -13 -3.5t-8 -7.5q-4 -5 -5 -11l-59 22q5 17 16 31q10 12 27.5 22t46.5 10q24 0 41 -7t28 -18.5t16.5 -25.5t5.5 -29q0 -14 -4 -24t-9.5 -17t-10.5 -10t-8 -4q3 -2 9.5 -5.5
t12.5 -11t11 -19.5t5 -30q0 -36 -26.5 -56.5t-71.5 -20.5q-32 0 -50.5 8.5t-28.5 19.5q-11 12 -16 28l46 34q4 -10 10 -17q5 -6 13.5 -11t21.5 -5q30 0 30 26q0 27 -22 27h-31zM403 124q-7 -4 -11 -8q-5 -5 -8 -11t-3 -16q0 -12 10.5 -21.5t28.5 -9.5q17 0 26 9.5t9 20.5
q0 24 -21 29zM431 160q3 0 6 4q2 3 4.5 9t2.5 17t-6.5 19.5t-18.5 8.5q-13 0 -19.5 -8t-6.5 -18q0 -14 6 -18l9 -6z" />
    <glyph glyph-name="fiveeighths" unicode="&#x215d;" horiz-adv-x="555" 
d="M145 0l181 700h85l-180 -700h-86zM520 203q0 -16 -4.5 -27t-9.5 -18t-10.5 -10.5t-6.5 -3.5q23 -9 32 -26.5t9 -38.5q0 -38 -26.5 -59.5t-74.5 -21.5q-45 0 -75.5 19.5t-30.5 61.5q0 16 6 28t13.5 19.5t14 11.5t8.5 5q-2 0 -6.5 3t-10 10t-9.5 18t-4 28q0 33 25 53.5
t69 20.5q48 0 69.5 -23t21.5 -50zM98 641v-43q4 2 9 5q5 2 11.5 4t16.5 2q42 0 67 -24.5t25 -69.5q0 -17 -6 -33.5t-19 -29t-32.5 -20.5t-46.5 -8t-45.5 7t-30.5 16q-14 11 -22 24l43 43q7 -8 16 -13q8 -5 18 -8.5t21 -3.5q18 0 26 10t8 22q0 13 -7.5 21.5t-22.5 8.5
q-8 0 -13.5 -3t-10.5 -6q-5 -4 -9 -8h-57v166h173v-59h-112zM413 124q-7 -4 -11 -8q-5 -5 -8 -11t-3 -16q0 -12 10.5 -21.5t27.5 -9.5t26 9.5t9 20.5q0 24 -20 29zM440 160q3 0 7 4q2 3 4.5 9t2.5 17t-7 19.5t-18 8.5q-13 0 -20 -8t-7 -18q0 -14 6.5 -18t8.5 -6z" />
    <glyph glyph-name="seveneighths" unicode="&#x215e;" horiz-adv-x="516" 
d="M51 427q0 44 11.5 77t26 58.5t26 44.5t11.5 34h-102v59h177v-28q0 -32 -12 -57.5t-27 -51.5t-27 -58t-12 -78h-72zM105 0l181 700h85l-180 -700h-86zM450 144q23 -9 33 -26.5t10 -38.5q0 -38 -27.5 -59.5t-75.5 -21.5q-45 0 -75 19.5t-30 61.5q0 16 5.5 28t13 19.5
t14 11.5t8.5 5q-1 0 -5.5 3t-10 10t-9.5 18t-4 28q0 33 25 53.5t68 20.5q49 0 70.5 -23t21.5 -50q0 -16 -4.5 -27t-10 -18t-11 -10.5t-6.5 -3.5zM374 124q-7 -4 -11 -8q-5 -5 -8 -11t-3 -16q0 -12 10.5 -21.5t27.5 -9.5t26 9.5t9 20.5q0 24 -20 29zM402 160q3 0 6 4
q2 3 4.5 9t2.5 17t-6.5 19.5t-18.5 8.5q-13 0 -19.5 -8t-6.5 -18q0 -14 5.5 -18.5t9.5 -5.5z" />
    <glyph glyph-name="partialdiff" unicode="&#x2202;" horiz-adv-x="537" 
d="M252 -6q-59 0 -101 18t-69 49.5t-40 73.5t-13 91q0 51 15.5 92t43 70t66 45t84.5 16q35 0 59.5 -10t40.5 -22q18 -14 31 -31q-8 106 -37.5 155.5t-81.5 49.5q-35 0 -56.5 -18.5t-33.5 -38.5l-101 74q13 19 31.5 37t42.5 31.5t53 21.5t64 8q63 0 110 -25.5t77.5 -73
t46 -115.5t15.5 -152q0 -72 -15.5 -135.5t-46 -110t-77 -73.5t-108.5 -27zM364 266q-10 20 -26 36q-14 14 -35 25t-51 11q-48 0 -71.5 -30.5t-23.5 -81.5q0 -54 26 -86t69 -32q44 0 74 43t38 115z" />
    <glyph glyph-name="product" unicode="&#x220f;" horiz-adv-x="575" 
d="M389 0v587h-202v-587h-124v700h449v-700h-123z" />
    <glyph glyph-name="summation" unicode="&#x2211;" horiz-adv-x="534" 
d="M43 0l1 112l147 235l-148 241v112h450v-112h-288l137 -240l-137 -237l288 -1v-110h-450z" />
    <glyph glyph-name="minus" unicode="&#x2212;" horiz-adv-x="425" 
d="M51 225v94h323v-94h-323z" />
    <glyph glyph-name="uni2215" unicode="&#x2215;" horiz-adv-x="375" 
d="M-4 0l261 726h124l-259 -726h-126z" />
    <glyph glyph-name="uni2219" unicode="&#x2219;" horiz-adv-x="214" 
d="M108 211q-27 0 -45.5 19t-18.5 47q0 27 18.5 46.5t45.5 19.5q26 0 43.5 -19.5t17.5 -46.5q0 -28 -17.5 -47t-43.5 -19z" />
    <glyph glyph-name="radical" unicode="&#x221a;" horiz-adv-x="630" 
d="M134 0l-121 417h125l60 -265l148 548h270v-113h-190l-171 -587h-121z" />
    <glyph glyph-name="infinity" unicode="&#x221e;" horiz-adv-x="597" 
d="M299 406l23 35q15 22 38.5 39.5t65.5 17.5q28 0 53 -12t43 -32.5t28.5 -48t10.5 -59.5t-10.5 -59.5t-28.5 -48t-43 -32.5t-53 -12q-42 0 -66 16t-38 37l-23 35l-24 -35q-14 -21 -38 -37t-66 -16q-29 0 -53.5 12t-42.5 32.5t-28.5 48t-10.5 59.5t10.5 59.5t28.5 48
t42.5 32.5t53.5 12q42 0 65.5 -17.5t38.5 -39.5zM106 346q0 -35 19.5 -60.5t49.5 -25.5q16 0 28 5t21 12.5t15 16.5t10 16l19 36l-19 32q-4 7 -10 15.5t-15 16.5t-21 13.5t-28 5.5q-30 0 -49.5 -25t-19.5 -58zM491 346q0 33 -19 58t-49 25q-17 0 -29 -5.5t-21 -13t-15 -16.5
t-10 -16l-18 -32l18 -36q4 -7 10 -16t15 -16.5t21 -12.5t29 -5q30 0 49 25.5t19 60.5z" />
    <glyph glyph-name="integral" unicode="&#x222b;" horiz-adv-x="421" 
d="M275 -46q0 -45 -10 -82t-31 -63.5t-53.5 -41t-77.5 -14.5q-26 0 -45.5 6.5t-33.5 14.5q-16 9 -27 21l40 97l3 -4t10 -8.5t16.5 -8.5t23.5 -4q29 0 43 24.5t14 68.5v569q0 45 9.5 82t30.5 63.5t53.5 41.5t78.5 15q26 0 45 -7t33 -15q16 -10 28 -21l-40 -96q0 1 -3.5 4.5
t-10.5 8t-16.5 8t-22.5 3.5q-30 0 -43.5 -24t-13.5 -69v-569z" />
    <glyph glyph-name="approxequal" unicode="&#x2248;" horiz-adv-x="453" 
d="M71 433q-4 7 -7 16q-7 17 -7 45q0 40 22 70t67 30q23 0 44 -8.5t39.5 -18t35 -18t30.5 -8.5q12 0 17.5 9.5t5.5 23.5q0 9 -2.5 17t-4.5 15q-3 8 -6 15h81q3 -8 6 -18q2 -8 4.5 -19t2.5 -23q0 -41 -21.5 -71.5t-64.5 -30.5q-27 0 -49 8t-40 18t-32.5 18t-26.5 8
q-13 0 -20.5 -10t-7.5 -25q0 -11 2 -19t4 -13q3 -6 7 -11h-79zM71 244q-4 7 -7 16q-7 17 -7 45q0 40 22 70t67 30q23 0 44 -8.5t39.5 -18t35 -18t30.5 -8.5q12 0 17.5 9t5.5 23q0 9 -2.5 17.5t-4.5 15.5q-3 8 -6 15h81q3 -8 6 -18q2 -8 4.5 -19t2.5 -23q0 -21 -5.5 -39.5
t-16 -32.5t-27 -22.5t-37.5 -8.5q-27 0 -49 8.5t-40 18t-32.5 18t-26.5 8.5q-13 0 -20.5 -10t-7.5 -25q0 -11 2 -19t4 -13q3 -6 7 -11h-79z" />
    <glyph glyph-name="notequal" unicode="&#x2260;" horiz-adv-x="443" 
d="M234 113l-14 -62h-114l13 62h-71v94h99l27 114h-126v94h154l20 77h114l-19 -77h78v-94h-106l-27 -114h133v-94h-161z" />
    <glyph glyph-name="lessequal" unicode="&#x2264;" horiz-adv-x="427" 
d="M60 442v102l304 197v-113l-193 -136l193 -134v-113zM46 111v94h337v-94h-337z" />
    <glyph glyph-name="greaterequal" unicode="&#x2265;" horiz-adv-x="426" 
d="M63 245v113l192 134l-192 136v113l304 -197v-102zM44 111v94h336v-94h-336z" />
    <glyph glyph-name="lozenge" unicode="&#x25ca;" horiz-adv-x="497" 
d="M182 0l-155 348l155 352h127l164 -353l-164 -347h-127zM348 347l-103 239l-94 -239l95 -232z" />
    <glyph glyph-name="glyph52" horiz-adv-x="203" 
d="M26 -117q0 32 21.5 55t51.5 23q32 0 56.5 -22t24.5 -67q0 -54 -17.5 -87.5t-37.5 -53.5q-24 -23 -54 -35l-34 56q18 7 31 16q11 8 20.5 17.5t10.5 20.5q-30 0 -51.5 22.5t-21.5 54.5z" />
    <glyph glyph-name="glyph103" horiz-adv-x="448" 
 />
    <glyph glyph-name="a.salt" horiz-adv-x="493" 
d="M463 2q-7 -2 -15 -4q-15 -3 -41 -3q-31 0 -49 10.5t-27 24.5t-11.5 26.5t-2.5 17.5v1q-4 -7 -12 -20.5t-22 -27t-36 -23.5t-53 -10q-30 0 -59.5 14.5t-53 44.5t-38 76.5t-14.5 110.5q0 67 14.5 114t38.5 77t55 43.5t65 13.5q29 0 50.5 -9t35.5 -20q17 -13 29 -29v52h111
v-339q0 -21 7.5 -32t27.5 -11v-98zM301 292q0 7 -4 20.5t-12.5 27t-22 24t-33.5 10.5q-32 0 -52.5 -32.5t-20.5 -100.5q0 -35 6.5 -60.5t17 -41.5t24 -23.5t26.5 -7.5q23 0 37 13.5t21.5 29t10 28t2.5 11.5v102z" />
    <glyph glyph-name="aacute.aalt" horiz-adv-x="493" 
d="M463 2q-7 -2 -15 -4q-15 -3 -41 -3q-31 0 -49 10.5t-27 24.5t-11.5 26.5t-2.5 17.5v1q-4 -7 -12 -20.5t-22 -27t-36 -23.5t-53 -10q-30 0 -59.5 14.5t-53 44.5t-38 76.5t-14.5 110.5q0 67 14.5 114t38.5 77t55 43.5t65 13.5q29 0 50.5 -9t35.5 -20q17 -13 29 -29v52h111
v-339q0 -21 7.5 -32t27.5 -11v-98zM301 292q0 7 -4 20.5t-12.5 27t-22 24t-33.5 10.5q-32 0 -52.5 -32.5t-20.5 -100.5q0 -35 6.5 -60.5t17 -41.5t24 -23.5t26.5 -7.5q23 0 37 13.5t21.5 29t10 28t2.5 11.5v102zM170 557l70 193h152l-111 -193h-111z" />
    <glyph glyph-name="abreve.aalt" horiz-adv-x="493" 
d="M463 2q-7 -2 -15 -4q-15 -3 -41 -3q-31 0 -49 10.5t-27 24.5t-11.5 26.5t-2.5 17.5v1q-4 -7 -12 -20.5t-22 -27t-36 -23.5t-53 -10q-30 0 -59.5 14.5t-53 44.5t-38 76.5t-14.5 110.5q0 67 14.5 114t38.5 77t55 43.5t65 13.5q29 0 50.5 -9t35.5 -20q17 -13 29 -29v52h111
v-339q0 -21 7.5 -32t27.5 -11v-98zM301 292q0 7 -4 20.5t-12.5 27t-22 24t-33.5 10.5q-32 0 -52.5 -32.5t-20.5 -100.5q0 -35 6.5 -60.5t17 -41.5t24 -23.5t26.5 -7.5q23 0 37 13.5t21.5 29t10 28t2.5 11.5v102zM389 704q0 -29 -6 -56t-21.5 -47.5t-41.5 -33t-65 -12.5
q-40 0 -66 12.5t-41.5 33t-21.5 47.5t-6 56h93q0 -32 10 -46.5t31 -15.5q42 0 42 62h93z" />
    <glyph glyph-name="acircumflex.aalt" horiz-adv-x="493" 
d="M463 2q-7 -2 -15 -4q-15 -3 -41 -3q-31 0 -49 10.5t-27 24.5t-11.5 26.5t-2.5 17.5v1q-4 -7 -12 -20.5t-22 -27t-36 -23.5t-53 -10q-30 0 -59.5 14.5t-53 44.5t-38 76.5t-14.5 110.5q0 67 14.5 114t38.5 77t55 43.5t65 13.5q29 0 50.5 -9t35.5 -20q17 -13 29 -29v52h111
v-339q0 -21 7.5 -32t27.5 -11v-98zM301 292q0 7 -4 20.5t-12.5 27t-22 24t-33.5 10.5q-32 0 -52.5 -32.5t-20.5 -100.5q0 -35 6.5 -60.5t17 -41.5t24 -23.5t26.5 -7.5q23 0 37 13.5t21.5 29t10 28t2.5 11.5v102zM102 538l77 193h137l77 -193h-110l-36 98l-35 -98h-110z" />
    <glyph glyph-name="adieresis.aalt" horiz-adv-x="493" 
d="M463 2q-7 -2 -15 -4q-15 -3 -41 -3q-31 0 -49 10.5t-27 24.5t-11.5 26.5t-2.5 17.5v1q-4 -7 -12 -20.5t-22 -27t-36 -23.5t-53 -10q-30 0 -59.5 14.5t-53 44.5t-38 76.5t-14.5 110.5q0 67 14.5 114t38.5 77t55 43.5t65 13.5q29 0 50.5 -9t35.5 -20q17 -13 29 -29v52h111
v-339q0 -21 7.5 -32t27.5 -11v-98zM301 292q0 7 -4 20.5t-12.5 27t-22 24t-33.5 10.5q-32 0 -52.5 -32.5t-20.5 -100.5q0 -35 6.5 -60.5t17 -41.5t24 -23.5t26.5 -7.5q23 0 37 13.5t21.5 29t10 28t2.5 11.5v102zM164 571q-26 0 -45 19t-19 48q0 27 19 47t45 20t44.5 -20
t18.5 -47q0 -29 -18.5 -48t-44.5 -19zM346 571q-26 0 -45 19t-19 48q0 27 19 47t45 20t44.5 -20t18.5 -47q0 -29 -18.5 -48t-44.5 -19z" />
    <glyph glyph-name="agrave.aalt" horiz-adv-x="493" 
d="M463 2q-7 -2 -15 -4q-15 -3 -41 -3q-31 0 -49 10.5t-27 24.5t-11.5 26.5t-2.5 17.5v1q-4 -7 -12 -20.5t-22 -27t-36 -23.5t-53 -10q-30 0 -59.5 14.5t-53 44.5t-38 76.5t-14.5 110.5q0 67 14.5 114t38.5 77t55 43.5t65 13.5q29 0 50.5 -9t35.5 -20q17 -13 29 -29v52h111
v-339q0 -21 7.5 -32t27.5 -11v-98zM301 292q0 7 -4 20.5t-12.5 27t-22 24t-33.5 10.5q-32 0 -52.5 -32.5t-20.5 -100.5q0 -35 6.5 -60.5t17 -41.5t24 -23.5t26.5 -7.5q23 0 37 13.5t21.5 29t10 28t2.5 11.5v102zM221 557l-112 193h153l69 -193h-110z" />
    <glyph glyph-name="amacron.aalt" horiz-adv-x="493" 
d="M463 2q-7 -2 -15 -4q-15 -3 -41 -3q-31 0 -49 10.5t-27 24.5t-11.5 26.5t-2.5 17.5v1q-4 -7 -12 -20.5t-22 -27t-36 -23.5t-53 -10q-30 0 -59.5 14.5t-53 44.5t-38 76.5t-14.5 110.5q0 67 14.5 114t38.5 77t55 43.5t65 13.5q29 0 50.5 -9t35.5 -20q17 -13 29 -29v52h111
v-339q0 -21 7.5 -32t27.5 -11v-98zM301 292q0 7 -4 20.5t-12.5 27t-22 24t-33.5 10.5q-32 0 -52.5 -32.5t-20.5 -100.5q0 -35 6.5 -60.5t17 -41.5t24 -23.5t26.5 -7.5q23 0 37 13.5t21.5 29t10 28t2.5 11.5v102zM115 574v93h290v-93h-290z" />
    <glyph glyph-name="aogonek.aalt" horiz-adv-x="493" 
d="M489 -144q-10 -11 -22 -20q-11 -8 -27 -13.5t-36 -5.5q-17 0 -33 5t-28.5 15.5t-20 26.5t-7.5 39q0 35 13 60t31 42q-14 7 -22.5 17.5t-13 21t-5.5 19t-1 11.5v1q-4 -7 -12 -20.5t-22 -27t-36 -23.5t-53 -10q-30 0 -59.5 14.5t-53 44.5t-38 76.5t-14.5 110.5
q0 67 14.5 114t38.5 77t55 43.5t65 13.5q29 0 50.5 -9t35.5 -20q17 -13 29 -29v52h111v-339q0 -21 7.5 -32t27.5 -11v-98q-4 -1 -9 -2t-11 -2t-14 -2q-14 -7 -30.5 -24t-16.5 -48q0 -17 9 -28t26 -11q11 0 19 4t13 9q6 6 11 14zM301 292q0 7 -4 20.5t-12.5 27t-22 24
t-33.5 10.5q-32 0 -52.5 -32.5t-20.5 -100.5q0 -35 6.5 -60.5t17 -41.5t24 -23.5t26.5 -7.5q23 0 37 13.5t21.5 29t10 28t2.5 11.5v102z" />
    <glyph glyph-name="aring.aalt" horiz-adv-x="493" 
d="M463 2q-7 -2 -15 -4q-15 -3 -41 -3q-31 0 -49 10.5t-27 24.5t-11.5 26.5t-2.5 17.5v1q-4 -7 -12 -20.5t-22 -27t-36 -23.5t-53 -10q-30 0 -59.5 14.5t-53 44.5t-38 76.5t-14.5 110.5q0 67 14.5 114t38.5 77t55 43.5t65 13.5q29 0 50.5 -9t35.5 -20q17 -13 29 -29v52h111
v-339q0 -21 7.5 -32t27.5 -11v-98zM301 292q0 7 -4 20.5t-12.5 27t-22 24t-33.5 10.5q-32 0 -52.5 -32.5t-20.5 -100.5q0 -35 6.5 -60.5t17 -41.5t24 -23.5t26.5 -7.5q23 0 37 13.5t21.5 29t10 28t2.5 11.5v102zM250 550q-20 0 -36.5 7.5t-28.5 21t-19 31.5t-7 39
q0 43 26 71.5t65 28.5q19 0 35.5 -7.5t29 -21t19.5 -32t7 -39.5t-7 -39t-19.5 -31.5t-29 -21t-35.5 -7.5zM283 649q0 17 -9.5 28t-23.5 11t-23.5 -11t-9.5 -28t9.5 -27.5t23.5 -10.5t23.5 10.5t9.5 27.5z" />
    <glyph glyph-name="atilde.aalt" horiz-adv-x="493" 
d="M463 2q-7 -2 -15 -4q-15 -3 -41 -3q-31 0 -49 10.5t-27 24.5t-11.5 26.5t-2.5 17.5v1q-4 -7 -12 -20.5t-22 -27t-36 -23.5t-53 -10q-30 0 -59.5 14.5t-53 44.5t-38 76.5t-14.5 110.5q0 67 14.5 114t38.5 77t55 43.5t65 13.5q29 0 50.5 -9t35.5 -20q17 -13 29 -29v52h111
v-339q0 -21 7.5 -32t27.5 -11v-98zM301 292q0 7 -4 20.5t-12.5 27t-22 24t-33.5 10.5q-32 0 -52.5 -32.5t-20.5 -100.5q0 -35 6.5 -60.5t17 -41.5t24 -23.5t26.5 -7.5q23 0 37 13.5t21.5 29t10 28t2.5 11.5v102zM94 546q-4 6 -7 15q-7 17 -7 44q0 38 21.5 66t66.5 28
q22 0 42 -6.5t37.5 -14t33 -13.5t29.5 -6q10 0 14 6.5t4 16.5q0 8 -2.5 16t-4.5 14l-6 14h85q3 -8 6 -18q2 -8 4 -18.5t2 -22.5q0 -38 -21 -67t-64 -29q-26 0 -46.5 6.5t-37.5 14t-30.5 14t-25.5 6.5q-10 0 -16 -7.5t-6 -19.5q0 -9 2 -16.5t4 -12.5q3 -6 7 -10h-84z" />
    <glyph glyph-name="e.aalt" horiz-adv-x="435" 
d="M243 203q-19 0 -34.5 2t-26.5 5q-13 4 -24 8v-1q0 -55 27 -85.5t65 -30.5q25 0 43.5 9.5t30.5 21.5q14 13 24 31l64 -69q-15 -28 -40 -50q-21 -19 -55.5 -34.5t-84.5 -15.5q-45 0 -82.5 16t-64 47t-41.5 77t-15 106q0 117 49 182.5t153 65.5q49 0 82 -17t52.5 -41.5
t28 -53t8.5 -50.5q0 -36 -11 -60t-31.5 -38t-50 -19.5t-66.5 -5.5zM160 298q6 -5 15 -9q8 -4 19.5 -6.5t28.5 -2.5q27 0 44 8t17 32q0 10 -4 21.5t-11.5 21t-18.5 16t-26 6.5q-29 0 -46.5 -23t-17.5 -64z" />
    <glyph glyph-name="eight.dnom" horiz-adv-x="242" 
d="M214 203q0 -16 -4.5 -27t-9.5 -18t-10.5 -10.5t-6.5 -3.5q23 -9 32.5 -26.5t9.5 -38.5q0 -38 -27 -59.5t-75 -21.5q-45 0 -75.5 19.5t-30.5 61.5q0 16 6 28t13.5 19.5t14 11.5t8.5 5q-2 0 -6.5 3t-10 10t-9.5 18t-4 28q0 33 25 53.5t68 20.5q49 0 70.5 -23t21.5 -50z
M107 124q-7 -4 -11 -8q-5 -5 -8 -11t-3 -16q0 -12 10.5 -21.5t27.5 -9.5t26 9.5t9 20.5q0 24 -21 29zM134 160q3 0 7 4q2 3 4.5 9t2.5 17t-7 19.5t-19 8.5t-19 -8t-7 -18q0 -14 6.5 -18.5t8.5 -5.5z" />
    <glyph glyph-name="eight.numr" horiz-adv-x="242" 
d="M214 655q0 -16 -4.5 -27t-9.5 -18t-10.5 -10.5t-6.5 -3.5q23 -9 32.5 -26.5t9.5 -38.5q0 -38 -27 -59.5t-75 -21.5q-45 0 -75.5 19.5t-30.5 61.5q0 16 6 28t13.5 19.5t14 11.5t8.5 5q-2 0 -6.5 3t-10 10t-9.5 18t-4 28q0 33 25 53.5t68 20.5q49 0 70.5 -23t21.5 -50z
M107 576q-7 -4 -11 -8q-5 -5 -8 -11t-3 -16q0 -12 10.5 -21.5t27.5 -9.5t26 9.5t9 20.5q0 24 -21 29zM134 612q3 0 7 4q2 3 4.5 9t2.5 17t-7 19.5t-19 8.5t-19 -8t-7 -18q0 -14 6.5 -18.5t8.5 -5.5z" />
    <glyph glyph-name="five.dnom" horiz-adv-x="235" 
d="M90 215v-43q4 2 9 5q5 2 11 4t16 2q43 0 68 -24.5t25 -69.5q0 -17 -6 -33.5t-19 -29t-32.5 -20.5t-46.5 -8t-46 7t-30 16q-14 11 -22 24l43 43q7 -8 16 -13q8 -5 17.5 -8.5t21.5 -3.5q17 0 25 10t8 22q0 13 -7.5 21.5t-21.5 8.5q-8 0 -13.5 -3t-10.5 -6q-5 -4 -9 -8h-57
v166h172v-59h-111z" />
    <glyph glyph-name="five.numr" horiz-adv-x="235" 
d="M90 667v-43q4 2 9 5q5 2 11 4t16 2q43 0 68 -24.5t25 -69.5q0 -17 -6 -33.5t-19 -29t-32.5 -20.5t-46.5 -8t-46 7t-30 16q-14 11 -22 24l43 43q7 -8 16 -13q8 -5 17.5 -8.5t21.5 -3.5q17 0 25 10t8 22q0 13 -7.5 21.5t-21.5 8.5q-8 0 -13.5 -3t-10.5 -6q-5 -4 -9 -8h-57
v166h172v-59h-111z" />
    <glyph glyph-name="four.dnom" horiz-adv-x="241" 
d="M124 0v54h-111v50l67 169h74l-61 -156h39v55h64v-55h31v-63h-31v-54h-72z" />
    <glyph glyph-name="four.numr" horiz-adv-x="241" 
d="M124 453v54h-111v50l67 169h74l-62 -156h40v55h64v-55h31v-63h-31v-54h-72z" />
    <glyph glyph-name="g.aalt" horiz-adv-x="478" 
d="M309 65q0 -1 -5.5 -12.5t-18.5 -24.5t-35 -23.5t-55 -10.5q-30 0 -59.5 14.5t-53 44.5t-38.5 76.5t-15 110.5q0 67 14.5 114t38.5 77t55.5 43.5t65.5 13.5q32 0 53.5 -9t35.5 -20q16 -13 26 -29v52h112v-504q0 -51 -14.5 -93t-40.5 -71t-63 -45t-83 -16q-51 0 -86 15
t-57 34q-26 22 -41 50l67 75q10 -17 24 -30q12 -11 30 -20.5t44 -9.5q19 0 36.5 6t31.5 19.5t22.5 35t8.5 51.5v86zM301 292q0 7 -4 20.5t-12 27t-22 24t-33 10.5q-32 0 -53 -32.5t-21 -100.5q0 -35 6.5 -60.5t17.5 -41.5t24 -23.5t27 -7.5q23 0 36.5 13.5t21 29t10 28
t2.5 11.5v102z" />
    <glyph glyph-name="gbreve.aalt" horiz-adv-x="478" 
d="M309 65q0 -1 -5.5 -12.5t-18.5 -24.5t-35 -23.5t-55 -10.5q-30 0 -59.5 14.5t-53 44.5t-38.5 76.5t-15 110.5q0 67 14.5 114t38.5 77t55.5 43.5t65.5 13.5q32 0 53.5 -9t35.5 -20q16 -13 26 -29v52h112v-504q0 -51 -14.5 -93t-40.5 -71t-63 -45t-83 -16q-51 0 -86 15
t-57 34q-26 22 -41 50l67 75q10 -17 24 -30q12 -11 30 -20.5t44 -9.5q19 0 36.5 6t31.5 19.5t22.5 35t8.5 51.5v86zM301 292q0 7 -4 20.5t-12 27t-22 24t-33 10.5q-32 0 -53 -32.5t-21 -100.5q0 -35 6.5 -60.5t17.5 -41.5t24 -23.5t27 -7.5q23 0 36.5 13.5t21 29t10 28
t2.5 11.5v102zM386 704q0 -29 -6 -56t-21.5 -47.5t-41.5 -33t-65 -12.5q-40 0 -66 12.5t-41.5 33t-21.5 47.5t-6 56h93q0 -32 10 -46.5t31 -15.5q42 0 42 62h93z" />
    <glyph glyph-name="gcircumflex.aalt" horiz-adv-x="478" 
d="M309 65q0 -1 -5.5 -12.5t-18.5 -24.5t-35 -23.5t-55 -10.5q-30 0 -59.5 14.5t-53 44.5t-38.5 76.5t-15 110.5q0 67 14.5 114t38.5 77t55.5 43.5t65.5 13.5q30 0 51.5 -8.5t35 -19t20.5 -19.5t8 -11v52h112v-504q0 -51 -14.5 -93t-40.5 -71t-63 -45t-83 -16q-51 0 -86 15
t-57 34q-26 22 -41 50l67 75q10 -17 24 -30q12 -11 30 -20.5t44 -9.5q19 0 36.5 6t31.5 19.5t22.5 35t8.5 51.5v86zM98 538l77 193h137l77 -193h-110l-36 98l-35 -98h-110zM301 292q0 7 -4 20.5t-12 27t-22 24t-33 10.5q-32 0 -53 -32.5t-21 -100.5q0 -35 6.5 -60.5
t17.5 -41.5t24 -23.5t27 -7.5q23 0 36.5 13.5t21 29t10 28t2.5 11.5v102z" />
    <glyph glyph-name="uni0123.aalt" horiz-adv-x="478" 
d="M309 65q0 -1 -5.5 -12.5t-18.5 -24.5t-35 -23.5t-55 -10.5q-30 0 -59.5 14.5t-53 44.5t-38.5 76.5t-15 110.5q0 67 14.5 114t38.5 77t55.5 43.5t65.5 13.5q32 0 53.5 -9t35.5 -20q16 -13 26 -29v52h112v-504q0 -51 -14.5 -93t-40.5 -71t-63 -45t-83 -16q-51 0 -86 15
t-57 34q-26 22 -41 50l67 75q10 -17 24 -30q12 -11 30 -20.5t44 -9.5q19 0 36.5 6t31.5 19.5t22.5 35t8.5 51.5v86zM301 292q0 7 -4 20.5t-12 27t-22 24t-33 10.5q-32 0 -53 -32.5t-21 -100.5q0 -35 6.5 -60.5t17.5 -41.5t24 -23.5t27 -7.5q23 0 36.5 13.5t21 29t10 28
t2.5 11.5v102zM172 691q0 32 21.5 55t51.5 23q32 0 56.5 -22t24.5 -67q0 -54 -17.5 -87.5t-37.5 -53.5q-24 -23 -54 -35l-34 56q18 7 31 16q11 8 20.5 17.5t10.5 20.5q-30 0 -51.5 22.5t-21.5 54.5z" />
    <glyph glyph-name="gdotaccent.aalt" horiz-adv-x="478" 
d="M309 65q0 -1 -5.5 -12.5t-18.5 -24.5t-35 -23.5t-55 -10.5q-30 0 -59.5 14.5t-53 44.5t-38.5 76.5t-15 110.5q0 67 14.5 114t38.5 77t55.5 43.5t65.5 13.5q30 0 51.5 -8.5t35 -19t20.5 -19.5t8 -11v52h112v-504q0 -51 -14.5 -93t-40.5 -71t-63 -45t-83 -16q-51 0 -86 15
t-57 34q-26 22 -41 50l67 75q10 -17 24 -30q12 -11 30 -20.5t44 -9.5q19 0 36.5 6t31.5 19.5t22.5 35t8.5 51.5v86zM301 292q0 7 -4 20.5t-12 27t-22 24t-33 10.5q-32 0 -53 -32.5t-21 -100.5q0 -35 6.5 -60.5t17.5 -41.5t24 -23.5t27 -7.5q23 0 36.5 13.5t21 29t10 28
t2.5 11.5v102zM267 585q-26 0 -44.5 19t-18.5 48q0 28 18.5 47.5t44.5 19.5t45 -19.5t19 -47.5q0 -29 -19 -48t-45 -19z" />
    <glyph glyph-name="nine.dnom" horiz-adv-x="235" 
d="M69 77q0 -1 9 -8t24 -7q19 0 32.5 13.5t17.5 42.5q-5 -7 -13 -11q-7 -4 -16.5 -7t-21.5 -3q-38 0 -61 24.5t-23 63.5q0 38 21.5 64.5t70.5 26.5q53 0 80.5 -35t27.5 -101q0 -69 -28.5 -105.5t-82.5 -36.5q-20 0 -34.5 5.5t-24.5 12.5q-11 8 -19 19zM153 172
q-4 22 -15.5 32t-28.5 10q-14 0 -22 -7.5t-8 -21.5t8 -21.5t22 -7.5q17 0 28 6.5t16 9.5z" />
    <glyph glyph-name="nine.numr" horiz-adv-x="236" 
d="M68 529q0 -1 9 -8t24 -7q19 0 32.5 13.5t17.5 42.5q-5 -7 -13 -11q-7 -4 -16.5 -7t-21.5 -3q-38 0 -61.5 24.5t-23.5 63.5q0 38 22 64.5t72 26.5q54 0 81.5 -35t27.5 -101q0 -69 -29 -105.5t-84 -36.5q-20 0 -34.5 5.5t-24.5 12.5q-11 8 -19 19zM152 624q-4 22 -15.5 32
t-27.5 10q-31 0 -31 -29q0 -14 8 -21.5t22 -7.5q17 0 28 6.5t16 9.5z" />
    <glyph glyph-name="one.dnom" horiz-adv-x="210" 
d="M107 0v176q-4 -7 -10.5 -15t-17 -14.5t-25 -11t-33.5 -4.5l-10 70q19 0 36.5 6.5t30 17t20.5 23.5t9 25h72v-273h-72z" />
    <glyph glyph-name="one.numr" horiz-adv-x="210" 
d="M106 453v176q-8 -14 -27.5 -29.5t-57.5 -15.5l-11 70q20 0 37 6.5t30 17t20.5 23.5t8.5 25h72v-273h-72z" />
    <glyph glyph-name="seven.dnom" horiz-adv-x="202" 
d="M41 -2q0 44 11.5 77.5t26 59t26 44.5t11.5 34h-102v58h178v-28q0 -32 -12.5 -57t-27 -51.5t-27 -58.5t-12.5 -78h-72z" />
    <glyph glyph-name="seven.numr" horiz-adv-x="200" 
d="M40 453q0 44 11.5 77t26 58.5t26 44.5t11.5 34h-101v59h177v-28q0 -32 -12.5 -57.5t-27 -51.5t-27 -58t-12.5 -78h-72z" />
    <glyph glyph-name="six.dnom" horiz-adv-x="238" 
d="M167 195l-8 8q-5 3 -11 6t-14 3q-18 0 -32 -13.5t-17 -42.5q5 6 13 10q6 4 15.5 7.5t22.5 3.5q38 0 62.5 -24.5t24.5 -63.5q0 -38 -22 -64.5t-71 -26.5q-55 0 -83.5 35t-28.5 101q0 69 29 105.5t84 36.5q20 0 34 -6t24 -13q11 -8 19 -18zM87 102q3 -22 15 -32t28 -10
q14 0 22 7.5t8 21.5q0 29 -29 29q-17 0 -28 -6.5t-16 -9.5z" />
    <glyph glyph-name="six.numr" horiz-adv-x="238" 
d="M167 647l-8 8q-5 3 -11 6t-14 3q-18 0 -32 -13.5t-17 -42.5q5 6 13 10q6 4 15.5 7.5t22.5 3.5q38 0 62.5 -24.5t24.5 -63.5q0 -38 -22 -64.5t-71 -26.5q-55 0 -83.5 35t-28.5 101q0 69 29 105.5t84 36.5q20 0 34 -6t24 -13q11 -8 19 -18zM87 554q3 -22 15 -32t28 -10
q14 0 22 7.5t8 21.5q0 29 -29 29q-17 0 -28 -6.5t-16 -9.5z" />
    <glyph glyph-name="three.dnom" horiz-adv-x="226" 
d="M83 109v51h30q7 0 12 6.5t5 20.5q0 11 -5.5 18.5t-18.5 7.5q-9 0 -14 -3.5t-8 -7.5q-4 -5 -5 -11l-59 22q5 17 16 31q10 12 28 22t47 10q23 0 40 -7t28 -18t16.5 -25t5.5 -29q0 -29 -13 -42t-19 -14q3 -2 9.5 -5.5t13 -11t11.5 -19.5t5 -30q0 -36 -26.5 -56.5
t-71.5 -20.5q-32 0 -50.5 8.5t-28.5 19.5q-11 12 -16 28l45 34q4 -9 10 -16q5 -6 13.5 -11t21.5 -5q31 0 31 26q0 27 -23 27h-30z" />
    <glyph glyph-name="three.numr" horiz-adv-x="225" 
d="M82 561v51h30q17 0 17 27q0 11 -5.5 18.5t-18.5 7.5q-8 0 -13.5 -3.5t-8.5 -7.5q-4 -5 -5 -11l-59 22q5 17 16 31q10 12 28 22t47 10q23 0 40 -7t28 -18t16.5 -25t5.5 -29q0 -29 -13 -42t-19 -14q3 -2 9.5 -5.5t13 -11t11.5 -19.5t5 -30q0 -36 -26.5 -56.5t-71.5 -20.5
q-32 0 -50.5 8.5t-28.5 19.5q-11 12 -16 28l45 34q4 -9 10 -16q5 -6 14 -11t22 -5q30 0 30 26q0 27 -23 27h-30z" />
    <glyph glyph-name="two.dnom" horiz-adv-x="224" 
d="M20 0v30q0 33 17.5 53t39 35t39 28.5t17.5 32.5q0 29 -24 29q-14 0 -19.5 -12t-5.5 -20l-64 12q0 12 5 27.5t15.5 29t27.5 22.5t42 9q43 0 68 -25t25 -68q0 -28 -13 -47.5t-29 -33.5t-29 -24t-14 -18v-1h84v-59h-182z" />
    <glyph glyph-name="two.numr" horiz-adv-x="222" 
d="M18 452v30q0 33 18 52.5t39.5 34.5t39.5 28.5t18 33.5q0 31 -25 31q-15 0 -20.5 -13t-5.5 -21l-61 12q0 12 4.5 27.5t15 29t27.5 22.5t41 9q42 0 67 -25t25 -68q0 -29 -13.5 -48t-29.5 -32.5t-30.5 -23.5t-15.5 -21v-1h88v-57h-182z" />
    <glyph glyph-name="y.aalt" horiz-adv-x="469" 
d="M421 -22q0 -51 -14.5 -93t-40.5 -71t-63 -45t-83 -16q-51 0 -86 15t-57 34q-26 22 -41 50l66 75q10 -17 24 -30q12 -11 30.5 -20.5t44.5 -9.5q18 0 36 6t32 19.5t22.5 35t8.5 51.5v89q-14 -29 -43 -51.5t-81 -22.5q-37 0 -62 12.5t-40 35.5t-21.5 55t-6.5 71v314h128
v-285q0 -48 13 -68t35 -20q21 0 35 12t21.5 28.5t11 34t3.5 27.5v271h128v-504z" />
    <glyph glyph-name="yacute.aalt" horiz-adv-x="469" 
d="M421 -22q0 -51 -14.5 -93t-40.5 -71t-63 -45t-83 -16q-51 0 -86 15t-57 34q-26 22 -41 50l66 75q10 -17 24 -30q12 -11 30.5 -20.5t44.5 -9.5q18 0 36 6t32 19.5t22.5 35t8.5 51.5v89q-14 -29 -43 -51.5t-81 -22.5q-37 0 -62 12.5t-40 35.5t-21.5 55t-6.5 71v314h128
v-285q0 -48 13 -68t35 -20q21 0 35 12t21.5 28.5t11 34t3.5 27.5v271h128v-504zM176 557l70 193h152l-111 -193h-111z" />
    <glyph glyph-name="ycircumflex.aalt" horiz-adv-x="469" 
d="M421 -22q0 -51 -14.5 -93t-40.5 -71t-63 -45t-83 -16q-51 0 -86 15t-57 34q-26 22 -41 50l66 75q10 -17 24 -30q12 -11 30.5 -20.5t44.5 -9.5q18 0 36 6t32 19.5t22.5 35t8.5 51.5v89q-14 -29 -43 -51.5t-81 -22.5q-37 0 -62 12.5t-40 35.5t-21.5 55t-6.5 71v314h128
v-285q0 -48 13 -68t35 -20q21 0 35 12t21.5 28.5t11 34t3.5 27.5v271h128v-504zM86 538l77 193h137l77 -193h-110l-36 98l-35 -98h-110z" />
    <glyph glyph-name="ydieresis.aalt" horiz-adv-x="469" 
d="M421 -22q0 -51 -14.5 -93t-40.5 -71t-63 -45t-83 -16q-51 0 -86 15t-57 34q-26 22 -41 50l66 75q10 -17 24 -30q12 -11 30.5 -20.5t44.5 -9.5q18 0 36 6t32 19.5t22.5 35t8.5 51.5v89q-14 -29 -43 -51.5t-81 -22.5q-37 0 -62 12.5t-40 35.5t-21.5 55t-6.5 71v314h128
v-285q0 -48 13 -68t35 -20q21 0 35 12t21.5 28.5t11 34t3.5 27.5v271h128v-504zM140 571q-26 0 -45 19t-19 48q0 27 19 47t45 20t44.5 -20t18.5 -47q0 -29 -18.5 -48t-44.5 -19zM322 571q-26 0 -45 19t-19 48q0 27 19 47t45 20t44.5 -20t18.5 -47q0 -29 -18.5 -48t-44.5 -19
z" />
    <glyph glyph-name="ygrave.aalt" horiz-adv-x="469" 
d="M421 -22q0 -51 -14.5 -93t-40.5 -71t-63 -45t-83 -16q-51 0 -86 15t-57 34q-26 22 -41 50l66 75q10 -17 24 -30q12 -11 30.5 -20.5t44.5 -9.5q18 0 36 6t32 19.5t22.5 35t8.5 51.5v89q-14 -29 -43 -51.5t-81 -22.5q-37 0 -62 12.5t-40 35.5t-21.5 55t-6.5 71v314h128
v-285q0 -48 13 -68t35 -20q21 0 35 12t21.5 28.5t11 34t3.5 27.5v271h128v-504zM195 557l-112 193h153l69 -193h-110z" />
    <glyph glyph-name="z.aalt" horiz-adv-x="416" 
d="M203 238q28 -8 62 -24.5t63.5 -48t49.5 -80.5t20 -121q0 -51 -16 -90.5t-42.5 -66t-61 -40.5t-71.5 -14q-36 0 -68.5 12.5t-58 37.5t-40.5 61t-15 83q0 44 11 77.5t27.5 58t35.5 40.5t35 26q-17 6 -32 8t-32 2v96l156 124h-198v103h351v-104zM210 124q-11 -8 -23.5 -19.5
t-23 -29t-17 -41.5t-6.5 -57q0 -55 21 -83.5t53 -28.5t53 29.5t21 83.5t-22.5 89.5t-55.5 56.5z" />
    <glyph glyph-name="zacute.aalt" horiz-adv-x="416" 
d="M203 238q28 -8 62 -24.5t63.5 -48t49.5 -80.5t20 -121q0 -51 -16 -90.5t-42.5 -66t-61 -40.5t-71.5 -14q-36 0 -68.5 12.5t-58 37.5t-40.5 61t-15 83q0 44 11 77.5t27.5 58t35.5 40.5t35 26q-17 6 -32 8t-32 2v96l156 124h-198v103h351v-104zM210 124q-11 -8 -23.5 -19.5
t-23 -29t-17 -41.5t-6.5 -57q0 -55 21 -83.5t53 -28.5t53 29.5t21 83.5t-22.5 89.5t-55.5 56.5zM130 557l70 193h152l-111 -193h-111z" />
    <glyph glyph-name="zcaron.aalt" horiz-adv-x="416" 
d="M203 238q28 -8 62 -24.5t63.5 -48t49.5 -80.5t20 -121q0 -51 -16 -90.5t-42.5 -66t-61 -40.5t-71.5 -14q-36 0 -68.5 12.5t-58 37.5t-40.5 61t-15 83q0 44 11 77.5t27.5 58t35.5 40.5t35 26q-17 6 -32 8t-32 2v96l156 124h-198v103h351v-104zM210 124q-11 -8 -23.5 -19.5
t-23 -29t-17 -41.5t-6.5 -57q0 -55 21 -83.5t53 -28.5t53 29.5t21 83.5t-22.5 89.5t-55.5 56.5zM169 750l35 -98l35 98h111l-77 -193h-138l-76 193h110z" />
    <glyph glyph-name="zdotaccent.aalt" horiz-adv-x="416" 
d="M203 238q28 -8 62 -24.5t63.5 -48t49.5 -80.5t20 -121q0 -51 -16 -90.5t-42.5 -66t-61 -40.5t-71.5 -14q-36 0 -68.5 12.5t-58 37.5t-40.5 61t-15 83q0 44 11 77.5t27.5 58t35.5 40.5t35 26q-17 6 -32 8t-32 2v96l156 124h-198v103h351v-104zM210 124q-11 -8 -23.5 -19.5
t-23 -29t-17 -41.5t-6.5 -57q0 -55 21 -83.5t53 -28.5t53 29.5t21 83.5t-22.5 89.5t-55.5 56.5zM212 585q-26 0 -44.5 19t-18.5 48q0 28 18.5 47.5t44.5 19.5t45 -19.5t19 -47.5q0 -29 -19 -48t-45 -19z" />
    <glyph glyph-name="zero.dnom" horiz-adv-x="258" 
d="M128 -2q-55 0 -82.5 37.5t-27.5 101.5q0 63 27.5 101t82.5 38q56 0 84 -38t28 -101q0 -64 -28.5 -101.5t-83.5 -37.5zM128 62q19 0 27.5 19.5t8.5 55.5q0 71 -36 71q-38 0 -38 -71q0 -36 9 -55.5t29 -19.5z" />
    <glyph glyph-name="zero.numr" horiz-adv-x="257" 
d="M128 450q-55 0 -82.5 37.5t-27.5 101.5q0 63 27.5 101t82.5 38q56 0 84 -38t28 -101q0 -64 -28 -101.5t-84 -37.5zM128 514q19 0 28 19.5t9 55.5q0 71 -37 71q-38 0 -38 -71q0 -36 9 -55.5t29 -19.5z" />
    </font>
</defs>
</svg>
